<svg width="24" height="24" viewBox="0 0 24 24" fill="none" xmlns="http://www.w3.org/2000/svg">
<g clip-path="url(#clip0_853_10208)">
<mask id="path-1-outside-1_853_10208" maskUnits="userSpaceOnUse" x="0.359375" y="0.359375" width="23" height="23" fill="black">
<rect fill="white" x="0.359375" y="0.359375" width="23" height="23"/>
<path fill-rule="evenodd" clip-rule="evenodd" d="M11.9996 1.35938C11.7874 1.35938 11.5839 1.44366 11.4339 1.59369C11.2839 1.74372 11.1996 1.9472 11.1996 2.15938V5.63457C11.1996 5.84675 11.2839 6.05023 11.4339 6.20026C11.5839 6.35029 11.7874 6.43458 11.9996 6.43458C12.2118 6.43458 12.4152 6.35029 12.5653 6.20026C12.7153 6.05023 12.7996 5.84675 12.7996 5.63457V2.99457C14.8168 3.17396 16.7154 4.02552 18.191 5.41272C19.6665 6.79993 20.6335 8.64243 20.9369 10.6448C21.2402 12.6472 20.8625 14.6934 19.8641 16.4554C18.8658 18.2175 17.3046 19.5933 15.4311 20.3622C13.5575 21.1311 11.48 21.2486 9.53164 20.6958C7.5833 20.1431 5.877 18.9522 4.68631 17.3139C3.49562 15.6757 2.88952 13.6851 2.96518 11.6613C3.04085 9.6375 3.79389 7.69772 5.10358 6.15297C5.17497 6.07341 5.22969 5.98034 5.26451 5.87928C5.29932 5.77821 5.31353 5.67119 5.30629 5.56453C5.29906 5.45788 5.27052 5.35376 5.22236 5.25832C5.17421 5.16289 5.10741 5.07807 5.02592 5.00888C4.94444 4.93969 4.84991 4.88753 4.74793 4.85549C4.64595 4.82345 4.53858 4.81217 4.43216 4.82232C4.32575 4.83247 4.22245 4.86385 4.12836 4.9146C4.03428 4.96534 3.95132 5.03443 3.88438 5.11777C2.31652 6.96665 1.42701 9.29548 1.36308 11.7188C1.29915 14.1421 2.06464 16.5146 3.53284 18.4435C5.00104 20.3725 7.08392 21.7423 9.43671 22.3262C11.7895 22.91 14.2711 22.673 16.4708 21.6542C18.6705 20.6355 20.4564 18.8961 21.5328 16.7241C22.6093 14.552 22.9118 12.0775 22.3902 9.71013C21.8686 7.34275 20.5543 5.22445 18.6647 3.70585C16.7752 2.18726 14.4237 1.35942 11.9996 1.35938ZM10.7836 12.9274L6.75798 7.31617C6.70438 7.23915 6.67957 7.14573 6.68789 7.05226C6.6962 6.95879 6.73712 6.87122 6.80347 6.80487C6.86983 6.73851 6.9574 6.6976 7.05087 6.68928C7.14434 6.68097 7.23775 6.70578 7.31478 6.75938L12.9292 10.7834C13.1098 10.9134 13.26 11.0812 13.3694 11.2751C13.4788 11.4689 13.5448 11.6842 13.5627 11.9061C13.5807 12.128 13.5502 12.3511 13.4734 12.56C13.3965 12.7689 13.2752 12.9586 13.1178 13.116C12.9604 13.2734 12.7707 13.3947 12.5618 13.4715C12.3529 13.5484 12.1298 13.5789 11.9079 13.5609C11.686 13.543 11.4707 13.477 11.2769 13.3676C11.083 13.2582 10.9152 13.108 10.7852 12.9274"/>
</mask>
<path fill-rule="evenodd" clip-rule="evenodd" d="M11.9996 1.35938C11.7874 1.35938 11.5839 1.44366 11.4339 1.59369C11.2839 1.74372 11.1996 1.9472 11.1996 2.15938V5.63457C11.1996 5.84675 11.2839 6.05023 11.4339 6.20026C11.5839 6.35029 11.7874 6.43458 11.9996 6.43458C12.2118 6.43458 12.4152 6.35029 12.5653 6.20026C12.7153 6.05023 12.7996 5.84675 12.7996 5.63457V2.99457C14.8168 3.17396 16.7154 4.02552 18.191 5.41272C19.6665 6.79993 20.6335 8.64243 20.9369 10.6448C21.2402 12.6472 20.8625 14.6934 19.8641 16.4554C18.8658 18.2175 17.3046 19.5933 15.4311 20.3622C13.5575 21.1311 11.48 21.2486 9.53164 20.6958C7.5833 20.1431 5.877 18.9522 4.68631 17.3139C3.49562 15.6757 2.88952 13.6851 2.96518 11.6613C3.04085 9.6375 3.79389 7.69772 5.10358 6.15297C5.17497 6.07341 5.22969 5.98034 5.26451 5.87928C5.29932 5.77821 5.31353 5.67119 5.30629 5.56453C5.29906 5.45788 5.27052 5.35376 5.22236 5.25832C5.17421 5.16289 5.10741 5.07807 5.02592 5.00888C4.94444 4.93969 4.84991 4.88753 4.74793 4.85549C4.64595 4.82345 4.53858 4.81217 4.43216 4.82232C4.32575 4.83247 4.22245 4.86385 4.12836 4.9146C4.03428 4.96534 3.95132 5.03443 3.88438 5.11777C2.31652 6.96665 1.42701 9.29548 1.36308 11.7188C1.29915 14.1421 2.06464 16.5146 3.53284 18.4435C5.00104 20.3725 7.08392 21.7423 9.43671 22.3262C11.7895 22.91 14.2711 22.673 16.4708 21.6542C18.6705 20.6355 20.4564 18.8961 21.5328 16.7241C22.6093 14.552 22.9118 12.0775 22.3902 9.71013C21.8686 7.34275 20.5543 5.22445 18.6647 3.70585C16.7752 2.18726 14.4237 1.35942 11.9996 1.35938ZM10.7836 12.9274L6.75798 7.31617C6.70438 7.23915 6.67957 7.14573 6.68789 7.05226C6.6962 6.95879 6.73712 6.87122 6.80347 6.80487C6.86983 6.73851 6.9574 6.6976 7.05087 6.68928C7.14434 6.68097 7.23775 6.70578 7.31478 6.75938L12.9292 10.7834C13.1098 10.9134 13.26 11.0812 13.3694 11.2751C13.4788 11.4689 13.5448 11.6842 13.5627 11.9061C13.5807 12.128 13.5502 12.3511 13.4734 12.56C13.3965 12.7689 13.2752 12.9586 13.1178 13.116C12.9604 13.2734 12.7707 13.3947 12.5618 13.4715C12.3529 13.5484 12.1298 13.5789 11.9079 13.5609C11.686 13.543 11.4707 13.477 11.2769 13.3676C11.083 13.2582 10.9152 13.108 10.7852 12.9274" fill="white"/>
<path d="M11.9996 1.35938L11.9996 0.859375H11.9996V1.35938ZM12.7996 2.99457L12.8439 2.49654L12.2996 2.44814V2.99457H12.7996ZM5.10358 6.15297L4.73128 5.81893L4.7222 5.82963L5.10358 6.15297ZM3.88438 5.11777L4.26586 5.44127L4.27422 5.43086L3.88438 5.11777ZM6.75798 7.31617L6.34752 7.60179L6.35172 7.60764L6.75798 7.31617ZM7.31478 6.75938L7.60608 6.35294L7.60036 6.34896L7.31478 6.75938ZM12.9292 10.7834L13.2213 10.3776L13.2205 10.377L12.9292 10.7834ZM11.9996 1.35938V0.859375C11.6548 0.859375 11.3241 0.996339 11.0803 1.24014L11.4339 1.59369L11.7874 1.94724C11.8437 1.89098 11.92 1.85938 11.9996 1.85938V1.35938ZM11.4339 1.59369L11.0803 1.24014C10.8365 1.48393 10.6996 1.81459 10.6996 2.15938H11.1996H11.6996C11.6996 2.07981 11.7312 2.0035 11.7874 1.94724L11.4339 1.59369ZM11.1996 2.15938H10.6996V5.63457H11.1996H11.6996V2.15938H11.1996ZM11.1996 5.63457H10.6996C10.6996 5.97936 10.8365 6.31002 11.0803 6.55381L11.4339 6.20026L11.7874 5.84671C11.7312 5.79045 11.6996 5.71414 11.6996 5.63457H11.1996ZM11.4339 6.20026L11.0803 6.55381C11.3241 6.79761 11.6548 6.93458 11.9996 6.93458V6.43458V5.93458C11.92 5.93458 11.8437 5.90297 11.7874 5.84671L11.4339 6.20026ZM11.9996 6.43458V6.93458C12.3444 6.93458 12.675 6.79761 12.9188 6.55381L12.5653 6.20026L12.2117 5.84671C12.1554 5.90297 12.0791 5.93458 11.9996 5.93458V6.43458ZM12.5653 6.20026L12.9188 6.55381C13.1626 6.31002 13.2996 5.97936 13.2996 5.63457H12.7996H12.2996C12.2996 5.71414 12.268 5.79045 12.2117 5.84671L12.5653 6.20026ZM12.7996 5.63457H13.2996V2.99457H12.7996H12.2996V5.63457H12.7996ZM12.7996 2.99457L12.7553 3.49261C14.661 3.66207 16.4546 4.46653 17.8485 5.77701L18.191 5.41272L18.5334 5.04844C16.9763 3.5845 14.9727 2.68584 12.8439 2.49654L12.7996 2.99457ZM18.191 5.41272L17.8485 5.77701C19.2424 7.08749 20.1559 8.82808 20.4425 10.7197L20.9369 10.6448L21.4312 10.5699C21.111 8.45677 20.0906 6.51237 18.5334 5.04844L18.191 5.41272ZM20.9369 10.6448L20.4425 10.7197C20.7291 12.6113 20.3722 14.5444 19.4291 16.209L19.8641 16.4554L20.2991 16.7019C21.3527 14.8424 21.7514 12.683 21.4312 10.5699L20.9369 10.6448ZM19.8641 16.4554L19.4291 16.209C18.4859 17.8735 17.0112 19.1732 15.2412 19.8996L15.4311 20.3622L15.6209 20.8247C17.5981 20.0133 19.2456 18.5614 20.2991 16.7019L19.8641 16.4554ZM15.4311 20.3622L15.2412 19.8996C13.4713 20.626 11.5087 20.737 9.6681 20.2148L9.53164 20.6958L9.39517 21.1769C11.4513 21.7602 13.6437 21.6362 15.6209 20.8247L15.4311 20.3622ZM9.53164 20.6958L9.6681 20.2148C7.82753 19.6927 6.2156 18.5676 5.09077 17.02L4.68631 17.3139L4.28186 17.6079C5.5384 19.3367 7.33908 20.5936 9.39517 21.1769L9.53164 20.6958ZM4.68631 17.3139L5.09077 17.02C3.96594 15.4724 3.39336 13.5919 3.46484 11.68L2.96518 11.6613L2.46553 11.6426C2.38569 13.7784 3.02531 15.8791 4.28186 17.6079L4.68631 17.3139ZM2.96518 11.6613L3.46484 11.68C3.53631 9.76812 4.24771 7.93562 5.48496 6.47632L5.10358 6.15297L4.7222 5.82963C3.34008 7.45981 2.54538 9.50689 2.46553 11.6426L2.96518 11.6613ZM5.10358 6.15297L5.47573 6.48689C5.59174 6.3576 5.68066 6.20637 5.73724 6.04213L5.26451 5.87928L4.79177 5.71642C4.77872 5.75432 4.7582 5.78922 4.73142 5.81906L5.10358 6.15297ZM5.26451 5.87928L5.73724 6.04213C5.79382 5.87789 5.81691 5.70398 5.80515 5.53067L5.30629 5.56453L4.80744 5.59839C4.81016 5.63839 4.80483 5.67852 4.79177 5.71642L5.26451 5.87928ZM5.30629 5.56453L5.80515 5.53067C5.79338 5.35736 5.74701 5.18817 5.66875 5.03308L5.22236 5.25832L4.77597 5.48356C4.79403 5.51935 4.80473 5.5584 4.80744 5.59839L5.30629 5.56453ZM5.22236 5.25832L5.66875 5.03308C5.5905 4.878 5.48196 4.74017 5.34955 4.62774L5.02592 5.00888L4.7023 5.39002C4.73286 5.41597 4.75791 5.44777 4.77597 5.48356L5.22236 5.25832ZM5.02592 5.00888L5.34955 4.62774C5.21713 4.51531 5.06353 4.43055 4.8978 4.37848L4.74793 4.85549L4.59806 5.3325C4.6363 5.34452 4.67175 5.36408 4.7023 5.39002L5.02592 5.00888ZM4.74793 4.85549L4.8978 4.37848C4.73208 4.32641 4.5576 4.30809 4.38468 4.32458L4.43216 4.82232L4.47964 5.32006C4.51955 5.31626 4.55981 5.32049 4.59806 5.3325L4.74793 4.85549ZM4.43216 4.82232L4.38468 4.32458C4.21176 4.34108 4.04389 4.39206 3.891 4.47452L4.12836 4.9146L4.36572 5.35467C4.401 5.33564 4.43974 5.32387 4.47964 5.32006L4.43216 4.82232ZM4.12836 4.9146L3.891 4.47452C3.73812 4.55699 3.60331 4.66925 3.49453 4.80469L3.88438 5.11777L4.27422 5.43086C4.29933 5.3996 4.33044 5.37369 4.36572 5.35467L4.12836 4.9146ZM3.88438 5.11777L3.50304 4.79439C1.8615 6.73015 0.930184 9.16841 0.863252 11.7056L1.36308 11.7188L1.8629 11.732C1.92383 9.42254 2.77154 7.20315 4.26572 5.44116L3.88438 5.11777ZM1.36308 11.7188L0.863252 11.7056C0.79632 14.2428 1.59778 16.7268 3.13498 18.7464L3.53284 18.4435L3.9307 18.1407C2.5315 16.3024 1.80198 14.0414 1.8629 11.732L1.36308 11.7188ZM3.53284 18.4435L3.13498 18.7464C4.67217 20.766 6.85293 22.2001 9.31628 22.8114L9.43671 22.3262L9.55714 21.8409C7.31491 21.2844 5.32991 19.979 3.9307 18.1407L3.53284 18.4435ZM9.43671 22.3262L9.31628 22.8114C11.7796 23.4227 14.3779 23.1745 16.681 22.1079L16.4708 21.6542L16.2607 21.2005C14.1644 22.1714 11.7994 22.3973 9.55714 21.8409L9.43671 22.3262ZM16.4708 21.6542L16.681 22.1079C18.984 21.0413 20.8538 19.2202 21.9808 16.9461L21.5328 16.7241L21.0848 16.502C20.059 18.572 18.357 20.2296 16.2607 21.2005L16.4708 21.6542ZM21.5328 16.7241L21.9808 16.9461C23.1079 14.672 23.4246 12.0812 22.8785 9.60255L22.3902 9.71013L21.9019 9.81771C22.399 12.0738 22.1107 14.4321 21.0848 16.502L21.5328 16.7241ZM22.3902 9.71013L22.8785 9.60255C22.3324 7.12392 20.9563 4.90608 18.978 3.31612L18.6647 3.70585L18.3515 4.09558C20.1523 5.54282 21.4048 7.56158 21.9019 9.81771L22.3902 9.71013ZM18.6647 3.70585L18.978 3.31612C16.9996 1.72616 14.5377 0.859423 11.9996 0.859375L11.9996 1.35938L11.9996 1.85938C14.3098 1.85942 16.5508 2.64835 18.3515 4.09558L18.6647 3.70585ZM10.7836 12.9274L11.1898 12.6359L7.16424 7.02471L6.75798 7.31617L6.35172 7.60764L10.3773 13.2188L10.7836 12.9274ZM6.75798 7.31617L7.1684 7.03059C7.1818 7.04985 7.188 7.0732 7.18592 7.09657L6.68789 7.05226L6.18985 7.00795C6.17114 7.21826 6.22697 7.42845 6.34756 7.60176L6.75798 7.31617ZM6.68789 7.05226L7.18592 7.09657C7.18384 7.11994 7.17361 7.14183 7.15702 7.15842L6.80347 6.80487L6.44992 6.45131C6.30062 6.60061 6.20857 6.79764 6.18985 7.00795L6.68789 7.05226ZM6.80347 6.80487L7.15702 7.15842C7.14044 7.17501 7.11855 7.18524 7.09518 7.18732L7.05087 6.68928L7.00656 6.19125C6.79625 6.20996 6.59921 6.30202 6.44992 6.45131L6.80347 6.80487ZM7.05087 6.68928L7.09518 7.18732C7.07181 7.18939 7.04845 7.18319 7.0292 7.16979L7.31478 6.75938L7.60036 6.34896C7.42705 6.22836 7.21686 6.17254 7.00656 6.19125L7.05087 6.68928ZM7.31478 6.75938L7.0235 7.16577L12.6379 11.1898L12.9292 10.7834L13.2205 10.377L7.60606 6.35298L7.31478 6.75938ZM12.9292 10.7834L12.637 11.1891C12.7589 11.2769 12.8602 11.39 12.934 11.5208L13.3694 11.2751L13.8049 11.0293C13.6599 10.7724 13.4608 10.55 13.2213 10.3776L12.9292 10.7834ZM13.3694 11.2751L12.934 11.5208C13.0078 11.6515 13.0522 11.7968 13.0643 11.9464L13.5627 11.9061L14.0611 11.8658C14.0373 11.5717 13.9499 11.2863 13.8049 11.0293L13.3694 11.2751ZM13.5627 11.9061L13.0643 11.9464C13.0764 12.096 13.0559 12.2465 13.0041 12.3874L13.4734 12.56L13.9426 12.7325C14.0445 12.4556 14.0849 12.1599 14.0611 11.8658L13.5627 11.9061ZM13.4734 12.56L13.0041 12.3874C12.9523 12.5284 12.8704 12.6563 12.7643 12.7625L13.1178 13.116L13.4714 13.4696C13.68 13.261 13.8408 13.0095 13.9426 12.7325L13.4734 12.56ZM13.1178 13.116L12.7643 12.7625C12.6581 12.8686 12.5302 12.9505 12.3892 13.0023L12.5618 13.4715L12.7343 13.9408C13.0113 13.839 13.2628 13.6782 13.4714 13.4696L13.1178 13.116ZM12.5618 13.4715L12.3892 13.0023C12.2483 13.0541 12.0978 13.0746 11.9482 13.0625L11.9079 13.5609L11.8676 14.0593C12.1617 14.0831 12.4574 14.0427 12.7343 13.9408L12.5618 13.4715ZM11.9079 13.5609L11.9482 13.0625C11.7986 13.0504 11.6533 13.006 11.5226 12.9322L11.2769 13.3676L11.0311 13.8031C11.2881 13.9481 11.5735 14.0355 11.8676 14.0593L11.9079 13.5609ZM11.2769 13.3676L11.5226 12.9322C11.3918 12.8584 11.2787 12.7571 11.191 12.6352L10.7852 12.9274L10.3794 13.2195C10.5518 13.459 10.7742 13.6581 11.0311 13.8031L11.2769 13.3676Z" fill="white" mask="url(#path-1-outside-1_853_10208)"/>
</g>
<defs>
<clipPath id="clip0_853_10208">
<rect width="24" height="24" fill="white"/>
</clipPath>
</defs>
</svg>
