<svg width="200" height="200" viewBox="0 0 200 200" fill="none" xmlns="http://www.w3.org/2000/svg">
<path d="M94.5704 9.40439C96.9835 5.22466 103.016 5.22466 105.43 9.40439L181.173 140.596C183.586 144.775 180.57 150 175.743 150H24.2567C19.4304 150 16.4139 144.775 18.8271 140.596L94.5704 9.40439Z" stroke="#E4E8F0" stroke-width="6.26959"/>
<path d="M94.5701 42.0059C96.9832 37.8262 103.016 37.8262 105.429 42.006L152.939 124.294C155.352 128.474 152.335 133.699 147.509 133.699H52.4904C47.6641 133.699 44.6477 128.474 47.0608 124.294L94.5701 42.0059Z" fill="#E4E8F0" stroke="#E4E8F0" stroke-width="0.626959"/>
<rect x="82.1318" y="84.6387" width="35.7367" height="36.5428" fill="#E4E8F0"/>
<rect x="82.1318" y="84.6387" width="35.7367" height="36.5428" stroke="#E4E8F0" stroke-width="0.626959"/>
<circle cx="86.5206" cy="89.0274" r="4.38871" fill="#515660"/>
<circle cx="113.48" cy="89.0274" r="4.38871" fill="#515660"/>
<path d="M110.822 110.433C111.77 110.433 112.555 109.658 112.38 108.726C111.964 106.508 110.743 104.442 108.867 102.834C106.515 100.818 103.326 99.6855 100 99.6855C96.6745 99.6855 93.4851 100.818 91.1336 102.834C89.2568 104.442 88.0364 106.508 87.6201 108.726C87.4451 109.658 88.2298 110.433 89.1782 110.433C90.1266 110.433 90.8748 109.653 91.1137 108.735C91.4872 107.299 92.3297 105.971 93.5621 104.915C95.2696 103.452 97.5854 102.629 100 102.629C102.415 102.629 104.731 103.452 106.438 104.915C107.67 105.971 108.513 107.299 108.887 108.735C109.125 109.653 109.874 110.433 110.822 110.433Z" fill="#515660"/>
</svg>
