<svg width="293" height="201" viewBox="0 0 293 201" fill="none" xmlns="http://www.w3.org/2000/svg">
<path d="M282.367 52.6211L281.184 120.288H268.176L266.994 52.6211H282.367ZM274.746 148.669C269.622 148.669 265.286 144.464 265.417 139.34C265.286 134.216 269.622 130.011 274.746 130.011C279.739 130.011 284.075 134.216 284.075 139.34C284.075 144.464 279.739 148.669 274.746 148.669Z" fill="#C3CAD6"/>
<path d="M177.254 129.223V117.529L219.299 52.6211H237.169V117.003H250.176V129.223H237.169V147.749H223.504V129.223H177.254ZM192.495 117.003H223.504V69.8335H222.453L192.495 116.215V117.003Z" fill="#C3CAD6"/>
<path d="M129.427 149.062C107.353 149.062 94.4766 131.324 94.4766 100.184C94.4766 69.3074 107.616 51.3066 129.427 51.3066C151.238 51.3066 164.377 69.3074 164.377 100.184C164.377 131.324 151.369 149.062 129.427 149.062ZM129.427 136.58C142.303 136.58 149.924 123.966 149.924 100.184C149.924 76.5339 142.172 63.5261 129.427 63.5261C116.682 63.5261 108.93 76.5339 108.93 100.184C108.93 123.966 116.55 136.58 129.427 136.58Z" fill="#C3CAD6"/>
<circle cx="117.285" cy="92.0267" r="3.84314" fill="#667077"/>
<circle cx="140.892" cy="92.0267" r="3.84314" fill="#667077"/>
<path d="M138.565 110.771C139.396 110.771 140.083 110.092 139.93 109.276C139.565 107.334 138.497 105.525 136.853 104.116C134.794 102.351 132.001 101.359 129.089 101.359C126.177 101.359 123.384 102.351 121.324 104.116C119.681 105.525 118.612 107.334 118.248 109.276C118.095 110.092 118.782 110.771 119.612 110.771C120.443 110.771 121.098 110.087 121.307 109.284C121.634 108.027 122.372 106.864 123.451 105.939C124.946 104.657 126.974 103.937 129.089 103.937C131.203 103.937 133.231 104.657 134.726 105.939C135.806 106.864 136.543 108.027 136.871 109.284C137.08 110.087 137.735 110.771 138.565 110.771Z" fill="#667077"/>
<path d="M8.80859 129.223V117.529L50.854 52.6211H68.7234V117.003H81.7312V129.223H68.7234V147.749H55.0586V129.223H8.80859ZM24.0501 117.003H55.0586V69.8335H54.0075L24.0501 116.215V117.003Z" fill="#C3CAD6"/>
</svg>
