<svg width="14" height="18" viewBox="0 0 14 18" fill="none" xmlns="http://www.w3.org/2000/svg">
<path d="M6.5 10.075V14.269C6.5 14.4117 6.54767 14.5307 6.643 14.626C6.73833 14.7213 6.85733 14.769 7 14.769C7.14267 14.769 7.26167 14.7213 7.357 14.626C7.45233 14.5307 7.5 14.4117 7.5 14.269V10.075L9.246 11.821C9.29467 11.8697 9.34933 11.9063 9.41 11.931C9.47133 11.955 9.53233 11.9663 9.593 11.965C9.65367 11.963 9.717 11.9497 9.783 11.925C9.84833 11.901 9.905 11.8643 9.953 11.815C10.0597 11.705 10.114 11.5873 10.116 11.462C10.118 11.336 10.064 11.218 9.954 11.108L7.565 8.719C7.47833 8.63233 7.38933 8.57133 7.298 8.536C7.20733 8.50067 7.108 8.483 7 8.483C6.892 8.483 6.79267 8.50067 6.702 8.536C6.61133 8.57133 6.52233 8.63233 6.435 8.719L4.046 11.108C3.94867 11.2053 3.89767 11.32 3.893 11.452C3.88833 11.584 3.94133 11.7053 4.052 11.816C4.162 11.922 4.28 11.976 4.406 11.978C4.532 11.98 4.64967 11.926 4.759 11.816L6.5 10.075ZM1.616 18C1.15533 18 0.771 17.846 0.463 17.538C0.155 17.23 0.000666667 16.8457 0 16.385V1.615C0 1.155 0.154333 0.771 0.463 0.463C0.771667 0.155 1.156 0.000666667 1.616 0H8.829C9.04433 0 9.25367 0.0433334 9.457 0.13C9.66033 0.216667 9.83433 0.333 9.979 0.479L13.52 4.02C13.6647 4.16533 13.7807 4.33933 13.868 4.542C13.9553 4.74467 13.999 4.954 13.999 5.17V16.384C13.999 16.844 13.8447 17.2283 13.536 17.537C13.2273 17.8457 12.8437 18 12.385 18H1.616ZM9 4.192C9 4.42467 9.07667 4.61733 9.23 4.77C9.38333 4.92267 9.576 4.99933 9.808 5H13L9 1V4.192Z" fill="#B8BEC3"/>
</svg>
