<svg width="16" height="16" viewBox="0 0 16 16" fill="none" xmlns="http://www.w3.org/2000/svg">
<path d="M7.92927 8.87625V12.2936C7.92927 12.4098 7.96786 12.5068 8.04504 12.5845C8.12222 12.6622 8.21856 12.701 8.33406 12.701C8.44956 12.701 8.5459 12.6622 8.62308 12.5845C8.70026 12.5068 8.73885 12.4098 8.73885 12.2936V8.87625L10.1524 10.2989C10.1918 10.3386 10.236 10.3684 10.2852 10.3885C10.3348 10.4081 10.3842 10.4173 10.4333 10.4163C10.4824 10.4146 10.5337 10.4038 10.5871 10.3837C10.64 10.3641 10.6859 10.3342 10.7248 10.294C10.8111 10.2044 10.8551 10.1085 10.8567 10.0064C10.8583 9.90373 10.8146 9.80758 10.7256 9.71795L8.79148 7.77136C8.72131 7.70075 8.64926 7.65104 8.57532 7.62225C8.50192 7.59346 8.4215 7.57907 8.33406 7.57907C8.24663 7.57907 8.16621 7.59346 8.09281 7.62225C8.01941 7.65104 7.94735 7.70075 7.87665 7.77136L5.94256 9.71795C5.86376 9.79726 5.82247 9.8907 5.81869 9.99825C5.81492 10.1058 5.85782 10.2047 5.94742 10.2948C6.03647 10.3812 6.132 10.4252 6.23401 10.4268C6.33602 10.4285 6.43128 10.3845 6.51979 10.2948L7.92927 8.87625ZM3.97528 15.3337C3.60233 15.3337 3.29118 15.2082 3.04183 14.9572C2.79248 14.7063 2.66753 14.3931 2.66699 14.0177V1.98292C2.66699 1.6081 2.79194 1.29521 3.04183 1.04425C3.29172 0.793289 3.60287 0.667535 3.97528 0.666992H9.81479C9.98912 0.666992 10.1586 0.702301 10.3232 0.772918C10.4878 0.843535 10.6287 0.938326 10.7458 1.05729L13.6125 3.94255C13.7297 4.06097 13.8236 4.20275 13.8943 4.36788C13.965 4.53302 14.0003 4.70358 14.0003 4.87958V14.0169C14.0003 14.3917 13.8754 14.7049 13.6255 14.9564C13.3756 15.2079 13.065 15.3337 12.6937 15.3337H3.97528ZM9.95323 4.0827C9.95323 4.27228 10.0153 4.42926 10.1394 4.55366C10.2636 4.67805 10.4195 4.74052 10.6074 4.74107H13.1916L9.95323 1.48181V4.0827Z" fill="#515660"/>
<path d="M7.92927 8.87625V12.2936C7.92927 12.4098 7.96786 12.5068 8.04504 12.5845C8.12222 12.6622 8.21856 12.701 8.33406 12.701C8.44956 12.701 8.5459 12.6622 8.62308 12.5845C8.70026 12.5068 8.73885 12.4098 8.73885 12.2936V8.87625L10.1524 10.2989C10.1918 10.3386 10.236 10.3684 10.2852 10.3885C10.3348 10.4081 10.3842 10.4173 10.4333 10.4163C10.4824 10.4146 10.5337 10.4038 10.5871 10.3837C10.64 10.3641 10.6859 10.3342 10.7248 10.294C10.8111 10.2044 10.8551 10.1085 10.8567 10.0064C10.8583 9.90373 10.8146 9.80758 10.7256 9.71795L8.79148 7.77136C8.72131 7.70075 8.64926 7.65104 8.57532 7.62225C8.50192 7.59346 8.4215 7.57907 8.33406 7.57907C8.24663 7.57907 8.16621 7.59346 8.09281 7.62225C8.01941 7.65104 7.94735 7.70075 7.87665 7.77136L5.94256 9.71795C5.86376 9.79726 5.82247 9.8907 5.81869 9.99825C5.81492 10.1058 5.85782 10.2047 5.94742 10.2948C6.03647 10.3812 6.132 10.4252 6.23401 10.4268C6.33602 10.4285 6.43128 10.3845 6.51979 10.2948L7.92927 8.87625Z" fill="#515660"/>
</svg>
