<svg viewBox="0 0 24 24" fill="none" xmlns="http://www.w3.org/2000/svg">
<path d="M11.9922 14.6499C11.4671 14.6504 10.9538 14.4949 10.5172 14.2031C10.0807 13.9113 9.74069 13.4964 9.54034 13.0111C9.33999 12.5258 9.28834 11.9918 9.39193 11.4771C9.49553 10.9624 9.7497 10.49 10.1222 10.1199C10.1925 10.0503 10.2757 9.99525 10.3673 9.95783C10.4588 9.92042 10.5568 9.9014 10.6557 9.90186C10.7546 9.90233 10.8525 9.92227 10.9437 9.96054C11.0348 9.99882 11.1176 10.0547 11.1872 10.1249C11.2568 10.1952 11.3119 10.2785 11.3493 10.37C11.3867 10.4616 11.4057 10.5596 11.4053 10.6585C11.4048 10.7574 11.3849 10.8552 11.3466 10.9464C11.3083 11.0376 11.2525 11.1203 11.1822 11.1899C11.0743 11.2954 10.9887 11.4214 10.9303 11.5605C10.8719 11.6997 10.8419 11.8491 10.8422 11.9999C10.8289 12.2374 10.8902 12.4732 11.0176 12.6741C11.145 12.875 11.332 13.031 11.5525 13.1203C11.773 13.2096 12.0159 13.2277 12.2471 13.172C12.4784 13.1164 12.6865 12.9898 12.8422 12.8099C12.9845 12.6689 13.1768 12.5897 13.3772 12.5897C13.5776 12.5897 13.7699 12.6689 13.9122 12.8099C14.0509 12.9535 14.1284 13.1453 14.1284 13.3449C14.1284 13.5446 14.0509 13.7364 13.9122 13.8799C13.6595 14.1295 13.3595 14.3262 13.0298 14.4584C12.7001 14.5907 12.3474 14.6558 11.9922 14.6499Z" fill="currentColor"/>
<path d="M22.2422 12C22.2422 14.7185 21.1623 17.3256 19.24 19.2478C17.3178 21.1701 14.7107 22.25 11.9922 22.25C9.27372 22.25 6.66659 21.1701 4.74434 19.2478C2.82209 17.3256 1.74219 14.7185 1.74219 12C1.74219 9.28153 2.82209 6.6744 4.74434 4.75216C6.66659 2.82991 9.27372 1.75 11.9922 1.75C12.1911 1.75 12.3819 1.82902 12.5225 1.96967C12.6632 2.11032 12.7422 2.30109 12.7422 2.5V6.3C12.7396 6.49811 12.6597 6.68737 12.5197 6.82747C12.3796 6.96756 12.1903 7.04741 11.9922 7.05C11.0128 7.04326 10.0543 7.33257 9.24219 7.88C8.42551 8.42125 7.78863 9.19356 7.41282 10.0984C7.037 11.0032 6.9393 11.9994 7.13219 12.96C7.44587 14.0996 8.15312 15.0912 9.12844 15.7589C10.1038 16.4265 11.2841 16.7271 12.4599 16.6073C13.6358 16.4874 14.7312 15.9548 15.5517 15.1041C16.3723 14.2534 16.8649 13.1394 16.9422 11.96C16.9408 11.8611 16.9593 11.763 16.9965 11.6714C17.0338 11.5798 17.0889 11.4966 17.1589 11.4267C17.2288 11.3568 17.312 11.3016 17.4036 11.2643C17.4952 11.2271 17.5933 11.2087 17.6922 11.21H21.4922C21.5941 11.2099 21.695 11.2305 21.7887 11.2707C21.8825 11.3108 21.967 11.3697 22.0372 11.4436C22.1074 11.5176 22.1618 11.605 22.197 11.7007C22.2323 11.7964 22.2476 11.8982 22.2422 12Z" fill="currentColor"/>
<path d="M21.8811 6.13018C21.855 6.32474 21.7753 6.50822 21.6511 6.66018L19.4811 8.83018C19.1725 9.14003 18.7907 9.36703 18.3711 9.49018C18.1249 9.56577 17.8686 9.60287 17.6111 9.60018C17.4347 9.61582 17.2574 9.61582 17.0811 9.60018L15.7511 9.34018L13.4711 11.6302C13.3277 11.7665 13.1389 11.8449 12.9411 11.8502C12.7422 11.85 12.5516 11.7709 12.4111 11.6302C12.3403 11.5612 12.2841 11.4788 12.2457 11.3878C12.2073 11.2968 12.1875 11.199 12.1875 11.1002C12.1875 11.0014 12.2073 10.9036 12.2457 10.8126C12.2841 10.7215 12.3403 10.6391 12.4111 10.5702L14.7011 8.27018L14.4311 6.95018C14.3504 6.52471 14.3709 6.08623 14.4911 5.67018C14.6142 5.25056 14.8412 4.86879 15.1511 4.56018L17.3011 2.41018C17.4488 2.27579 17.6334 2.18872 17.8311 2.16018C18.016 2.13338 18.2048 2.16483 18.3711 2.25018C18.5361 2.33411 18.6746 2.4622 18.7711 2.62018C18.8687 2.79696 18.9106 2.99916 18.8911 3.20018L18.5711 5.46018L20.8211 5.15018C21.0094 5.13169 21.1989 5.17049 21.3649 5.26148C21.5308 5.35248 21.6654 5.49144 21.7511 5.66018C21.8325 5.80372 21.8772 5.96519 21.8811 6.13018Z" fill="currentColor"/>
</svg>
