<svg width="24" height="24" viewBox="0 0 24 24" fill="none" xmlns="http://www.w3.org/2000/svg">
<path fill-rule="evenodd" clip-rule="evenodd" d="M2.45429 10.6358C2.311 10.7694 2.19674 10.931 2.11859 11.1107C2.04043 11.2903 2.00007 11.4841 2 11.68V19.8572C2 20.4255 2.22576 20.9706 2.62763 21.3724C3.02949 21.7743 3.57454 22 4.14286 22H10.5714V17.7143C10.5714 17.3355 10.7219 16.9721 10.9898 16.7042C11.2578 16.4363 11.6211 16.2858 12 16.2858C12.3789 16.2858 12.7422 16.4363 13.0102 16.7042C13.2781 16.9721 13.4286 17.3355 13.4286 17.7143V22H19.8571C20.4255 22 20.9705 21.7743 21.3724 21.3724C21.7742 20.9706 22 20.4255 22 19.8572V11.68C21.9999 11.4841 21.9596 11.2903 21.8814 11.1107C21.8033 10.931 21.689 10.7694 21.5457 10.6358L12.4643 2.17148C12.3349 2.06081 12.1703 2 12 2C11.8297 2 11.6651 2.06081 11.5357 2.17148L2.45429 10.6358Z" fill="#515660"/>
</svg>
