<svg width="16" height="16" viewBox="0 0 16 16" fill="none" xmlns="http://www.w3.org/2000/svg">
<path d="M8.00012 11.3331L7.00012 12.3331C6.55805 12.7751 5.95855 13.0234 5.33346 13.0234C4.70836 13.0234 4.10886 12.7751 3.66679 12.3331C3.22484 11.8911 2.97656 11.2916 2.97656 10.6665C2.97656 10.0414 3.22484 9.44187 3.66679 8.9998L5.66679 6.9998C6.10886 6.55785 6.70836 6.30957 7.33346 6.30957C7.95855 6.30957 8.55806 6.55785 9.00012 6.9998" stroke="#515660" stroke-width="2" stroke-linecap="round"/>
<path d="M8 4.66679L9 3.66679C9.44207 3.22484 10.0416 2.97656 10.6667 2.97656C11.2918 2.97656 11.8913 3.22484 12.3333 3.66679C12.7753 4.10886 13.0236 4.70836 13.0236 5.33346C13.0236 5.95855 12.7753 6.55805 12.3333 7.00012L10.3333 9.00012C9.89127 9.44207 9.29176 9.69035 8.66667 9.69035C8.04157 9.69035 7.44207 9.44207 7 9.00012" stroke="#515660" stroke-width="2" stroke-linecap="round"/>
</svg>
