<svg width="16" height="16" viewBox="0 0 16 16" fill="none" xmlns="http://www.w3.org/2000/svg">
<path d="M4.75 1C4.28587 1 3.84075 1.18437 3.51256 1.51256C3.18437 1.84075 3 2.28587 3 2.75V13.25C3 14.216 3.784 15 4.75 15H12.25C12.7141 15 13.1592 14.8156 13.4874 14.4874C13.8156 14.1592 14 13.7141 14 13.25V2.75C14 2.28587 13.8156 1.84075 13.4874 1.51256C13.1592 1.18437 12.7141 1 12.25 1H4.75ZM5 3.75C5 3.55109 5.07902 3.36032 5.21967 3.21967C5.36032 3.07902 5.55109 3 5.75 3H11.25C11.4489 3 11.6397 3.07902 11.7803 3.21967C11.921 3.36032 12 3.55109 12 3.75V4.25C12 4.44891 11.921 4.63968 11.7803 4.78033C11.6397 4.92098 11.4489 5 11.25 5H5.75C5.55109 5 5.36032 4.92098 5.21967 4.78033C5.07902 4.63968 5 4.44891 5 4.25V3.75Z" fill="#4C82F7"/>
</svg>
