<svg width="18" height="18" viewBox="0 0 18 18" fill="none" xmlns="http://www.w3.org/2000/svg">
<path d="M9.00018 14.0002L7.50018 15.5002C6.83708 16.1631 5.93783 16.5355 5.00018 16.5355C4.06254 16.5355 3.16329 16.1631 2.50018 15.5002C1.83726 14.8371 1.46484 13.9378 1.46484 13.0002C1.46484 12.0625 1.83726 11.1633 2.50018 10.5002L5.50018 7.50019C6.16329 6.83726 7.06254 6.46484 8.00018 6.46484C8.93783 6.46484 9.83708 6.83726 10.5002 7.50019" stroke="white" stroke-width="2" stroke-linecap="round"/>
<path d="M9 4.00018L10.5 2.50018C11.1631 1.83726 12.0624 1.46484 13 1.46484C13.9376 1.46484 14.8369 1.83726 15.5 2.50018C16.1629 3.16329 16.5353 4.06254 16.5353 5.00018C16.5353 5.93783 16.1629 6.83708 15.5 7.50018L12.5 10.5002C11.8369 11.1631 10.9376 11.5355 10 11.5355C9.06236 11.5355 8.1631 11.1631 7.5 10.5002" stroke="white" stroke-width="2" stroke-linecap="round"/>
</svg>
