<svg width="24" height="24" viewBox="0 0 24 24" fill="none" xmlns="http://www.w3.org/2000/svg">
<path d="M17.7932 13.0001C18.2387 13.0001 18.4617 13.5386 18.1468 13.8536L15.3514 16.649C15.1571 16.8433 15.156 17.158 15.3489 17.3536L16.0468 18.0615C16.2416 18.2591 16.5601 18.2603 16.7564 18.064L22.4668 12.3536C22.662 12.1584 22.662 11.8418 22.4668 11.6465L16.7564 5.93615C16.5601 5.73991 16.2416 5.74104 16.0468 5.93866L15.3489 6.64654C15.156 6.8422 15.1571 7.15685 15.3514 7.35113L18.1468 10.1465C18.4617 10.4615 18.2387 11.0001 17.7932 11.0001H3.50031C3.22417 11.0001 3.00031 11.2239 3.00031 11.5001V12.5001C3.00031 12.7762 3.22417 13.0001 3.50031 13.0001H17.7932ZM3.50031 6.00008C3.22417 6.00008 3.00031 6.22394 3.00031 6.50008V7.50008C3.00031 7.77622 3.22417 8.00008 3.50031 8.00008H12.5003C12.7765 8.00008 13.0003 7.77622 13.0003 7.50008V6.50008C13.0003 6.22394 12.7765 6.00008 12.5003 6.00008H3.50031ZM3.50031 16.0001C3.22417 16.0001 3.00031 16.2239 3.00031 16.5001V17.5001C3.00031 17.7762 3.22417 18.0001 3.50031 18.0001H12.5003C12.7765 18.0001 13.0003 17.7762 13.0003 17.5001V16.5001C13.0003 16.2239 12.7765 16.0001 12.5003 16.0001H3.50031Z" fill="#515660"/>
</svg>
