<svg width="24" height="24" viewBox="0 0 24 24" fill="none" xmlns="http://www.w3.org/2000/svg">
<path d="M6.20679 13.0001C5.76134 13.0001 5.53826 13.5386 5.85324 13.8536L8.64863 16.649C8.84292 16.8433 8.84403 17.158 8.65113 17.3536L7.95322 18.0615C7.75838 18.2591 7.43986 18.2603 7.24362 18.064L1.53324 12.3536C1.33798 12.1584 1.33798 11.8418 1.53324 11.6465L7.24362 5.93615C7.43986 5.73991 7.75838 5.74104 7.95322 5.93866L8.65113 6.64654C8.84403 6.8422 8.84292 7.15685 8.64863 7.35113L5.85324 10.1465C5.53826 10.4615 5.76134 11.0001 6.20679 11.0001H20.4997C20.7758 11.0001 20.9997 11.2239 20.9997 11.5001V12.5001C20.9997 12.7762 20.7758 13.0001 20.4997 13.0001H6.20679ZM20.4997 6.00008C20.7758 6.00008 20.9997 6.22394 20.9997 6.50008V7.50008C20.9997 7.77622 20.7758 8.00008 20.4997 8.00008H11.4997C11.2235 8.00008 10.9997 7.77622 10.9997 7.50008V6.50008C10.9997 6.22394 11.2235 6.00008 11.4997 6.00008H20.4997ZM20.4997 16.0001C20.7758 16.0001 20.9997 16.2239 20.9997 16.5001V17.5001C20.9997 17.7762 20.7758 18.0001 20.4997 18.0001H11.4997C11.2235 18.0001 10.9997 17.7762 10.9997 17.5001V16.5001C10.9997 16.2239 11.2235 16.0001 11.4997 16.0001H20.4997Z" fill="#515660"/>
</svg>
