<svg width="20" height="20" viewBox="0 0 20 20" fill="none" xmlns="http://www.w3.org/2000/svg">
<circle cx="10" cy="10" r="10" fill="#FFD84D"/>
<path d="M9.24371 11.9345C9.26439 12.3375 9.59714 12.6536 10.0006 12.6536C10.4041 12.6536 10.7369 12.3375 10.7575 11.9345L11.0356 6.51859L11.0796 5.29688C11.0965 4.82521 10.7188 4.43359 10.2468 4.43359H9.75447C9.28249 4.43359 8.90471 4.82521 8.92168 5.29688L8.96563 6.51859L9.24371 11.9345ZM8.92062 15.2103C8.92062 15.6705 9.29372 16.0436 9.75396 16.0436H10.2773C10.7375 16.0436 11.1106 15.6705 11.1106 15.2103V14.7469C11.1106 14.2867 10.7375 13.9136 10.2773 13.9136H9.75396C9.29372 13.9136 8.92062 14.2867 8.92062 14.7469V15.2103Z" fill="#515660"/>
</svg>
