<svg width="60" height="60" viewBox="0 0 60 60" fill="none" xmlns="http://www.w3.org/2000/svg">
<g clip-path="url(#clip0_378_128)">
<path d="M27.8477 12.6161C28.07 11.5578 29.0034 10.8001 30.0847 10.8001H57.1157C58.6248 10.8001 59.7197 12.2368 59.3196 13.6919L57.4339 20.549C57.161 21.5412 56.2589 22.2287 55.23 22.2287H28.6447C27.1933 22.2287 26.1095 20.8936 26.4077 19.4732L27.8477 12.6161Z" fill="#4C82F7"/>
<path d="M17.133 26.1838C17.4093 25.1968 18.309 24.5144 19.334 24.5144H56.8421C58.4309 24.5144 59.535 26.0953 58.9881 27.587L56.4738 34.4441C56.1437 35.3444 55.2867 35.943 54.3278 35.943H17.414C15.9005 35.943 14.8049 34.4985 15.213 33.041L17.133 26.1838Z" fill="#8CB8F9"/>
<path d="M6.43596 39.7593C6.75683 38.8426 7.62205 38.2287 8.59335 38.2287H56.5526C58.218 38.2287 59.3243 39.9527 58.6304 41.4668L55.4876 48.3239C55.1152 49.1364 54.3034 49.6573 53.4097 49.6573H6.19335C4.61884 49.6573 3.51582 48.1026 4.03596 46.6165L6.43596 39.7593Z" fill="#D5E6FF"/>
<path d="M0.899414 48.2993L5.39941 35.6993H11.6994L15.8994 22.1993H22.4994L25.7994 11.0993" stroke="#FFD84D" stroke-width="1.8" stroke-linecap="round" stroke-linejoin="round"/>
</g>
<defs>
<clipPath id="clip0_378_128">
<rect width="60" height="60" fill="white"/>
</clipPath>
</defs>
</svg>
