<svg width="900" height="700" viewBox="0 0 900 700" fill="none" xmlns="http://www.w3.org/2000/svg">
<g clip-path="url(#clip0_1326_71344)">
<rect width="900" height="700" rx="20" fill="#F4F7FB"/>
<rect x="330" y="411" width="500" height="460" rx="20" fill="white"/>
<path d="M373.327 458.375C372.889 458.375 372.461 458.245 372.097 458.002C371.734 457.759 371.45 457.413 371.283 457.009C371.116 456.605 371.073 456.16 371.16 455.731C371.246 455.302 371.458 454.908 371.768 454.6C371.827 454.542 371.896 454.496 371.972 454.465C372.049 454.433 372.13 454.418 372.213 454.418C372.295 454.418 372.377 454.435 372.453 454.467C372.529 454.499 372.598 454.545 372.656 454.604C372.714 454.662 372.76 454.732 372.791 454.808C372.822 454.884 372.838 454.966 372.837 455.048C372.837 455.131 372.82 455.212 372.789 455.288C372.757 455.364 372.71 455.433 372.652 455.491C372.562 455.579 372.49 455.684 372.442 455.8C372.393 455.916 372.368 456.041 372.368 456.166C372.357 456.364 372.408 456.561 372.514 456.728C372.62 456.896 372.776 457.026 372.96 457.1C373.144 457.174 373.346 457.189 373.539 457.143C373.732 457.097 373.905 456.991 374.035 456.841C374.153 456.724 374.314 456.658 374.481 456.658C374.648 456.658 374.808 456.724 374.927 456.841C375.042 456.961 375.107 457.121 375.107 457.287C375.107 457.454 375.042 457.613 374.927 457.733C374.716 457.941 374.466 458.105 374.191 458.215C373.916 458.325 373.622 458.38 373.327 458.375Z" fill="#515660"/>
<path d="M381.868 456.165C381.868 458.43 380.969 460.603 379.367 462.205C377.765 463.806 375.592 464.706 373.327 464.706C371.061 464.706 368.889 463.806 367.287 462.205C365.685 460.603 364.785 458.43 364.785 456.165C364.785 453.899 365.685 451.727 367.287 450.125C368.889 448.523 371.061 447.623 373.327 447.623C373.493 447.623 373.652 447.689 373.769 447.806C373.886 447.923 373.952 448.082 373.952 448.248V451.415C373.95 451.58 373.883 451.738 373.766 451.854C373.65 451.971 373.492 452.038 373.327 452.04C372.511 452.034 371.712 452.275 371.035 452.731C370.355 453.182 369.824 453.826 369.511 454.58C369.198 455.334 369.116 456.164 369.277 456.965C369.538 457.914 370.128 458.741 370.94 459.297C371.753 459.854 372.737 460.104 373.717 460.004C374.697 459.904 375.609 459.46 376.293 458.751C376.977 458.043 377.387 457.114 377.452 456.131C377.451 456.049 377.466 455.967 377.497 455.891C377.528 455.815 377.574 455.745 377.632 455.687C377.691 455.629 377.76 455.583 377.836 455.552C377.913 455.521 377.994 455.505 378.077 455.506H381.243C381.328 455.506 381.413 455.523 381.491 455.557C381.569 455.59 381.639 455.639 381.698 455.701C381.756 455.763 381.801 455.836 381.831 455.915C381.86 455.995 381.873 456.08 381.868 456.165Z" fill="#515660"/>
<path d="M381.568 451.273C381.546 451.435 381.48 451.588 381.377 451.715L379.568 453.523C379.311 453.781 378.993 453.97 378.643 454.073C378.438 454.136 378.224 454.167 378.01 454.165C377.863 454.178 377.715 454.178 377.568 454.165L376.46 453.948L374.56 455.856C374.44 455.97 374.283 456.035 374.118 456.04C373.953 456.04 373.794 455.974 373.677 455.856C373.618 455.799 373.571 455.73 373.539 455.654C373.507 455.579 373.49 455.497 373.49 455.415C373.49 455.332 373.507 455.251 373.539 455.175C373.571 455.099 373.618 455.031 373.677 454.973L375.585 453.056L375.36 451.956C375.293 451.602 375.31 451.236 375.41 450.89C375.513 450.54 375.702 450.222 375.96 449.965L377.752 448.173C377.875 448.061 378.028 447.989 378.193 447.965C378.347 447.942 378.505 447.969 378.643 448.04C378.781 448.11 378.896 448.216 378.977 448.348C379.058 448.495 379.093 448.664 379.077 448.831L378.81 450.715L380.685 450.456C380.842 450.441 381 450.473 381.138 450.549C381.276 450.625 381.388 450.741 381.46 450.881C381.528 451.001 381.565 451.136 381.568 451.273Z" fill="#515660"/>
<path d="M408.021 448.393V454.643H403.196V456.342H410.071V458.354H393.86V456.342H400.696V454.643H395.872V448.393H408.021ZM398.313 450.326V452.689H405.579V450.326H398.313ZM408.099 459.662V465.463H405.618V461.615H395.657V459.662H408.099ZM427.415 461.498V463.49H411.146V461.498H415.188V458.119H412.493V456.107H414.876V451.107H412.415V449.115H426.048V451.107H423.548V456.107H425.97V458.119H423.294V461.498H427.415ZM417.376 456.107H421.087V451.107H417.376V456.107ZM417.688 461.498H420.794V458.119H417.688V461.498ZM438.724 450.854C438.724 452.768 439.72 454.682 442.083 455.58L440.755 457.475C439.241 456.898 438.196 455.844 437.552 454.525C436.907 456.068 435.794 457.357 434.134 458.041L432.786 456.127C435.286 455.033 436.302 452.846 436.302 450.854V448.764H438.724V450.854ZM448.313 447.709V458.568H445.95V454.057H444.466V458.021H442.142V448.021H444.466V452.045H445.95V447.709H448.313ZM442.239 458.822C445.989 458.822 448.392 460.072 448.411 462.143C448.392 464.213 445.989 465.463 442.239 465.463C438.47 465.463 436.087 464.213 436.087 462.143C436.087 460.072 438.47 458.822 442.239 458.822ZM442.239 460.678C439.915 460.678 438.567 461.186 438.587 462.143C438.567 463.1 439.915 463.588 442.239 463.588C444.544 463.588 445.892 463.1 445.892 462.143C445.892 461.186 444.544 460.678 442.239 460.678ZM457.044 450.111C457.024 452.494 458.255 454.682 461.106 455.561L459.798 457.514C457.884 456.85 456.585 455.619 455.853 454.018C455.052 455.873 453.616 457.338 451.478 458.061L450.169 456.068C453.216 455.092 454.505 452.709 454.524 450.229V448.607H457.044V450.111ZM465.306 447.689V458.1H462.825V452.982H459.485V450.951H462.825V447.689H465.306ZM459.231 458.568C463.021 458.568 465.345 459.838 465.364 462.025C465.345 464.213 463.021 465.463 459.231 465.463C455.442 465.463 453.118 464.213 453.118 462.025C453.118 459.838 455.442 458.568 459.231 458.568ZM459.231 460.502C456.868 460.502 455.599 461.01 455.599 462.025C455.599 463.002 456.868 463.529 459.231 463.529C461.595 463.529 462.884 463.002 462.884 462.025C462.884 461.01 461.595 460.502 459.231 460.502Z" fill="#292C32"/>
<path d="M781.666 451.166L791.666 461.166" stroke="#667077" stroke-width="1.66667" stroke-linecap="round" stroke-linejoin="round"/>
<path d="M791.666 451.166L781.666 461.166" stroke="#667077" stroke-width="1.66667" stroke-linecap="round" stroke-linejoin="round"/>
<path d="M375.524 516.003V521.114H371.422V522.66H377.233V524.125H363.821V522.66H369.599V521.114H365.514V516.003H375.524ZM367.272 517.419V519.682H373.733V517.419H367.272ZM375.589 525.362V530.115H373.782V526.794H365.302V525.362H375.589ZM391.67 526.957V528.422H378.226V526.957H381.709V523.93H379.381V522.465H381.448V518.103H379.332V516.654H390.498V518.103H388.349V522.465H390.449V523.93H388.121V526.957H391.67ZM383.255 522.465H386.559V518.103H383.255V522.465ZM383.515 526.957H386.315V523.93H383.515V526.957Z" fill="#667077"/>
<rect x="363.75" y="549.749" width="432.5" height="35.8333" rx="6.25" fill="white"/>
<rect x="363.75" y="549.749" width="432.5" height="35.8333" rx="6.25" stroke="#E4E8F0" stroke-width="0.833333"/>
<path d="M390.404 562.106V569.32H389.219V562.106H390.404ZM388.242 562.301V569.294H387.07V568.708H385.104V567.848H387.07V562.301H388.242ZM380.365 566.572C381.94 566.572 384.557 566.546 386.484 566.234L386.576 567.08C385.814 567.236 384.974 567.34 384.141 567.406V569.268H382.943V567.471C382.025 567.516 381.165 567.523 380.482 567.523L380.365 566.572ZM383.594 569.723V570.713H389.18V569.723H390.404V573.63H382.383V569.723H383.594ZM383.594 572.653H389.18V571.676H383.594V572.653ZM383.49 562.51C385.013 562.523 386.042 563.174 386.042 564.242C386.042 565.309 385.013 565.986 383.49 565.986C381.953 565.986 380.937 565.309 380.937 564.242C380.937 563.174 381.953 562.523 383.49 562.51ZM383.49 563.395C382.604 563.382 382.057 563.695 382.057 564.242C382.057 564.788 382.604 565.101 383.49 565.101C384.362 565.101 384.935 564.788 384.935 564.242C384.935 563.695 384.362 563.382 383.49 563.395ZM399.414 565.075C399.414 567.21 400.612 569.333 402.396 570.14L401.641 571.13C400.312 570.465 399.316 569.144 398.802 567.549C398.288 569.229 397.266 570.648 395.924 571.351L395.143 570.348C396.953 569.489 398.164 567.236 398.164 565.075V563.083H399.414V565.075ZM404.935 562.106V573.799H403.711V566.989H401.107V565.986H403.711V562.106H404.935ZM416.393 562.106V573.799H415.156V562.106H416.393ZM408.62 563.083V566.077H411.758V563.083H412.982V570.999H407.383V563.083H408.62ZM408.62 569.984H411.758V567.054H408.62V569.984ZM424.18 563.76C424.18 565.661 426.211 567.458 428.451 567.861L427.878 568.89C426.016 568.486 424.297 567.262 423.542 565.622C422.773 567.249 421.061 568.473 419.193 568.89L418.646 567.861C420.859 567.445 422.878 565.661 422.878 563.76V562.874H424.18V563.76ZM428.932 571.208V572.236H418.255V571.208H428.932ZM438.945 563.135V568.577H433.49V563.135H438.945ZM434.701 564.137V567.601H437.734V564.137H434.701ZM442.201 562.093V565.583H443.893V566.624H442.201V570.648H440.964V562.093H442.201ZM442.695 572.523V573.525H434.805V569.827H436.042V572.523H442.695ZM455.208 566.885V567.874H444.557V566.885H455.208ZM453.945 565.049V566.038H445.951V562.445H453.828V563.447H447.187V565.049H453.945ZM453.854 568.799V571.624H447.057V572.666H454.18V573.643H445.846V570.713H452.63V569.749H445.833V568.799H453.854ZM465.781 562.106V573.773H464.531V562.106H465.781ZM462.305 563.356C462.305 566.768 460.846 569.736 456.849 571.65L456.198 570.648C459.303 569.17 460.814 567.067 461.055 564.346H456.758V563.356H462.305Z" fill="#292C32"/>
<circle cx="376.666" cy="625.999" r="14.1667" fill="#FF6B6B" stroke="#4C82F7" stroke-width="1.66667"/>
<circle cx="419.999" cy="625.999" r="13.3333" fill="#FFA94D"/>
<circle cx="463.333" cy="625.999" r="13.3333" fill="#FFE17A"/>
<circle cx="506.666" cy="625.999" r="13.3333" fill="#5EDC8D"/>
<circle cx="549.999" cy="625.999" r="13.3333" fill="#3774F8"/>
<circle cx="593.333" cy="625.999" r="13.3333" fill="#9E80FF"/>
<circle cx="636.666" cy="625.999" r="13.3333" fill="#FF72B6"/>
<path d="M370.833 625.141L375.4 630.583L382.5 621.416" stroke="white" stroke-width="1.66667" stroke-linecap="round" stroke-linejoin="round"/>
<path d="M371.308 679.167V688.803H364.342V679.167H371.308ZM366.116 680.583V687.354H369.502V680.583H366.116ZM375.345 677.735V683.383H377.607V684.913H375.345V692.449H373.538V677.735H375.345ZM389.83 677.735V681.088H391.881V682.569H389.83V686.003H388.024V677.735H389.83ZM385.745 678.63C385.729 682.455 383.222 685.108 378.828 686.28L378.112 684.831C381.521 683.952 383.458 682.219 383.776 680.095H378.812V678.63H385.745ZM389.83 686.589V692.253H380.309V686.589H389.83ZM382.116 688.07V690.821H388.04V688.07H382.116ZM408.873 677.735V692.449H407.05V677.735H408.873ZM404.479 679.298C404.479 683.676 402.786 687.403 397.627 689.844L396.683 688.396C400.532 686.565 402.322 684.075 402.64 680.73H397.431V679.298H404.479ZM422.594 677.751V682.374H424.645V683.871H422.594V688.738H420.787V677.751H422.594ZM419.729 679.379V680.827H411.006V679.379H414.472V677.735H416.279V679.379H419.729ZM415.368 681.43C417.483 681.43 418.948 682.553 418.965 684.245C418.948 685.922 417.483 687.029 415.368 687.029C413.235 687.029 411.754 685.922 411.754 684.245C411.754 682.553 413.235 681.43 415.368 681.43ZM415.368 682.829C414.244 682.829 413.512 683.35 413.512 684.245C413.512 685.124 414.244 685.645 415.368 685.629C416.491 685.645 417.239 685.124 417.239 684.245C417.239 683.35 416.491 682.829 415.368 682.829ZM423.18 690.691V692.156H413.17V687.875H414.977V690.691H423.18Z" fill="#667077"/>
<path d="M731.96 284.252C729.335 284.254 726.768 283.477 724.585 282.018C722.403 280.559 720.702 278.485 719.701 276.058C718.699 273.631 718.441 270.962 718.959 268.388C719.477 265.814 720.748 263.452 722.61 261.602C722.961 261.254 723.378 260.979 723.835 260.792C724.293 260.605 724.783 260.509 725.278 260.512C725.772 260.514 726.261 260.614 726.717 260.805C727.173 260.997 727.587 261.276 727.935 261.627C728.283 261.978 728.558 262.395 728.746 262.853C728.933 263.31 729.028 263.8 729.025 264.295C729.023 264.789 728.923 265.278 728.732 265.734C728.541 266.19 728.261 266.604 727.91 266.952C727.371 267.479 726.942 268.11 726.65 268.805C726.358 269.501 726.209 270.248 726.21 271.002C726.144 272.19 726.45 273.368 727.087 274.373C727.724 275.377 728.659 276.157 729.761 276.604C730.864 277.05 732.078 277.141 733.235 276.863C734.391 276.584 735.431 275.951 736.21 275.052C736.922 274.347 737.883 273.951 738.885 273.951C739.887 273.951 740.848 274.347 741.56 275.052C742.253 275.77 742.641 276.729 742.641 277.727C742.641 278.725 742.253 279.684 741.56 280.402C740.296 281.65 738.796 282.634 737.148 283.295C735.5 283.956 733.736 284.281 731.96 284.252Z" fill="#515660"/>
<path d="M783.209 271C783.209 284.592 777.809 297.628 768.198 307.239C758.587 316.85 745.551 322.25 731.959 322.25C718.367 322.25 705.331 316.85 695.72 307.239C686.109 297.628 680.709 284.592 680.709 271C680.709 257.408 686.109 244.372 695.72 234.761C705.331 225.15 718.367 219.75 731.959 219.75C732.954 219.75 733.907 220.145 734.611 220.848C735.314 221.552 735.709 222.505 735.709 223.5V242.5C735.696 243.491 735.297 244.437 734.596 245.137C733.896 245.838 732.95 246.237 731.959 246.25C727.062 246.216 722.269 247.663 718.209 250.4C714.126 253.106 710.941 256.968 709.062 261.492C707.183 266.016 706.695 270.997 707.659 275.8C709.227 281.498 712.764 286.456 717.64 289.794C722.517 293.133 728.418 294.636 734.298 294.036C740.177 293.437 745.654 290.774 749.757 286.52C753.859 282.267 756.323 276.697 756.709 270.8C756.702 270.306 756.795 269.815 756.981 269.357C757.167 268.899 757.443 268.483 757.792 268.133C758.142 267.784 758.558 267.508 759.016 267.322C759.474 267.136 759.965 267.043 760.459 267.05H779.459C779.969 267.049 780.473 267.152 780.942 267.353C781.41 267.554 781.833 267.848 782.184 268.218C782.535 268.588 782.807 269.025 782.983 269.503C783.159 269.982 783.236 270.491 783.209 271Z" fill="#515660"/>
<path d="M781.411 241.648C781.281 242.621 780.883 243.539 780.261 244.298L769.411 255.148C767.868 256.698 765.959 257.833 763.861 258.448C762.63 258.826 761.349 259.012 760.061 258.998C759.18 259.077 758.293 259.077 757.411 258.998L750.761 257.698L739.361 269.148C738.644 269.83 737.7 270.222 736.711 270.248C735.717 270.248 734.764 269.852 734.061 269.148C733.707 268.804 733.426 268.392 733.234 267.937C733.042 267.481 732.943 266.992 732.943 266.498C732.943 266.004 733.042 265.516 733.234 265.06C733.426 264.605 733.707 264.193 734.061 263.848L745.511 252.348L744.161 245.748C743.758 243.621 743.861 241.429 744.461 239.348C745.077 237.25 746.212 235.341 747.761 233.798L758.511 223.048C759.25 222.377 760.173 221.941 761.161 221.798C762.086 221.664 763.03 221.822 763.861 222.248C764.686 222.668 765.379 223.309 765.861 224.098C766.349 224.982 766.559 225.993 766.461 226.998L764.861 238.298L776.111 236.748C777.053 236.656 778.001 236.85 778.83 237.305C779.66 237.76 780.333 238.455 780.761 239.298C781.168 240.016 781.392 240.823 781.411 241.648Z" fill="#515660"/>
<g filter="url(#filter0_d_1326_71344)">
<g clip-path="url(#clip1_1326_71344)">
<rect x="80" y="70" width="530" height="375.417" rx="22.0833" fill="white"/>
<rect x="80" y="70" width="13.25" height="441.667" fill="#FF6B6B"/>
<path d="M122.083 157.25H116.778V141.636H122.169C126.828 141.636 129.653 144.569 129.653 149.422C129.653 154.295 126.828 157.25 122.083 157.25ZM119.581 154.813H121.932C125.189 154.813 126.849 153.023 126.849 149.422C126.849 145.842 125.189 144.073 122.018 144.073H119.581V154.813ZM139.098 148.322V150.586H132.068V148.322H139.098ZM147.315 157.466C144.188 157.466 141.902 155.611 141.816 153.023H144.555C144.641 154.295 145.827 155.201 147.315 155.201C149.062 155.201 150.313 153.929 150.313 152.204C150.313 150.414 149.019 149.141 147.229 149.141C146.021 149.12 145.137 149.551 144.641 150.478H142.031L142.98 141.636H152.21V143.987H145.288L144.813 148.128H144.964C145.568 147.438 146.711 146.942 147.984 146.942C150.895 146.942 153.03 149.12 153.03 152.117C153.03 155.244 150.679 157.466 147.315 157.466Z" fill="#292C32"/>
<path d="M162.459 151.488C162.476 148.245 163.391 145.536 165.012 143.224H166.703C165.513 144.932 164.374 148.417 164.374 151.488C164.374 154.576 165.513 158.044 166.703 159.77H165.012C163.391 157.458 162.476 154.749 162.459 151.488ZM168.808 156.25L174.381 145.484V145.381H167.945V143.759H176.347V145.45L170.792 156.25H168.808ZM183.041 143.173L179.021 158.131H177.382L181.402 143.173H183.041ZM189.132 143.759V156.25H187.216V145.657H187.147L184.163 147.606V145.795L187.268 143.759H189.132ZM192.03 153.817V152.282L197.551 143.759H199.897V152.213H201.605V153.817H199.897V156.25H198.103V153.817H192.03ZM194.031 152.213H198.103V146.019H197.965L194.031 152.109V152.213ZM215.114 143.794V153.835H207.885V143.794H215.114ZM209.49 145.088V152.506H213.492V145.088H209.49ZM219.341 142.258V148.314H221.825V149.694H219.341V157.716H217.702V142.258H219.341ZM234.713 142.258V145.898H236.956V147.261H234.713V150.988H233.074V142.258H234.713ZM230.451 143.224C230.434 147.192 227.76 149.97 223.154 151.212L222.498 149.901C226.19 148.926 228.373 146.985 228.674 144.57H223.223V143.224H230.451ZM234.713 151.644V157.509H224.81V151.644H234.713ZM226.449 153.007V156.198H233.091V153.007H226.449ZM242.08 151.488C242.062 154.749 241.148 157.458 239.526 159.77H237.836C239.026 158.044 240.165 154.576 240.165 151.488C240.165 148.417 239.026 144.932 237.836 143.224H239.526C241.148 145.536 242.062 148.245 242.08 151.488Z" fill="#667077"/>
<path d="M121.182 184.009V196.5H119.267V185.907H119.198L116.213 187.856V186.045L119.318 184.009H121.182ZM124.356 196.5V195.12L128.687 190.755C130.049 189.323 130.74 188.529 130.74 187.442C130.74 186.217 129.739 185.424 128.428 185.424C127.048 185.424 126.15 186.304 126.15 187.632H124.356C124.339 185.355 126.081 183.837 128.462 183.837C130.878 183.837 132.534 185.355 132.551 187.391C132.534 188.788 131.878 189.892 129.532 192.204L126.996 194.775V194.878H132.758V196.5H124.356ZM139.642 183.423L135.622 198.381H133.983L138.003 183.423H139.642ZM140.988 196.5V195.12L145.318 190.755C146.681 189.323 147.371 188.529 147.371 187.442C147.371 186.217 146.37 185.424 145.059 185.424C143.679 185.424 142.782 186.304 142.782 187.632H140.988C140.97 185.355 142.713 183.837 145.094 183.837C147.509 183.837 149.165 185.355 149.183 187.391C149.165 188.788 148.51 189.892 146.163 192.204L143.627 194.775V194.878H149.39V196.5H140.988ZM155.842 196.673C152.944 196.673 151.253 194.343 151.253 190.255C151.253 186.2 152.978 183.837 155.842 183.837C158.706 183.837 160.431 186.2 160.431 190.255C160.431 194.343 158.723 196.673 155.842 196.673ZM155.842 195.034C157.533 195.034 158.534 193.377 158.534 190.255C158.534 187.149 157.516 185.441 155.842 185.441C154.169 185.441 153.151 187.149 153.151 190.255C153.151 193.377 154.151 195.034 155.842 195.034ZM170.869 183.198C173.129 183.198 174.716 184.44 174.734 186.286C174.716 187.856 173.526 189.012 171.732 189.288V190.651C173.103 190.582 174.475 190.462 175.752 190.272L175.872 191.479C172.629 192.066 168.989 192.118 166.332 192.118L166.159 190.789C167.315 190.798 168.669 190.789 170.093 190.738V189.306C168.247 189.047 167.005 187.882 167.022 186.286C167.005 184.44 168.609 183.198 170.869 183.198ZM170.869 184.458C169.506 184.458 168.54 185.165 168.557 186.286C168.54 187.373 169.506 188.098 170.869 188.098C172.249 188.098 173.181 187.373 173.181 186.286C173.181 185.165 172.249 184.458 170.869 184.458ZM178.34 182.525V187.632H180.548V189.012H178.34V194.343H176.701V182.525H178.34ZM178.892 196.293V197.639H168.35V193.308H169.989V196.293H178.892ZM195.592 194.74V196.12H181.445V194.74H185.31V192.014H183.17V187.097H192.245V184.941H183.136V183.595H193.867V188.426H184.792V190.669H194.229V192.014H191.883V194.74H195.592ZM186.897 194.74H190.278V192.014H186.897V194.74ZM201.958 191.738C201.976 188.495 202.89 185.786 204.512 183.474H206.202C205.012 185.182 203.873 188.667 203.873 191.738C203.873 194.826 205.012 198.294 206.202 200.02H204.512C202.89 197.708 201.976 194.999 201.958 191.738ZM212.396 196.673C210.084 196.655 207.669 195.292 207.669 190.669C207.669 186.321 209.549 183.837 212.551 183.837C214.846 183.837 216.451 185.269 216.744 187.253H214.863C214.622 186.235 213.811 185.493 212.551 185.493C210.619 185.493 209.498 187.184 209.498 189.996H209.636C210.309 188.943 211.482 188.305 212.845 188.305C215.07 188.305 216.865 190.013 216.865 192.411C216.865 194.826 215.088 196.69 212.396 196.673ZM212.379 195.085C213.897 195.085 215.019 193.912 215.019 192.446C215.019 191.014 213.932 189.858 212.431 189.858C210.895 189.858 209.739 191.065 209.722 192.463C209.739 193.843 210.843 195.085 212.379 195.085ZM223.231 196.673C220.332 196.673 218.642 194.343 218.642 190.255C218.642 186.2 220.367 183.837 223.231 183.837C226.095 183.837 227.82 186.2 227.82 190.255C227.82 194.343 226.112 196.673 223.231 196.673ZM223.231 195.034C224.922 195.034 225.922 193.377 225.922 190.255C225.922 187.149 224.904 185.441 223.231 185.441C221.557 185.441 220.539 187.149 220.539 190.255C220.539 193.377 221.54 195.034 223.231 195.034ZM232.651 189.944C230.943 189.961 230.011 188.685 230.028 186.839C230.011 185.01 230.977 183.75 232.651 183.75C234.359 183.75 235.273 185.01 235.273 186.839C235.273 188.702 234.324 189.961 232.651 189.944ZM232.651 188.736C233.462 188.736 233.841 187.977 233.841 186.839C233.841 185.717 233.479 184.958 232.651 184.958C231.857 184.975 231.443 185.717 231.443 186.839C231.443 187.977 231.84 188.736 232.651 188.736ZM240.535 196.759C238.827 196.759 237.896 195.499 237.913 193.653C237.896 191.807 238.879 190.548 240.535 190.548C242.243 190.548 243.158 191.807 243.158 193.653C243.158 195.499 242.209 196.759 240.535 196.759ZM240.535 195.534C241.346 195.534 241.726 194.775 241.726 193.653C241.726 192.515 241.363 191.756 240.535 191.756C239.742 191.773 239.327 192.532 239.327 193.653C239.327 194.775 239.742 195.534 240.535 195.534ZM231.443 196.5L240.018 184.009H241.588L233.013 196.5H231.443ZM249.299 191.738C249.282 194.999 248.368 197.708 246.746 200.02H245.055C246.246 198.294 247.384 194.826 247.384 191.738C247.384 188.667 246.246 185.182 245.055 183.474H246.746C248.368 185.786 249.282 188.495 249.299 191.738Z" fill="#A3ABB0"/>
<rect x="115.333" y="212.334" width="472.583" height="8.83333" rx="4.41667" fill="#E4E8F0"/>
<rect x="115.333" y="212.334" width="283.55" height="8.83333" rx="4.41667" fill="#FF6B6B"/>
<rect x="116.437" y="309.604" width="24.2917" height="24.2917" rx="3.3125" fill="white" stroke="#E4E8F0" stroke-width="2.20833"/>
<path d="M122.812 323.037L127.229 327.453L133.854 315.979" stroke="#E4E8F0" stroke-width="2.20833" stroke-linecap="round" stroke-linejoin="round"/>
<path d="M156.618 319.063C156.618 321.513 158.223 324.239 160.569 325.343L159.637 326.619C157.903 325.783 156.532 324.04 155.842 322.013C155.126 324.23 153.677 326.136 151.908 327.016L150.942 325.722C153.288 324.601 154.996 321.685 154.996 319.063V317.424H151.511V316.061H159.982V317.424H156.618V319.063ZM163.278 314.508V320.633H165.762V322.013H163.278V329.966H161.639V314.508H163.278ZM178.546 314.508V320.495H181.031V321.875H178.546V329.966H176.907V314.508H178.546ZM168.712 315.802V319.77H172.801V315.802H174.423V326.292H167.09V315.802H168.712ZM168.712 324.946H172.801V321.064H168.712V324.946ZM189.622 316.699C189.622 319.218 192.314 321.599 195.281 322.134L194.522 323.497C192.055 322.962 189.778 321.34 188.777 319.166C187.759 321.323 185.49 322.945 183.015 323.497L182.29 322.134C185.223 321.582 187.897 319.218 187.897 316.699V315.526H189.622V316.699ZM195.92 326.568V327.931H181.772V326.568H195.92ZM209.48 316.009V317.89C209.48 320.15 209.48 322.272 208.807 325.481L207.186 325.326C207.513 323.911 207.686 322.669 207.772 321.513L198.49 322.013L198.283 320.667L207.858 320.305C207.884 319.477 207.884 318.683 207.893 317.89V317.355H198.715V316.009H209.48ZM211.136 326.55V327.896H197.041V326.55H211.136ZM225.128 314.525V323.048H223.489V314.525H225.128ZM220.194 315.25V319.563H214.725V321.392C217.425 321.375 219.418 321.306 221.764 320.926L221.971 322.255C219.452 322.669 217.33 322.738 214.414 322.755H213.12V318.286H218.572V316.578H213.086V315.25H220.194ZM216.623 323.773V325.446H223.507V323.773H225.128V329.777H214.984V323.773H216.623ZM216.623 328.448H223.507V326.74H216.623V328.448ZM240.121 322.738V324.049H229.355V315.785H239.965V317.113H231.011V319.201H239.638V320.495H231.011V322.738H240.121ZM241.725 326.671V328.017H227.578V326.671H241.725ZM260.013 314.508V329.966H258.357V314.508H260.013ZM255.407 316.164C255.407 320.685 253.474 324.618 248.178 327.154L247.315 325.826C251.43 323.868 253.431 321.081 253.75 317.476H248.057V316.164H255.407ZM276.576 326.723V328.069H262.428V326.723H268.674V323.359H270.296V326.723H276.576ZM275.264 316.854V318.183H270.313C270.382 320.348 272.676 322.142 275.851 322.617L275.23 323.894C272.651 323.488 270.494 322.263 269.485 320.46C268.475 322.263 266.327 323.488 263.74 323.894L263.118 322.617C266.293 322.142 268.57 320.348 268.657 318.183H263.705V316.854H268.674V314.784H270.296V316.854H275.264ZM289.342 316.32V317.648H286.686C286.737 319.27 287.867 320.874 289.757 321.564L289.015 322.789C287.548 322.237 286.504 321.194 285.944 319.908C285.4 321.314 284.356 322.487 282.855 323.083L282.079 321.858C283.977 321.081 285.09 319.391 285.133 317.648H282.441V316.32H285.133V314.629H286.686V316.32H289.342ZM295.191 314.525V323.152H293.638V319.442H291.879V323.065H290.309V314.784H291.879V318.079H293.638V314.525H295.191ZM286.496 323.773V325.429H293.587V323.773H295.191V329.777H284.874V323.773H286.496ZM286.496 328.448H293.587V326.688H286.496V328.448ZM310.166 314.508V330.001H308.545V321.564H305.474V320.219H308.545V314.508H310.166ZM305.215 315.888V317.217H299.642V320.219H304.559V321.53H299.642V324.98C302.23 324.972 304.024 324.911 306.077 324.549L306.25 325.878C304.007 326.24 302.058 326.326 299.194 326.343H297.986V315.888H305.215ZM317.378 315.837C319.673 315.854 322.088 317.234 322.088 321.806C322.088 326.188 320.207 328.673 317.205 328.673C314.911 328.673 313.289 327.258 312.996 325.222H314.876C315.135 326.274 315.946 327.016 317.205 327.016C319.138 327.016 320.259 325.326 320.276 322.479H320.121C319.448 323.531 318.275 324.17 316.929 324.17C314.687 324.17 312.892 322.462 312.892 320.063C312.892 317.683 314.669 315.819 317.378 315.837ZM317.378 317.424C315.86 317.424 314.738 318.597 314.738 320.029C314.738 321.478 315.825 322.617 317.343 322.617C318.844 322.617 320.018 321.392 320.018 320.012C320.018 318.666 318.913 317.424 317.378 317.424ZM341.98 321.668V323.031H327.868V321.668H341.98ZM340.376 318.873V320.201H329.679V314.957H340.186V316.32H331.301V318.873H340.376ZM340.427 328.414V329.759H329.627V324.515H340.289V325.843H331.249V328.414H340.427ZM355.989 314.508V329.966H354.333V314.508H355.989ZM351.383 316.164C351.383 320.685 349.451 324.618 344.154 327.154L343.291 325.826C347.406 323.868 349.407 321.081 349.727 317.476H344.033V316.164H351.383Z" fill="#485057"/>
<rect x="116.437" y="354.27" width="24.2917" height="24.2917" rx="3.3125" fill="white" stroke="#E4E8F0" stroke-width="2.20833"/>
<path d="M122.812 367.703L127.229 372.119L133.854 360.645" stroke="#E4E8F0" stroke-width="2.20833" stroke-linecap="round" stroke-linejoin="round"/>
<path d="M156.618 363.729C156.618 366.179 158.223 368.905 160.569 370.009L159.637 371.285C157.903 370.449 156.532 368.706 155.842 366.679C155.126 368.896 153.677 370.802 151.908 371.682L150.942 370.388C153.288 369.267 154.996 366.351 154.996 363.729V362.09H151.511V360.727H159.982V362.09H156.618V363.729ZM163.278 359.174V365.299H165.762V366.679H163.278V374.632H161.639V359.174H163.278ZM178.546 359.174V365.161H181.031V366.541H178.546V374.632H176.907V359.174H178.546ZM168.712 360.468V364.436H172.801V360.468H174.423V370.958H167.09V360.468H168.712ZM168.712 369.612H172.801V365.73H168.712V369.612ZM189.622 361.365C189.622 363.884 192.314 366.265 195.281 366.8L194.522 368.163C192.055 367.628 189.778 366.006 188.777 363.832C187.759 365.989 185.49 367.611 183.015 368.163L182.29 366.8C185.223 366.248 187.897 363.884 187.897 361.365V360.192H189.622V361.365ZM195.92 371.234V372.597H181.772V371.234H195.92ZM209.48 360.675V362.556C209.48 364.816 209.48 366.938 208.807 370.147L207.186 369.992C207.513 368.577 207.686 367.335 207.772 366.179L198.49 366.679L198.283 365.333L207.858 364.971C207.884 364.143 207.884 363.349 207.893 362.556V362.021H198.715V360.675H209.48ZM211.136 371.216V372.562H197.041V371.216H211.136ZM225.128 359.191V367.714H223.489V359.191H225.128ZM220.194 359.916V364.229H214.725V366.058C217.425 366.041 219.418 365.972 221.764 365.592L221.971 366.921C219.452 367.335 217.33 367.404 214.414 367.421H213.12V362.952H218.572V361.244H213.086V359.916H220.194ZM216.623 368.439V370.112H223.507V368.439H225.128V374.443H214.984V368.439H216.623ZM216.623 373.114H223.507V371.406H216.623V373.114ZM240.121 367.404V368.715H229.355V360.451H239.965V361.779H231.011V363.867H239.638V365.161H231.011V367.404H240.121ZM241.725 371.337V372.683H227.578V371.337H241.725ZM260.013 359.174V374.632H258.357V359.174H260.013ZM255.407 360.83C255.407 365.351 253.474 369.284 248.178 371.82L247.315 370.492C251.43 368.534 253.431 365.747 253.75 362.142H248.057V360.83H255.407ZM276.576 371.389V372.735H262.428V371.389H268.674V368.025H270.296V371.389H276.576ZM275.264 361.521V362.849H270.313C270.382 365.014 272.676 366.808 275.851 367.283L275.23 368.56C272.651 368.154 270.494 366.929 269.485 365.126C268.475 366.929 266.327 368.154 263.74 368.56L263.118 367.283C266.293 366.808 268.57 365.014 268.657 362.849H263.705V361.521H268.674V359.45H270.296V361.521H275.264ZM289.342 360.986V362.314H286.686C286.737 363.936 287.867 365.54 289.757 366.23L289.015 367.455C287.548 366.903 286.504 365.86 285.944 364.574C285.4 365.98 284.356 367.153 282.855 367.749L282.079 366.524C283.977 365.747 285.09 364.057 285.133 362.314H282.441V360.986H285.133V359.295H286.686V360.986H289.342ZM295.191 359.191V367.818H293.638V364.108H291.879V367.731H290.309V359.45H291.879V362.745H293.638V359.191H295.191ZM286.496 368.439V370.095H293.587V368.439H295.191V374.443H284.874V368.439H286.496ZM286.496 373.114H293.587V371.354H286.496V373.114ZM310.166 359.174V374.667H308.545V366.23H305.474V364.885H308.545V359.174H310.166ZM305.215 360.554V361.883H299.642V364.885H304.559V366.196H299.642V369.646C302.23 369.638 304.024 369.577 306.077 369.215L306.25 370.544C304.007 370.906 302.058 370.992 299.194 371.009H297.986V360.554H305.215ZM317.826 360.675V373.166H315.911V362.573H315.842L312.858 364.522V362.711L315.963 360.675H317.826ZM325.349 373.339C322.45 373.339 320.759 371.009 320.759 366.921C320.759 362.866 322.485 360.503 325.349 360.503C328.213 360.503 329.938 362.866 329.938 366.921C329.938 371.009 328.23 373.339 325.349 373.339ZM325.349 371.7C327.039 371.7 328.04 370.043 328.04 366.921C328.04 363.815 327.022 362.107 325.349 362.107C323.675 362.107 322.657 363.815 322.657 366.921C322.657 370.043 323.658 371.7 325.349 371.7ZM349.796 366.334V367.697H335.683V366.334H349.796ZM348.191 363.539V364.868H337.494V359.623H348.001V360.986H339.116V363.539H348.191ZM348.243 373.08V374.425H337.443V369.181H348.105V370.509H339.064V373.08H348.243ZM363.805 359.174V374.632H362.148V359.174H363.805ZM359.198 360.83C359.198 365.351 357.266 369.284 351.969 371.82L351.107 370.492C355.222 368.534 357.223 365.747 357.542 362.142H351.849V360.83H359.198Z" fill="#485057"/>
<rect x="116.437" y="398.938" width="24.2917" height="24.2917" rx="3.3125" fill="white" stroke="#E4E8F0" stroke-width="2.20833"/>
<path d="M122.812 412.371L127.229 416.787L133.854 405.312" stroke="#E4E8F0" stroke-width="2.20833" stroke-linecap="round" stroke-linejoin="round"/>
<path d="M156.618 408.397C156.618 410.847 158.223 413.573 160.569 414.677L159.637 415.953C157.903 415.117 156.532 413.374 155.842 411.347C155.126 413.564 153.677 415.47 151.908 416.35L150.942 415.056C153.288 413.935 154.996 411.019 154.996 408.397V406.758H151.511V405.395H159.982V406.758H156.618V408.397ZM163.278 403.842V409.967H165.762V411.347H163.278V419.3H161.639V403.842H163.278ZM178.546 403.842V409.829H181.031V411.209H178.546V419.3H176.907V403.842H178.546ZM168.712 405.136V409.104H172.801V405.136H174.423V415.626H167.09V405.136H168.712ZM168.712 414.28H172.801V410.398H168.712V414.28ZM189.622 406.033C189.622 408.552 192.314 410.933 195.281 411.468L194.522 412.831C192.055 412.296 189.778 410.674 188.777 408.5C187.759 410.657 185.49 412.279 183.015 412.831L182.29 411.468C185.223 410.916 187.897 408.552 187.897 406.033V404.86H189.622V406.033ZM195.92 415.902V417.265H181.772V415.902H195.92ZM209.48 405.343V407.224C209.48 409.484 209.48 411.606 208.807 414.815L207.186 414.66C207.513 413.245 207.686 412.003 207.772 410.847L198.49 411.347L198.283 410.001L207.858 409.639C207.884 408.811 207.884 408.017 207.893 407.224V406.689H198.715V405.343H209.48ZM211.136 415.884V417.23H197.041V415.884H211.136ZM225.128 403.859V412.382H223.489V403.859H225.128ZM220.194 404.584V408.897H214.725V410.726C217.425 410.709 219.418 410.64 221.764 410.26L221.971 411.589C219.452 412.003 217.33 412.072 214.414 412.089H213.12V407.62H218.572V405.912H213.086V404.584H220.194ZM216.623 413.107V414.78H223.507V413.107H225.128V419.111H214.984V413.107H216.623ZM216.623 417.782H223.507V416.074H216.623V417.782ZM240.121 412.072V413.383H229.355V405.119H239.965V406.447H231.011V408.535H239.638V409.829H231.011V412.072H240.121ZM241.725 416.005V417.351H227.578V416.005H241.725ZM260.013 403.842V419.3H258.357V403.842H260.013ZM255.407 405.498C255.407 410.019 253.474 413.952 248.178 416.488L247.315 415.16C251.43 413.202 253.431 410.415 253.75 406.81H248.057V405.498H255.407ZM276.576 416.057V417.403H262.428V416.057H268.674V412.693H270.296V416.057H276.576ZM275.264 406.188V407.517H270.313C270.382 409.682 272.676 411.476 275.851 411.951L275.23 413.228C272.651 412.822 270.494 411.597 269.485 409.794C268.475 411.597 266.327 412.822 263.74 413.228L263.118 411.951C266.293 411.476 268.57 409.682 268.657 407.517H263.705V406.188H268.674V404.118H270.296V406.188H275.264ZM289.342 405.654V406.982H286.686C286.737 408.604 287.867 410.208 289.757 410.898L289.015 412.123C287.548 411.571 286.504 410.528 285.944 409.242C285.4 410.648 284.356 411.821 282.855 412.417L282.079 411.192C283.977 410.415 285.09 408.725 285.133 406.982H282.441V405.654H285.133V403.963H286.686V405.654H289.342ZM295.191 403.859V412.486H293.638V408.776H291.879V412.399H290.309V404.118H291.879V407.413H293.638V403.859H295.191ZM286.496 413.107V414.763H293.587V413.107H295.191V419.111H284.874V413.107H286.496ZM286.496 417.782H293.587V416.022H286.496V417.782ZM310.166 403.842V419.335H308.545V410.898H305.474V409.553H308.545V403.842H310.166ZM305.215 405.222V406.551H299.642V409.553H304.559V410.864H299.642V414.314C302.23 414.306 304.024 414.245 306.077 413.883L306.25 415.212C304.007 415.574 302.058 415.66 299.194 415.677H297.986V405.222H305.215ZM317.826 405.343V417.834H315.911V407.241H315.842L312.858 409.19V407.379L315.963 405.343H317.826ZM325.745 405.343V417.834H323.83V407.241H323.761L320.777 409.19V407.379L323.882 405.343H325.745ZM346.811 411.002V412.365H332.698V411.002H346.811ZM345.206 408.207V409.535H334.51V404.291H345.017V405.654H336.131V408.207H345.206ZM345.258 417.748V419.093H334.458V413.849H345.12V415.177H336.08V417.748H345.258ZM360.82 403.842V419.3H359.164V403.842H360.82ZM356.214 405.498C356.214 410.019 354.281 413.952 348.985 416.488L348.122 415.16C352.237 413.202 354.238 410.415 354.557 406.81H348.864V405.498H356.214Z" fill="#485057"/>
<path d="M131.356 254.215V258.614H134.095V260.555H131.356V264.847H128.963V254.215H131.356ZM131.356 265.709V270.411H121.005V271.791H131.96V273.581H118.633V268.75H128.963V267.456H118.611V265.709H131.356ZM127.561 255.832V257.665H116.002V255.832H120.595V254.107H122.989V255.832H127.561ZM121.781 258.269C124.671 258.291 126.526 259.52 126.547 261.461C126.526 263.466 124.671 264.653 121.781 264.653C118.891 264.653 116.994 263.466 116.994 261.461C116.994 259.52 118.891 258.291 121.781 258.269ZM121.781 259.994C120.272 259.994 119.323 260.534 119.323 261.461C119.323 262.41 120.272 262.927 121.781 262.927C123.291 262.927 124.261 262.41 124.261 261.461C124.261 260.534 123.291 259.994 121.781 259.994ZM145.827 254.883C148.781 254.883 150.981 256.716 151.003 259.283C150.981 261.871 148.781 263.682 145.827 263.682C142.851 263.682 140.651 261.871 140.651 259.283C140.651 256.716 142.851 254.883 145.827 254.883ZM145.827 256.867C144.188 256.867 142.98 257.795 142.98 259.283C142.98 260.792 144.188 261.741 145.827 261.741C147.466 261.741 148.674 260.792 148.674 259.283C148.674 257.795 147.466 256.867 145.827 256.867ZM156.545 254.258V264.113H154.13V254.258H156.545ZM156.545 264.955V270.044H146V271.618H157.127V273.516H143.649V268.276H154.151V266.831H143.606V264.955H156.545ZM161.764 269.893C160.837 269.893 160.082 269.138 160.082 268.211C160.082 267.305 160.837 266.55 161.764 266.55C162.648 266.55 163.425 267.305 163.425 268.211C163.425 269.138 162.648 269.893 161.764 269.893ZM161.764 261.526C160.837 261.526 160.082 260.771 160.082 259.843C160.082 258.938 160.837 258.183 161.764 258.183C162.648 258.183 163.425 258.938 163.425 259.843C163.425 260.771 162.648 261.526 161.764 261.526ZM176.968 272.05C173.496 272.05 171.037 270.195 171.037 267.65C171.037 265.666 172.504 264.049 174.38 263.747V263.661C172.741 263.316 171.62 261.892 171.62 260.188C171.62 257.773 173.884 256.005 176.968 256.005C180.03 256.005 182.295 257.773 182.295 260.188C182.295 261.892 181.152 263.316 179.534 263.661V263.747C181.41 264.049 182.899 265.666 182.899 267.65C182.899 270.195 180.418 272.05 176.968 272.05ZM176.968 269.828C178.801 269.828 180.009 268.836 180.009 267.391C180.009 265.925 178.715 264.847 176.968 264.847C175.2 264.847 173.906 265.925 173.927 267.391C173.906 268.836 175.113 269.828 176.968 269.828ZM176.968 262.755C178.478 262.755 179.556 261.806 179.556 260.447C179.556 259.132 178.499 258.204 176.968 258.204C175.415 258.204 174.358 259.11 174.358 260.447C174.358 261.806 175.437 262.755 176.968 262.755ZM201.316 254.258V273.753H199.008V263.747H196.916V272.848H194.673V254.775H196.916V261.806H199.008V254.258H201.316ZM193.013 256.716C193.013 261.978 191.352 266.507 185.81 269.677L184.43 268.017C188.581 265.612 190.339 262.528 190.684 258.636H185.335V256.716H193.013Z" fill="#292C32"/>
<rect x="495.166" y="242.25" width="92.75" height="44.1667" rx="8.83333" fill="#515660"/>
<path d="M511.645 264.084H526.551" stroke="white" stroke-width="1.9875" stroke-linecap="round"/>
<path d="M519.098 271.537V256.631" stroke="white" stroke-width="1.9875" stroke-linecap="round"/>
<path d="M554.498 256.79V260.413H556.758V261.759H554.498V265.296H552.859V256.79H554.498ZM554.498 266.021V269.609H546.148V270.903H555.033V272.145H544.543V268.453H552.876V267.245H544.509V266.021H554.498ZM551.582 258.153V259.447H542.369V258.153H546.165V256.704H547.804V258.153H551.582ZM546.976 260.034C549.236 260.034 550.72 261 550.72 262.57C550.72 264.14 549.236 265.089 546.976 265.089C544.699 265.089 543.215 264.14 543.215 262.57C543.215 261 544.699 260.034 546.976 260.034ZM546.976 261.207C545.647 261.207 544.785 261.742 544.802 262.57C544.785 263.398 545.647 263.898 546.976 263.898C548.304 263.898 549.167 263.398 549.184 262.57C549.167 261.742 548.304 261.207 546.976 261.207ZM566.316 257.36C568.645 257.377 570.353 258.809 570.37 260.827C570.353 262.863 568.645 264.278 566.316 264.278C563.97 264.278 562.244 262.863 562.244 260.827C562.244 258.809 563.97 257.377 566.316 257.36ZM566.316 258.74C564.884 258.723 563.832 259.568 563.849 260.827C563.832 262.104 564.884 262.95 566.316 262.95C567.731 262.95 568.783 262.104 568.783 260.827C568.783 259.568 567.731 258.723 566.316 258.74ZM574.753 256.842V264.709H573.114V256.842H574.753ZM574.753 265.417V269.316H566.23V270.799H575.27V272.111H564.643V268.091H573.131V266.728H564.591V265.417H574.753Z" fill="white"/>
<line x1="585.708" y1="310.708" x2="585.708" y2="350.458" stroke="#E4E8F0" stroke-width="4.41667" stroke-linecap="round"/>
<path d="M128.574 108.26C127.994 108.261 127.428 108.089 126.946 107.767C126.464 107.445 126.088 106.987 125.867 106.451C125.646 105.915 125.589 105.325 125.703 104.757C125.817 104.189 126.098 103.667 126.509 103.258C126.587 103.182 126.679 103.121 126.78 103.079C126.881 103.038 126.989 103.017 127.098 103.018C127.208 103.018 127.316 103.04 127.416 103.082C127.517 103.125 127.608 103.186 127.685 103.264C127.762 103.341 127.823 103.433 127.864 103.535C127.906 103.636 127.927 103.744 127.926 103.853C127.926 103.962 127.904 104.07 127.861 104.171C127.819 104.272 127.757 104.363 127.68 104.44C127.561 104.556 127.466 104.695 127.402 104.849C127.337 105.003 127.304 105.168 127.304 105.334C127.29 105.596 127.357 105.857 127.498 106.079C127.639 106.3 127.845 106.473 128.089 106.571C128.332 106.67 128.6 106.69 128.856 106.628C129.111 106.567 129.341 106.427 129.513 106.229C129.67 106.073 129.882 105.985 130.103 105.985C130.325 105.985 130.537 106.073 130.694 106.229C130.847 106.387 130.933 106.599 130.933 106.819C130.933 107.04 130.847 107.252 130.694 107.41C130.415 107.686 130.084 107.903 129.72 108.049C129.356 108.195 128.966 108.267 128.574 108.26Z" fill="#FF6B6B"/>
<path d="M139.892 105.333C139.892 108.335 138.7 111.214 136.577 113.336C134.455 115.459 131.576 116.651 128.575 116.651C125.573 116.651 122.694 115.459 120.572 113.336C118.449 111.214 117.257 108.335 117.257 105.333C117.257 102.332 118.449 99.453 120.572 97.3305C122.694 95.208 125.573 94.0156 128.575 94.0156C128.794 94.0156 129.005 94.1029 129.16 94.2582C129.315 94.4135 129.403 94.6241 129.403 94.8438V99.0396C129.4 99.2583 129.312 99.4673 129.157 99.622C129.002 99.7767 128.793 99.8648 128.575 99.8677C127.493 99.8603 126.435 100.18 125.538 100.784C124.636 101.382 123.933 102.235 123.518 103.234C123.103 104.233 122.995 105.333 123.208 106.393C123.555 107.652 124.336 108.747 125.412 109.484C126.489 110.221 127.793 110.553 129.091 110.421C130.389 110.288 131.599 109.7 132.505 108.761C133.411 107.821 133.955 106.591 134.04 105.289C134.039 105.18 134.059 105.072 134.1 104.971C134.141 104.869 134.202 104.777 134.279 104.7C134.357 104.623 134.448 104.562 134.55 104.521C134.651 104.48 134.759 104.46 134.868 104.461H139.064C139.177 104.461 139.288 104.484 139.392 104.528C139.495 104.572 139.588 104.637 139.666 104.719C139.743 104.801 139.803 104.897 139.842 105.003C139.881 105.108 139.898 105.221 139.892 105.333Z" fill="#FF6B6B"/>
<path d="M139.494 98.8528C139.465 99.0676 139.378 99.2702 139.24 99.438L136.844 101.834C136.504 102.176 136.082 102.427 135.619 102.563C135.347 102.646 135.064 102.687 134.78 102.684C134.585 102.702 134.389 102.702 134.194 102.684L132.726 102.397L130.208 104.926C130.05 105.076 129.841 105.163 129.623 105.169C129.404 105.168 129.193 105.081 129.038 104.926C128.96 104.85 128.898 104.759 128.855 104.658C128.813 104.558 128.791 104.45 128.791 104.341C128.791 104.231 128.813 104.123 128.855 104.023C128.898 103.922 128.96 103.831 129.038 103.755L131.566 101.216L131.268 99.7582C131.179 99.2884 131.202 98.8043 131.335 98.3449C131.471 97.8816 131.721 97.46 132.063 97.1193L134.437 94.7453C134.6 94.5969 134.804 94.5008 135.022 94.4693C135.227 94.4397 135.435 94.4744 135.619 94.5686C135.801 94.6613 135.954 94.8027 136.06 94.9772C136.168 95.1724 136.214 95.3956 136.193 95.6176L135.84 98.113L138.324 97.7707C138.532 97.7503 138.741 97.7931 138.924 97.8936C139.108 97.9941 139.256 98.1475 139.351 98.3338C139.441 98.4923 139.49 98.6706 139.494 98.8528Z" fill="#FF6B6B"/>
<path d="M168.134 95.2579V107.27H165.827V95.2579H168.134ZM164.447 95.6029V107.248H162.182V106.429H159.077V104.79H162.182V95.6029H164.447ZM151.184 102.59C153.793 102.59 158.085 102.547 161.276 102.051L161.427 103.669C160.23 103.927 158.926 104.1 157.61 104.208V107.184H155.303V104.337C153.858 104.413 152.51 104.413 151.421 104.402L151.184 102.59ZM156.834 107.917V109.405H165.74V107.917H168.134V114.516H154.462V107.917H156.834ZM156.834 112.64H165.74V111.238H156.834V112.64ZM156.359 95.948C158.904 95.948 160.629 97.0479 160.629 98.8378C160.629 100.606 158.904 101.749 156.359 101.749C153.793 101.749 152.068 100.606 152.068 98.8378C152.068 97.0479 153.793 95.948 156.359 95.948ZM156.359 97.6086C155.044 97.6086 154.246 98.0399 154.246 98.8378C154.246 99.6573 155.044 100.067 156.359 100.067C157.632 100.067 158.473 99.6573 158.494 98.8378C158.473 98.0399 157.632 97.6086 156.359 97.6086ZM182.842 99.9377C182.842 103.561 184.567 107.119 187.673 108.478L186.228 110.397C184.017 109.319 182.465 107.248 181.634 104.704C180.783 107.389 179.198 109.621 176.955 110.764L175.445 108.823C178.615 107.335 180.384 103.582 180.405 99.9377V96.8322H182.842V99.9377ZM191.986 95.2579V114.775H189.614V103.496H185.516V101.555H189.614V95.2579H191.986ZM210.942 95.2579V114.775H208.527V95.2579H210.942ZM198.154 96.8538V101.728H202.877V96.8538H205.249V110.181H195.76V96.8538H198.154ZM198.154 108.219H202.877V103.604H198.154V108.219ZM223.882 97.932C223.882 100.951 226.836 103.97 230.912 104.682L229.834 106.688C226.567 105.998 223.893 104.024 222.631 101.404C221.337 104.003 218.663 105.987 215.406 106.688L214.35 104.682C218.382 103.949 221.315 100.93 221.337 97.932V96.4871H223.882V97.932ZM231.624 110.289V112.273H213.811V110.289H231.624ZM248.035 96.94V106.149H238.805V96.94H248.035ZM241.156 98.8594V104.251H245.685V98.8594H241.156ZM253.513 95.2579V100.973H256.23V102.978H253.513V109.491H251.119V95.2579H253.513ZM254.289 112.424V114.365H241.027V108.111H243.42V112.424H254.289ZM275.014 103.065V104.962H257.222V103.065H275.014ZM272.901 99.9161V101.814H259.487V95.7539H272.728V97.6733H261.881V99.9161H272.901ZM272.771 106.3V111.195H261.687V112.683H273.31V114.559H259.336V109.47H270.421V108.111H259.314V106.3H272.771ZM292.59 95.2579V114.753H290.175V95.2579H292.59ZM286.767 97.3282C286.767 103.129 284.525 108.068 277.688 111.303L276.437 109.383C281.538 106.957 283.91 103.658 284.331 99.226H277.43V97.3282H286.767Z" fill="#292C32"/>
</g>
</g>
</g>
<defs>
<filter id="filter0_d_1326_71344" x="52" y="58" width="586" height="431.416" filterUnits="userSpaceOnUse" color-interpolation-filters="sRGB">
<feFlood flood-opacity="0" result="BackgroundImageFix"/>
<feColorMatrix in="SourceAlpha" type="matrix" values="0 0 0 0 0 0 0 0 0 0 0 0 0 0 0 0 0 0 127 0" result="hardAlpha"/>
<feMorphology radius="4" operator="erode" in="SourceAlpha" result="effect1_dropShadow_1326_71344"/>
<feOffset dy="16"/>
<feGaussianBlur stdDeviation="16"/>
<feComposite in2="hardAlpha" operator="out"/>
<feColorMatrix type="matrix" values="0 0 0 0 0.764706 0 0 0 0 0.792157 0 0 0 0 0.839216 0 0 0 0.3 0"/>
<feBlend mode="normal" in2="BackgroundImageFix" result="effect1_dropShadow_1326_71344"/>
<feBlend mode="normal" in="SourceGraphic" in2="effect1_dropShadow_1326_71344" result="shape"/>
</filter>
<clipPath id="clip0_1326_71344">
<rect width="900" height="700" rx="20" fill="white"/>
</clipPath>
<clipPath id="clip1_1326_71344">
<rect x="80" y="70" width="530" height="375.417" rx="22.0833" fill="white"/>
</clipPath>
</defs>
</svg>
