<svg width="900" height="700" viewBox="0 0 900 700" fill="none" xmlns="http://www.w3.org/2000/svg">
<rect width="900" height="700" rx="20" fill="#F4F7FB"/>
<g filter="url(#filter0_d_1326_71322)">
<rect x="74" y="72" width="752" height="556" rx="20" fill="white"/>
<path d="M103.107 105.448C103.705 103.698 106.123 103.645 106.832 105.289L106.892 105.449L107.699 107.809C107.884 108.35 108.183 108.846 108.576 109.261C108.968 109.677 109.445 110.004 109.975 110.22L110.192 110.301L112.552 111.107C114.302 111.705 114.355 114.123 112.712 114.832L112.552 114.892L110.192 115.699C109.651 115.884 109.155 116.183 108.739 116.575C108.323 116.968 107.996 117.445 107.78 117.975L107.699 118.191L106.893 120.552C106.295 122.302 103.877 122.355 103.169 120.712L103.107 120.552L102.301 118.192C102.116 117.651 101.817 117.155 101.425 116.739C101.032 116.323 100.555 115.996 100.025 115.78L99.8091 115.699L97.4491 114.893C95.6981 114.295 95.6451 111.877 97.2891 111.169L97.4491 111.107L99.8091 110.301C100.35 110.116 100.846 109.817 101.262 109.425C101.677 109.032 102.004 108.555 102.22 108.025L102.301 107.809L103.107 105.448ZM113 102C113.187 102 113.371 102.052 113.529 102.151C113.688 102.25 113.816 102.392 113.898 102.56L113.946 102.677L114.296 103.703L115.323 104.053C115.511 104.117 115.675 104.235 115.795 104.392C115.916 104.549 115.987 104.738 115.999 104.936C116.012 105.134 115.966 105.331 115.866 105.502C115.767 105.673 115.619 105.811 115.441 105.898L115.323 105.946L114.297 106.296L113.947 107.323C113.883 107.51 113.765 107.675 113.608 107.795C113.451 107.915 113.261 107.986 113.064 107.999C112.866 108.011 112.669 107.965 112.498 107.865C112.327 107.766 112.189 107.618 112.102 107.44L112.054 107.323L111.704 106.297L110.677 105.947C110.49 105.883 110.325 105.765 110.205 105.608C110.084 105.451 110.013 105.262 110.001 105.064C109.988 104.866 110.034 104.669 110.134 104.498C110.233 104.327 110.381 104.189 110.559 104.102L110.677 104.054L111.703 103.704L112.053 102.677C112.121 102.479 112.248 102.308 112.418 102.186C112.588 102.065 112.791 102 113 102Z" fill="#515660"/>
<path d="M132.914 106.148C132.914 108.316 134.32 110.465 137.094 111.383L136 113.062C134.027 112.408 132.621 111.08 131.859 109.43C131.068 111.236 129.604 112.672 127.543 113.375L126.391 111.695C129.242 110.758 130.727 108.473 130.727 106.148V105.934H126.996V104.195H136.586V105.934H132.914V106.148ZM140.512 103.082V107.496H142.973V109.312H140.512V113.727H138.344V103.082H140.512ZM140.512 114.547V120.738H138.344V116.285H128.754V114.547H140.512ZM148.773 103.863C151.059 103.844 152.855 105.162 153.305 107.105H156.488V103.082H158.656V112.555H156.488V108.863H153.324C152.885 110.846 151.068 112.184 148.773 112.184C146.059 112.184 144.105 110.445 144.105 108.004C144.105 105.602 146.059 103.844 148.773 103.863ZM148.773 105.68C147.25 105.68 146.176 106.578 146.176 108.004C146.176 109.41 147.25 110.348 148.773 110.348C150.258 110.348 151.312 109.41 151.332 108.004C151.312 106.578 150.258 105.68 148.773 105.68ZM149.164 113.375V115.25H156.488V113.375H158.656V120.523H147.016V113.375H149.164ZM149.164 118.766H156.488V116.93H149.164V118.766ZM172.582 107.32C172.562 110.562 174.262 113.805 177.133 115.035L175.844 116.773C173.812 115.836 172.318 113.961 171.508 111.656C170.697 114.146 169.184 116.178 167.035 117.184L165.707 115.367C168.656 114.098 170.375 110.719 170.375 107.32V104.508H172.582V107.32ZM180.59 103.082V120.758H178.402V103.082H180.59ZM197.113 103.082V108.16H199.574V109.977H197.113V115.816H194.906V103.082H197.113ZM192.309 104.43C192.309 109.117 189.262 112.457 184.027 113.98L183.129 112.262C187.162 111.1 189.564 108.902 189.945 106.207H183.871V104.43H192.309ZM197.777 118.629V120.387H185.766V114.508H187.973V118.629H197.777ZM221.332 112.223V113.961H214.516V117.008H212.367V113.961H205.199V112.223H221.332ZM219.555 118.629V120.387H207.152V115.523H209.301V118.629H219.555ZM209.457 103.648V105.641H217.074V103.648H219.223V110.836H207.309V103.648H209.457ZM209.457 109.117H217.074V107.262H209.457V109.117ZM228.91 105.875C228.91 108.141 230.336 110.309 233.051 111.188L231.879 112.926C229.965 112.252 228.598 110.914 227.855 109.215C227.064 111.07 225.629 112.525 223.598 113.258L222.426 111.52C225.297 110.562 226.723 108.258 226.723 105.738V104H228.91V105.875ZM237.289 114.43V120.738H235.121V116.148H225.258V114.43H237.289ZM237.289 103.082V113.57H235.121V108.297H231.605V106.52H235.121V103.082H237.289Z" fill="#292C32"/>
<path d="M260 117C260.283 117 260.521 116.904 260.713 116.712C260.905 116.52 261.001 116.283 261 116V112C261 111.717 260.904 111.479 260.712 111.288C260.52 111.097 260.283 111.001 260 111C259.717 110.999 259.48 111.095 259.288 111.288C259.096 111.481 259 111.718 259 112V116C259 116.283 259.096 116.521 259.288 116.713C259.48 116.905 259.717 117.001 260 117ZM260 109C260.283 109 260.521 108.904 260.713 108.712C260.905 108.52 261.001 108.283 261 108C260.999 107.717 260.903 107.48 260.712 107.288C260.521 107.096 260.283 107 260 107C259.717 107 259.479 107.096 259.288 107.288C259.097 107.48 259.001 107.717 259 108C258.999 108.283 259.095 108.52 259.288 108.713C259.481 108.906 259.718 109.001 260 109ZM260 122C258.617 122 257.317 121.737 256.1 121.212C254.883 120.687 253.825 119.974 252.925 119.075C252.025 118.176 251.313 117.117 250.788 115.9C250.263 114.683 250.001 113.383 250 112C249.999 110.617 250.262 109.317 250.788 108.1C251.314 106.883 252.026 105.824 252.925 104.925C253.824 104.026 254.882 103.313 256.1 102.788C257.318 102.263 258.618 102 260 102C261.382 102 262.682 102.263 263.9 102.788C265.118 103.313 266.176 104.026 267.075 104.925C267.974 105.824 268.686 106.883 269.213 108.1C269.74 109.317 270.002 110.617 270 112C269.998 113.383 269.735 114.683 269.212 115.9C268.689 117.117 267.976 118.176 267.075 119.075C266.174 119.974 265.115 120.687 263.9 121.213C262.685 121.739 261.385 122.001 260 122ZM260 120C262.233 120 264.125 119.225 265.675 117.675C267.225 116.125 268 114.233 268 112C268 109.767 267.225 107.875 265.675 106.325C264.125 104.775 262.233 104 260 104C257.767 104 255.875 104.775 254.325 106.325C252.775 107.875 252 109.767 252 112C252 114.233 252.775 116.125 254.325 117.675C255.875 119.225 257.767 120 260 120Z" fill="#C3CAD6"/>
<rect x="486" y="92" width="320" height="40" rx="8" fill="#E4E8F0"/>
<rect x="490" y="96" width="156" height="32" rx="8" fill="white"/>
<path d="M554.637 103.16V120.699H552.781V103.16H554.637ZM545.281 104.469C547.879 104.469 549.793 106.852 549.793 110.602C549.793 114.371 547.879 116.754 545.281 116.754C542.645 116.754 540.75 114.371 540.75 110.602C540.75 106.852 542.645 104.469 545.281 104.469ZM545.281 106.129C543.66 106.129 542.547 107.848 542.547 110.602C542.547 113.375 543.66 115.094 545.281 115.094C546.883 115.094 547.996 113.375 547.996 110.602C547.996 107.848 546.883 106.129 545.281 106.129ZM572.02 103.18V116.109H570.164V109.508H566.336V113.199H558.27V104.332H560.125V107.301H564.5V104.332H566.336V108.004H570.164V103.18H572.02ZM572.41 118.785V120.289H560.594V114.84H562.469V118.785H572.41ZM560.125 111.695H564.5V108.727H560.125V111.695ZM595.555 113.023V114.527H588.445V120.641H586.629V114.527H579.598V113.023H595.555ZM594.051 104.195V105.68H588.641C588.67 107.848 591.365 109.781 594.676 110.23L593.992 111.695C591.121 111.246 588.641 109.83 587.586 107.828C586.502 109.83 584.031 111.246 581.199 111.695L580.496 110.23C583.768 109.781 586.463 107.848 586.531 105.68H581.082V104.195H594.051Z" fill="#485057"/>
<path d="M710.637 103.16V120.699H708.781V103.16H710.637ZM701.281 104.469C703.879 104.469 705.793 106.852 705.793 110.602C705.793 114.371 703.879 116.754 701.281 116.754C698.645 116.754 696.75 114.371 696.75 110.602C696.75 106.852 698.645 104.469 701.281 104.469ZM701.281 106.129C699.66 106.129 698.547 107.848 698.547 110.602C698.547 113.375 699.66 115.094 701.281 115.094C702.883 115.094 703.996 113.375 703.996 110.602C703.996 107.848 702.883 106.129 701.281 106.129ZM728.02 103.18V116.109H726.164V109.508H722.336V113.199H714.27V104.332H716.125V107.301H720.5V104.332H722.336V108.004H726.164V103.18H728.02ZM728.41 118.785V120.289H716.594V114.84H718.469V118.785H728.41ZM716.125 111.695H720.5V108.727H716.125V111.695ZM744.152 104.137V105.621H738.176V109.879C741.477 109.889 743.469 109.742 745.734 109.293L745.949 110.758C743.527 111.285 741.398 111.363 737.727 111.363H736.34V104.137H744.152ZM749.348 103.16V106.734H751.887V108.258H749.348V111.949H747.492V103.16H749.348ZM749.348 112.77V117.242H739.895V118.941H749.953V120.445H738.078V115.816H747.512V114.254H738.039V112.77H749.348Z" fill="#A3ABB0"/>
<path d="M210 157.125C210 159.453 210.953 161.797 212.859 162.812L211.984 163.984C210.664 163.242 209.766 161.914 209.281 160.328C208.758 162.062 207.797 163.547 206.438 164.344L205.5 163.266C207.5 162.094 208.562 159.609 208.562 157.219V154.609H210V157.125ZM217.734 153.328V167.328H216.312V160.109H214.625V166.641H213.203V153.594H214.625V158.906H216.312V153.328H217.734ZM221.672 154.156V156.359H225.172V154.156H226.641V155.516H229.703V153.328H231.188V161.656H229.703V159.578H226.641V160.906H220.188V154.156H221.672ZM221.672 159.703H225.172V157.531H221.672V159.703ZM231.188 162.359V167.328H229.703V163.547H221.703V162.359H231.188ZM226.641 158.375H229.703V156.719H226.641V158.375Z" fill="#A3ABB0"/>
<path d="M200.633 190.156C198.008 190.156 196.477 188.047 196.477 184.344C196.477 180.672 198.039 178.531 200.633 178.531C203.227 178.531 204.789 180.672 204.789 184.344C204.789 188.047 203.242 190.156 200.633 190.156ZM200.633 188.672C202.164 188.672 203.07 187.172 203.07 184.344C203.07 181.531 202.148 179.984 200.633 179.984C199.117 179.984 198.195 181.531 198.195 184.344C198.195 187.172 199.102 188.672 200.633 188.672ZM210.508 190.156C207.883 190.156 206.352 188.047 206.352 184.344C206.352 180.672 207.914 178.531 210.508 178.531C213.102 178.531 214.664 180.672 214.664 184.344C214.664 188.047 213.117 190.156 210.508 190.156ZM210.508 188.672C212.039 188.672 212.945 187.172 212.945 184.344C212.945 181.531 212.023 179.984 210.508 179.984C208.992 179.984 208.07 181.531 208.07 184.344C208.07 187.172 208.977 188.672 210.508 188.672ZM221.461 183.625V185.062H216.445V183.625H221.461ZM227.398 190.156C224.773 190.156 223.242 188.047 223.242 184.344C223.242 180.672 224.805 178.531 227.398 178.531C229.992 178.531 231.555 180.672 231.555 184.344C231.555 188.047 230.008 190.156 227.398 190.156ZM227.398 188.672C228.93 188.672 229.836 187.172 229.836 184.344C229.836 181.531 228.914 179.984 227.398 179.984C225.883 179.984 224.961 181.531 224.961 184.344C224.961 187.172 225.867 188.672 227.398 188.672ZM237.43 190.156C235.336 190.141 233.148 188.906 233.148 184.719C233.148 180.781 234.852 178.531 237.57 178.531C239.648 178.531 241.102 179.828 241.367 181.625H239.664C239.445 180.703 238.711 180.031 237.57 180.031C235.82 180.031 234.805 181.562 234.805 184.109H234.93C235.539 183.156 236.602 182.578 237.836 182.578C239.852 182.578 241.477 184.125 241.477 186.297C241.477 188.484 239.867 190.172 237.43 190.156ZM237.414 188.719C238.789 188.719 239.805 187.656 239.805 186.328C239.805 185.031 238.82 183.984 237.461 183.984C236.07 183.984 235.023 185.078 235.008 186.344C235.023 187.594 236.023 188.719 237.414 188.719Z" fill="#A3ABB0"/>
<path d="M376.062 154.172C379.062 154.188 381.234 155.656 381.234 157.891C381.234 159.992 379.414 161.375 376.797 161.594V164.344H382.5V165.578H369.688V164.344H375.328V161.594C372.727 161.375 370.906 159.992 370.906 157.891C370.906 155.656 373.078 154.188 376.062 154.172ZM376.062 155.391C373.906 155.375 372.344 156.375 372.344 157.891C372.344 159.469 373.906 160.438 376.062 160.453C378.234 160.438 379.797 159.469 379.797 157.891C379.797 156.375 378.234 155.375 376.062 155.391ZM395.188 153.344V163.594H393.703V158.328H391.031V157.125H393.703V153.344H395.188ZM395.562 165.828V167.031H386.094V162.672H387.578V165.828H395.562ZM388.531 156.172C388.531 157.922 389.797 159.672 391.906 160.375L391.141 161.562C389.57 161.008 388.406 159.883 387.797 158.5C387.188 160.039 385.961 161.281 384.297 161.875L383.531 160.672C385.688 159.938 387.016 158.094 387.016 156.172V155.625H383.984V154.406H391.531V155.625H388.531V156.172Z" fill="#A3ABB0"/>
<path d="M366.164 190.156C363.539 190.156 362.008 188.047 362.008 184.344C362.008 180.672 363.57 178.531 366.164 178.531C368.758 178.531 370.32 180.672 370.32 184.344C370.32 188.047 368.773 190.156 366.164 190.156ZM366.164 188.672C367.695 188.672 368.602 187.172 368.602 184.344C368.602 181.531 367.68 179.984 366.164 179.984C364.648 179.984 363.727 181.531 363.727 184.344C363.727 187.172 364.633 188.672 366.164 188.672ZM376.195 190.156C374.102 190.141 371.914 188.906 371.914 184.719C371.914 180.781 373.617 178.531 376.336 178.531C378.414 178.531 379.867 179.828 380.133 181.625H378.43C378.211 180.703 377.477 180.031 376.336 180.031C374.586 180.031 373.57 181.562 373.57 184.109H373.695C374.305 183.156 375.367 182.578 376.602 182.578C378.617 182.578 380.242 184.125 380.242 186.297C380.242 188.484 378.633 190.172 376.195 190.156ZM376.18 188.719C377.555 188.719 378.57 187.656 378.57 186.328C378.57 185.031 377.586 183.984 376.227 183.984C374.836 183.984 373.789 185.078 373.773 186.344C373.789 187.594 374.789 188.719 376.18 188.719ZM387.086 183.625V185.062H382.07V183.625H387.086ZM393.383 178.688V190H391.648V180.406H391.586L388.883 182.172V180.531L391.695 178.688H393.383ZM396.258 190V188.75L400.18 184.797C401.414 183.5 402.039 182.781 402.039 181.797C402.039 180.688 401.133 179.969 399.945 179.969C398.695 179.969 397.883 180.766 397.883 181.969H396.258C396.242 179.906 397.82 178.531 399.977 178.531C402.164 178.531 403.664 179.906 403.68 181.75C403.664 183.016 403.07 184.016 400.945 186.109L398.648 188.438V188.531H403.867V190H396.258Z" fill="#A3ABB0"/>
<path d="M540.062 154.172C543.062 154.188 545.234 155.656 545.234 157.891C545.234 159.992 543.414 161.375 540.797 161.594V164.344H546.5V165.578H533.688V164.344H539.328V161.594C536.727 161.375 534.906 159.992 534.906 157.891C534.906 155.656 537.078 154.188 540.062 154.172ZM540.062 155.391C537.906 155.375 536.344 156.375 536.344 157.891C536.344 159.469 537.906 160.438 540.062 160.453C542.234 160.438 543.797 159.469 543.797 157.891C543.797 156.375 542.234 155.375 540.062 155.391ZM559.562 154.875V156.094H548.172V154.875H553.156V153.266H554.625V154.875H559.562ZM560.328 162.391V163.609H554.625V167.344H553.156V163.609H547.516V162.391H560.328ZM553.891 156.812C556.797 156.812 558.547 157.641 558.547 159.172C558.547 160.672 556.797 161.5 553.891 161.516C550.969 161.5 549.219 160.672 549.234 159.172C549.219 157.641 550.969 156.812 553.891 156.812ZM553.891 157.922C551.875 157.922 550.766 158.359 550.766 159.172C550.766 159.953 551.875 160.391 553.891 160.391C555.891 160.391 557 159.953 557.016 159.172C557 158.359 555.891 157.922 553.891 157.922Z" fill="#A3ABB0"/>
<path d="M531.914 178.688V190H530.18V180.406H530.117L527.414 182.172V180.531L530.227 178.688H531.914ZM534.789 190V188.75L538.711 184.797C539.945 183.5 540.57 182.781 540.57 181.797C540.57 180.688 539.664 179.969 538.477 179.969C537.227 179.969 536.414 180.766 536.414 181.969H534.789C534.773 179.906 536.352 178.531 538.508 178.531C540.695 178.531 542.195 179.906 542.211 181.75C542.195 183.016 541.602 184.016 539.477 186.109L537.18 188.438V188.531H542.398V190H534.789ZM549.32 183.625V185.062H544.305V183.625H549.32ZM555.617 178.688V190H553.883V180.406H553.82L551.117 182.172V180.531L553.93 178.688H555.617ZM562.445 190.156C559.992 190.156 558.273 188.828 558.289 186.984C558.273 185.531 559.32 184.344 560.648 184.141V184.078C559.492 183.812 558.711 182.781 558.711 181.547C558.711 179.812 560.289 178.531 562.445 178.531C564.586 178.531 566.148 179.812 566.164 181.547C566.148 182.781 565.367 183.812 564.227 184.078V184.141C565.539 184.344 566.586 185.531 566.602 186.984C566.586 188.828 564.867 190.156 562.445 190.156ZM562.445 188.734C563.914 188.734 564.852 187.969 564.852 186.859C564.852 185.688 563.836 184.844 562.445 184.844C561.039 184.844 560.008 185.688 560.039 186.859C560.008 187.969 560.945 188.734 562.445 188.734ZM562.445 183.484C563.633 183.484 564.477 182.766 564.477 181.703C564.477 180.656 563.648 179.938 562.445 179.938C561.195 179.938 560.383 180.641 560.383 181.703C560.383 182.766 561.242 183.484 562.445 183.484Z" fill="#A3ABB0"/>
<path d="M715.602 162.109V167.156H706.664V162.109H715.602ZM708.117 163.297V165.953H714.133V163.297H708.117ZM715.602 153.328V156.594H717.633V157.828H715.602V161.375H714.117V153.328H715.602ZM706.602 154.047V156.062H710.273V154.047H711.742V160.578H705.148V154.047H706.602ZM706.602 159.359H710.273V157.234H706.602V159.359Z" fill="#A3ABB0"/>
<path d="M694.773 178.688V190H693.039V180.406H692.977L690.273 182.172V180.531L693.086 178.688H694.773ZM701.602 190.156C699.148 190.156 697.43 188.828 697.445 186.984C697.43 185.531 698.477 184.344 699.805 184.141V184.078C698.648 183.812 697.867 182.781 697.867 181.547C697.867 179.812 699.445 178.531 701.602 178.531C703.742 178.531 705.305 179.812 705.32 181.547C705.305 182.781 704.523 183.812 703.383 184.078V184.141C704.695 184.344 705.742 185.531 705.758 186.984C705.742 188.828 704.023 190.156 701.602 190.156ZM701.602 188.734C703.07 188.734 704.008 187.969 704.008 186.859C704.008 185.688 702.992 184.844 701.602 184.844C700.195 184.844 699.164 185.688 699.195 186.859C699.164 187.969 700.102 188.734 701.602 188.734ZM701.602 183.484C702.789 183.484 703.633 182.766 703.633 181.703C703.633 180.656 702.805 179.938 701.602 179.938C700.352 179.938 699.539 180.641 699.539 181.703C699.539 182.766 700.398 183.484 701.602 183.484ZM712.555 183.625V185.062H707.539V183.625H712.555ZM714.102 190V188.75L718.023 184.797C719.258 183.5 719.883 182.781 719.883 181.797C719.883 180.688 718.977 179.969 717.789 179.969C716.539 179.969 715.727 180.766 715.727 181.969H714.102C714.086 179.906 715.664 178.531 717.82 178.531C720.008 178.531 721.508 179.906 721.523 181.75C721.508 183.016 720.914 184.016 718.789 186.109L716.492 188.438V188.531H721.711V190H714.102ZM723.117 187.797V186.406L728.117 178.688H730.242V186.344H731.789V187.797H730.242V190H728.617V187.797H723.117ZM724.93 186.344H728.617V180.734H728.492L724.93 186.25V186.344Z" fill="#A3ABB0"/>
<path d="M120.742 219.344V227.547H119.258V226.875H116.523V225.938H119.258V219.344H120.742ZM109.07 224.5C111.773 224.516 115.211 224.484 118.227 224.156L118.305 225.109C116.984 225.289 115.617 225.398 114.273 225.469V227.578H112.805V225.531C111.539 225.562 110.336 225.57 109.242 225.562L109.07 224.5ZM120.742 228.016V231.031H112.68V232.109H121.164V233.188H111.227V230.047H119.273V229.047H111.164V228.016H120.742ZM113.617 219.578C115.695 219.578 117.102 220.406 117.117 221.688C117.102 223 115.695 223.781 113.617 223.781C111.492 223.781 110.102 223 110.117 221.688C110.102 220.406 111.492 219.578 113.617 219.578ZM113.617 220.578C112.32 220.578 111.508 221.016 111.508 221.688C111.508 222.359 112.32 222.781 113.617 222.781C114.883 222.781 115.711 222.359 115.711 221.688C115.711 221.016 114.883 220.578 113.617 220.578Z" fill="#A3ABB0"/>
<path d="M120.07 259.328V265.188H122.18V266.438H120.07V273.328H118.586V259.328H120.07ZM108.93 269.516C110.031 269.516 111.312 269.516 112.648 269.469V268.047C111.07 267.828 110.039 266.875 110.055 265.516C110.039 263.938 111.398 262.891 113.398 262.891C115.383 262.891 116.758 263.938 116.773 265.516C116.758 266.875 115.711 267.836 114.133 268.062V269.406C115.375 269.359 116.625 269.258 117.789 269.094L117.883 270.188C114.852 270.734 111.57 270.75 109.164 270.75L108.93 269.516ZM117.586 260.984V262.172H109.195V260.984H112.648V259.359H114.133V260.984H117.586ZM113.398 264.047C112.227 264.047 111.445 264.625 111.445 265.516C111.445 266.406 112.227 266.953 113.398 266.953C114.57 266.953 115.352 266.406 115.352 265.516C115.352 264.625 114.57 264.047 113.398 264.047Z" fill="#A3ABB0"/>
<path d="M116.273 300.562C116.258 302.422 118.539 304.172 121.289 304.531L120.711 305.75C118.422 305.383 116.406 304.195 115.508 302.547C114.586 304.203 112.578 305.383 110.305 305.75L109.711 304.531C112.461 304.172 114.711 302.438 114.727 300.562V299.797H116.273V300.562ZM121.867 307.125V308.344H116.18V313.328H114.727V308.344H109.102V307.125H121.867Z" fill="#A3ABB0"/>
<path d="M120.242 339.906V344.703H116.211V346.328H121.867V347.531H109.102V346.328H114.742V344.703H110.727V339.906H120.242ZM112.18 341.078V343.516H118.773V341.078H112.18ZM120.305 348.859V353.328H118.805V350.031H110.523V348.859H120.305Z" fill="#A3ABB0"/>
<path d="M120.289 380.031V381.094C120.289 382.195 120.289 383.445 119.93 385.141H121.914V386.359H109.102V385.141H118.43C118.805 383.508 118.82 382.312 118.82 381.25H110.711V380.031H120.289ZM120.305 388.141V393.156H110.664V388.141H120.305ZM112.117 389.312V391.953H118.836V389.312H112.117Z" fill="#A3ABB0"/>
<path d="M120.461 426.5V427.688H116.227V430.422H121.914V431.641H109.102V430.422H114.742V427.688H110.711V420.406H120.32V421.625H112.211V423.422H120.023V424.594H112.211V426.5H120.461Z" fill="#A3ABB0"/>
<path d="M112.57 459.797C114.68 459.812 116.227 461.109 116.242 462.938C116.227 464.781 114.68 466.062 112.57 466.062C110.445 466.062 108.883 464.781 108.883 462.938C108.883 461.109 110.445 459.812 112.57 459.797ZM112.57 461.047C111.273 461.031 110.32 461.797 110.336 462.938C110.32 464.094 111.273 464.859 112.57 464.859C113.852 464.859 114.805 464.094 114.805 462.938C114.805 461.797 113.852 461.031 112.57 461.047ZM120.211 459.328V466.453H118.727V459.328H120.211ZM120.211 467.094V470.625H112.492V471.969H120.68V473.156H111.055V469.516H118.742V468.281H111.008V467.094H120.211Z" fill="#A3ABB0"/>
<rect x="139" y="208" width="160" height="36" rx="8" fill="#F2F2F2"/>
<path d="M207.781 232.156C205.156 232.156 203.625 230.047 203.625 226.344C203.625 222.672 205.188 220.531 207.781 220.531C210.375 220.531 211.938 222.672 211.938 226.344C211.938 230.047 210.391 232.156 207.781 232.156ZM207.781 230.672C209.312 230.672 210.219 229.172 210.219 226.344C210.219 223.531 209.297 221.984 207.781 221.984C206.266 221.984 205.344 223.531 205.344 226.344C205.344 229.172 206.25 230.672 207.781 230.672ZM214.406 232.109C213.797 232.109 213.281 231.609 213.297 231C213.281 230.391 213.797 229.891 214.406 229.891C215 229.891 215.516 230.391 215.516 231C215.516 231.609 215 232.109 214.406 232.109ZM221.031 232.156C218.406 232.156 216.875 230.047 216.875 226.344C216.875 222.672 218.438 220.531 221.031 220.531C223.625 220.531 225.188 222.672 225.188 226.344C225.188 230.047 223.641 232.156 221.031 232.156ZM221.031 230.672C222.562 230.672 223.469 229.172 223.469 226.344C223.469 223.531 222.547 221.984 221.031 221.984C219.516 221.984 218.594 223.531 218.594 226.344C218.594 229.172 219.5 230.672 221.031 230.672ZM228.656 226.969V232H226.984V220.688H228.625V224.906H228.734C229.141 223.984 229.922 223.406 231.25 223.406C233 223.406 234.156 224.484 234.156 226.609V232H232.484V226.812C232.484 225.562 231.812 224.844 230.688 224.844C229.516 224.844 228.656 225.609 228.656 226.969Z" fill="#C3CAD6"/>
<rect x="303" y="208" width="160" height="36" rx="8" fill="#F2F2F2"/>
<path d="M371.781 232.156C369.156 232.156 367.625 230.047 367.625 226.344C367.625 222.672 369.188 220.531 371.781 220.531C374.375 220.531 375.938 222.672 375.938 226.344C375.938 230.047 374.391 232.156 371.781 232.156ZM371.781 230.672C373.312 230.672 374.219 229.172 374.219 226.344C374.219 223.531 373.297 221.984 371.781 221.984C370.266 221.984 369.344 223.531 369.344 226.344C369.344 229.172 370.25 230.672 371.781 230.672ZM378.406 232.109C377.797 232.109 377.281 231.609 377.297 231C377.281 230.391 377.797 229.891 378.406 229.891C379 229.891 379.516 230.391 379.516 231C379.516 231.609 379 232.109 378.406 232.109ZM385.031 232.156C382.406 232.156 380.875 230.047 380.875 226.344C380.875 222.672 382.438 220.531 385.031 220.531C387.625 220.531 389.188 222.672 389.188 226.344C389.188 230.047 387.641 232.156 385.031 232.156ZM385.031 230.672C386.562 230.672 387.469 229.172 387.469 226.344C387.469 223.531 386.547 221.984 385.031 221.984C383.516 221.984 382.594 223.531 382.594 226.344C382.594 229.172 383.5 230.672 385.031 230.672ZM392.656 226.969V232H390.984V220.688H392.625V224.906H392.734C393.141 223.984 393.922 223.406 395.25 223.406C397 223.406 398.156 224.484 398.156 226.609V232H396.484V226.812C396.484 225.562 395.812 224.844 394.688 224.844C393.516 224.844 392.656 225.609 392.656 226.969Z" fill="#C3CAD6"/>
<rect x="467" y="208" width="160" height="36" rx="8" fill="#F2F2F2"/>
<path d="M535.781 232.156C533.156 232.156 531.625 230.047 531.625 226.344C531.625 222.672 533.188 220.531 535.781 220.531C538.375 220.531 539.938 222.672 539.938 226.344C539.938 230.047 538.391 232.156 535.781 232.156ZM535.781 230.672C537.312 230.672 538.219 229.172 538.219 226.344C538.219 223.531 537.297 221.984 535.781 221.984C534.266 221.984 533.344 223.531 533.344 226.344C533.344 229.172 534.25 230.672 535.781 230.672ZM542.406 232.109C541.797 232.109 541.281 231.609 541.297 231C541.281 230.391 541.797 229.891 542.406 229.891C543 229.891 543.516 230.391 543.516 231C543.516 231.609 543 232.109 542.406 232.109ZM549.031 232.156C546.406 232.156 544.875 230.047 544.875 226.344C544.875 222.672 546.438 220.531 549.031 220.531C551.625 220.531 553.188 222.672 553.188 226.344C553.188 230.047 551.641 232.156 549.031 232.156ZM549.031 230.672C550.562 230.672 551.469 229.172 551.469 226.344C551.469 223.531 550.547 221.984 549.031 221.984C547.516 221.984 546.594 223.531 546.594 226.344C546.594 229.172 547.5 230.672 549.031 230.672ZM556.656 226.969V232H554.984V220.688H556.625V224.906H556.734C557.141 223.984 557.922 223.406 559.25 223.406C561 223.406 562.156 224.484 562.156 226.609V232H560.484V226.812C560.484 225.562 559.812 224.844 558.688 224.844C557.516 224.844 556.656 225.609 556.656 226.969Z" fill="#C3CAD6"/>
<rect x="632" y="209" width="158" height="34" rx="7" fill="#1A59E1"/>
<rect x="632" y="209" width="158" height="34" rx="7" stroke="#FFD84D" stroke-width="2"/>
<path d="M695.422 229.797V228.406L700.422 220.688H702.547V228.344H704.094V229.797H702.547V232H700.922V229.797H695.422ZM697.234 228.344H700.922V222.734H700.797L697.234 228.25V228.344ZM706.516 232.109C705.906 232.109 705.391 231.609 705.406 231C705.391 230.391 705.906 229.891 706.516 229.891C707.109 229.891 707.625 230.391 707.625 231C707.625 231.609 707.109 232.109 706.516 232.109ZM709.625 232V230.75L713.547 226.797C714.781 225.5 715.406 224.781 715.406 223.797C715.406 222.688 714.5 221.969 713.312 221.969C712.062 221.969 711.25 222.766 711.25 223.969H709.625C709.609 221.906 711.188 220.531 713.344 220.531C715.531 220.531 717.031 221.906 717.047 223.75C717.031 225.016 716.438 226.016 714.312 228.109L712.016 230.438V230.531H717.234V232H709.625ZM720.828 226.969V232H719.156V220.688H720.797V224.906H720.906C721.312 223.984 722.094 223.406 723.422 223.406C725.172 223.406 726.328 224.484 726.328 226.609V232H724.656V226.812C724.656 225.562 723.984 224.844 722.859 224.844C721.688 224.844 720.828 225.609 720.828 226.969Z" fill="#C3CAD6"/>
<rect x="139" y="248" width="160" height="36" rx="8" fill="#D5E6FF"/>
<path d="M207.75 272.156C205.125 272.156 203.594 270.047 203.594 266.344C203.594 262.672 205.156 260.531 207.75 260.531C210.344 260.531 211.906 262.672 211.906 266.344C211.906 270.047 210.359 272.156 207.75 272.156ZM207.75 270.672C209.281 270.672 210.188 269.172 210.188 266.344C210.188 263.531 209.266 261.984 207.75 261.984C206.234 261.984 205.312 263.531 205.312 266.344C205.312 269.172 206.219 270.672 207.75 270.672ZM214.375 272.109C213.766 272.109 213.25 271.609 213.266 271C213.25 270.391 213.766 269.891 214.375 269.891C214.969 269.891 215.484 270.391 215.484 271C215.484 271.609 214.969 272.109 214.375 272.109ZM221.141 272.156C219 272.156 217.391 270.844 217.312 269.047H218.984C219.078 270.016 220 270.719 221.141 270.719C222.516 270.719 223.5 269.719 223.5 268.375C223.5 267 222.484 266 221.062 265.984C220.156 265.984 219.469 266.281 219.078 266.984H217.453L218.188 260.688H224.594V262.156H219.609L219.234 265.328H219.344C219.812 264.875 220.609 264.562 221.469 264.562C223.594 264.562 225.172 266.141 225.172 268.328C225.172 270.562 223.5 272.156 221.141 272.156ZM228.688 266.969V272H227.016V260.688H228.656V264.906H228.766C229.172 263.984 229.953 263.406 231.281 263.406C233.031 263.406 234.188 264.484 234.188 266.609V272H232.516V266.812C232.516 265.562 231.844 264.844 230.719 264.844C229.547 264.844 228.688 265.609 228.688 266.969Z" fill="#C3CAD6"/>
<rect x="303" y="248" width="160" height="36" rx="8" fill="#F2F2F2"/>
<path d="M371.781 272.156C369.156 272.156 367.625 270.047 367.625 266.344C367.625 262.672 369.188 260.531 371.781 260.531C374.375 260.531 375.938 262.672 375.938 266.344C375.938 270.047 374.391 272.156 371.781 272.156ZM371.781 270.672C373.312 270.672 374.219 269.172 374.219 266.344C374.219 263.531 373.297 261.984 371.781 261.984C370.266 261.984 369.344 263.531 369.344 266.344C369.344 269.172 370.25 270.672 371.781 270.672ZM378.406 272.109C377.797 272.109 377.281 271.609 377.297 271C377.281 270.391 377.797 269.891 378.406 269.891C379 269.891 379.516 270.391 379.516 271C379.516 271.609 379 272.109 378.406 272.109ZM385.031 272.156C382.406 272.156 380.875 270.047 380.875 266.344C380.875 262.672 382.438 260.531 385.031 260.531C387.625 260.531 389.188 262.672 389.188 266.344C389.188 270.047 387.641 272.156 385.031 272.156ZM385.031 270.672C386.562 270.672 387.469 269.172 387.469 266.344C387.469 263.531 386.547 261.984 385.031 261.984C383.516 261.984 382.594 263.531 382.594 266.344C382.594 269.172 383.5 270.672 385.031 270.672ZM392.656 266.969V272H390.984V260.688H392.625V264.906H392.734C393.141 263.984 393.922 263.406 395.25 263.406C397 263.406 398.156 264.484 398.156 266.609V272H396.484V266.812C396.484 265.562 395.812 264.844 394.688 264.844C393.516 264.844 392.656 265.609 392.656 266.969Z" fill="#C3CAD6"/>
<rect x="467" y="248" width="160" height="36" rx="8" fill="#F2F2F2"/>
<path d="M535.781 272.156C533.156 272.156 531.625 270.047 531.625 266.344C531.625 262.672 533.188 260.531 535.781 260.531C538.375 260.531 539.938 262.672 539.938 266.344C539.938 270.047 538.391 272.156 535.781 272.156ZM535.781 270.672C537.312 270.672 538.219 269.172 538.219 266.344C538.219 263.531 537.297 261.984 535.781 261.984C534.266 261.984 533.344 263.531 533.344 266.344C533.344 269.172 534.25 270.672 535.781 270.672ZM542.406 272.109C541.797 272.109 541.281 271.609 541.297 271C541.281 270.391 541.797 269.891 542.406 269.891C543 269.891 543.516 270.391 543.516 271C543.516 271.609 543 272.109 542.406 272.109ZM549.031 272.156C546.406 272.156 544.875 270.047 544.875 266.344C544.875 262.672 546.438 260.531 549.031 260.531C551.625 260.531 553.188 262.672 553.188 266.344C553.188 270.047 551.641 272.156 549.031 272.156ZM549.031 270.672C550.562 270.672 551.469 269.172 551.469 266.344C551.469 263.531 550.547 261.984 549.031 261.984C547.516 261.984 546.594 263.531 546.594 266.344C546.594 269.172 547.5 270.672 549.031 270.672ZM556.656 266.969V272H554.984V260.688H556.625V264.906H556.734C557.141 263.984 557.922 263.406 559.25 263.406C561 263.406 562.156 264.484 562.156 266.609V272H560.484V266.812C560.484 265.562 559.812 264.844 558.688 264.844C557.516 264.844 556.656 265.609 556.656 266.969Z" fill="#C3CAD6"/>
<rect x="631" y="248" width="160" height="36" rx="8" fill="#D5E6FF"/>
<path d="M699.75 272.156C697.125 272.156 695.594 270.047 695.594 266.344C695.594 262.672 697.156 260.531 699.75 260.531C702.344 260.531 703.906 262.672 703.906 266.344C703.906 270.047 702.359 272.156 699.75 272.156ZM699.75 270.672C701.281 270.672 702.188 269.172 702.188 266.344C702.188 263.531 701.266 261.984 699.75 261.984C698.234 261.984 697.312 263.531 697.312 266.344C697.312 269.172 698.219 270.672 699.75 270.672ZM706.375 272.109C705.766 272.109 705.25 271.609 705.266 271C705.25 270.391 705.766 269.891 706.375 269.891C706.969 269.891 707.484 270.391 707.484 271C707.484 271.609 706.969 272.109 706.375 272.109ZM713.141 272.156C711 272.156 709.391 270.844 709.312 269.047H710.984C711.078 270.016 712 270.719 713.141 270.719C714.516 270.719 715.5 269.719 715.5 268.375C715.5 267 714.484 266 713.062 265.984C712.156 265.984 711.469 266.281 711.078 266.984H709.453L710.188 260.688H716.594V262.156H711.609L711.234 265.328H711.344C711.812 264.875 712.609 264.562 713.469 264.562C715.594 264.562 717.172 266.141 717.172 268.328C717.172 270.562 715.5 272.156 713.141 272.156ZM720.688 266.969V272H719.016V260.688H720.656V264.906H720.766C721.172 263.984 721.953 263.406 723.281 263.406C725.031 263.406 726.188 264.484 726.188 266.609V272H724.516V266.812C724.516 265.562 723.844 264.844 722.719 264.844C721.547 264.844 720.688 265.609 720.688 266.969Z" fill="#C3CAD6"/>
<rect x="139" y="288" width="160" height="36" rx="8" fill="#F2F2F2"/>
<path d="M207.781 312.156C205.156 312.156 203.625 310.047 203.625 306.344C203.625 302.672 205.188 300.531 207.781 300.531C210.375 300.531 211.938 302.672 211.938 306.344C211.938 310.047 210.391 312.156 207.781 312.156ZM207.781 310.672C209.312 310.672 210.219 309.172 210.219 306.344C210.219 303.531 209.297 301.984 207.781 301.984C206.266 301.984 205.344 303.531 205.344 306.344C205.344 309.172 206.25 310.672 207.781 310.672ZM214.406 312.109C213.797 312.109 213.281 311.609 213.297 311C213.281 310.391 213.797 309.891 214.406 309.891C215 309.891 215.516 310.391 215.516 311C215.516 311.609 215 312.109 214.406 312.109ZM221.031 312.156C218.406 312.156 216.875 310.047 216.875 306.344C216.875 302.672 218.438 300.531 221.031 300.531C223.625 300.531 225.188 302.672 225.188 306.344C225.188 310.047 223.641 312.156 221.031 312.156ZM221.031 310.672C222.562 310.672 223.469 309.172 223.469 306.344C223.469 303.531 222.547 301.984 221.031 301.984C219.516 301.984 218.594 303.531 218.594 306.344C218.594 309.172 219.5 310.672 221.031 310.672ZM228.656 306.969V312H226.984V300.688H228.625V304.906H228.734C229.141 303.984 229.922 303.406 231.25 303.406C233 303.406 234.156 304.484 234.156 306.609V312H232.484V306.812C232.484 305.562 231.812 304.844 230.688 304.844C229.516 304.844 228.656 305.609 228.656 306.969Z" fill="#C3CAD6"/>
<rect x="303" y="288" width="160" height="36" rx="8" fill="#D5E6FF"/>
<path d="M371.75 312.156C369.125 312.156 367.594 310.047 367.594 306.344C367.594 302.672 369.156 300.531 371.75 300.531C374.344 300.531 375.906 302.672 375.906 306.344C375.906 310.047 374.359 312.156 371.75 312.156ZM371.75 310.672C373.281 310.672 374.188 309.172 374.188 306.344C374.188 303.531 373.266 301.984 371.75 301.984C370.234 301.984 369.312 303.531 369.312 306.344C369.312 309.172 370.219 310.672 371.75 310.672ZM378.375 312.109C377.766 312.109 377.25 311.609 377.266 311C377.25 310.391 377.766 309.891 378.375 309.891C378.969 309.891 379.484 310.391 379.484 311C379.484 311.609 378.969 312.109 378.375 312.109ZM385.141 312.156C383 312.156 381.391 310.844 381.312 309.047H382.984C383.078 310.016 384 310.719 385.141 310.719C386.516 310.719 387.5 309.719 387.5 308.375C387.5 307 386.484 306 385.062 305.984C384.156 305.984 383.469 306.281 383.078 306.984H381.453L382.188 300.688H388.594V302.156H383.609L383.234 305.328H383.344C383.812 304.875 384.609 304.562 385.469 304.562C387.594 304.562 389.172 306.141 389.172 308.328C389.172 310.562 387.5 312.156 385.141 312.156ZM392.688 306.969V312H391.016V300.688H392.656V304.906H392.766C393.172 303.984 393.953 303.406 395.281 303.406C397.031 303.406 398.188 304.484 398.188 306.609V312H396.516V306.812C396.516 305.562 395.844 304.844 394.719 304.844C393.547 304.844 392.688 305.609 392.688 306.969Z" fill="#C3CAD6"/>
<rect x="467" y="288" width="160" height="36" rx="8" fill="#8CB8F9"/>
<path d="M537.57 300.688V312H535.836V302.406H535.773L533.07 304.172V302.531L535.883 300.688H537.57ZM540.914 312.109C540.305 312.109 539.789 311.609 539.805 311C539.789 310.391 540.305 309.891 540.914 309.891C541.508 309.891 542.023 310.391 542.023 311C542.023 311.609 541.508 312.109 540.914 312.109ZM544.023 312V310.75L547.945 306.797C549.18 305.5 549.805 304.781 549.805 303.797C549.805 302.688 548.898 301.969 547.711 301.969C546.461 301.969 545.648 302.766 545.648 303.969H544.023C544.008 301.906 545.586 300.531 547.742 300.531C549.93 300.531 551.43 301.906 551.445 303.75C551.43 305.016 550.836 306.016 548.711 308.109L546.414 310.438V310.531H551.633V312H544.023ZM555.227 306.969V312H553.555V300.688H555.195V304.906H555.305C555.711 303.984 556.492 303.406 557.82 303.406C559.57 303.406 560.727 304.484 560.727 306.609V312H559.055V306.812C559.055 305.562 558.383 304.844 557.258 304.844C556.086 304.844 555.227 305.609 555.227 306.969Z" fill="#C3CAD6"/>
<rect x="631" y="288" width="160" height="36" rx="8" fill="#D5E6FF"/>
<path d="M699.75 312.156C697.125 312.156 695.594 310.047 695.594 306.344C695.594 302.672 697.156 300.531 699.75 300.531C702.344 300.531 703.906 302.672 703.906 306.344C703.906 310.047 702.359 312.156 699.75 312.156ZM699.75 310.672C701.281 310.672 702.188 309.172 702.188 306.344C702.188 303.531 701.266 301.984 699.75 301.984C698.234 301.984 697.312 303.531 697.312 306.344C697.312 309.172 698.219 310.672 699.75 310.672ZM706.375 312.109C705.766 312.109 705.25 311.609 705.266 311C705.25 310.391 705.766 309.891 706.375 309.891C706.969 309.891 707.484 310.391 707.484 311C707.484 311.609 706.969 312.109 706.375 312.109ZM713.141 312.156C711 312.156 709.391 310.844 709.312 309.047H710.984C711.078 310.016 712 310.719 713.141 310.719C714.516 310.719 715.5 309.719 715.5 308.375C715.5 307 714.484 306 713.062 305.984C712.156 305.984 711.469 306.281 711.078 306.984H709.453L710.188 300.688H716.594V302.156H711.609L711.234 305.328H711.344C711.812 304.875 712.609 304.562 713.469 304.562C715.594 304.562 717.172 306.141 717.172 308.328C717.172 310.562 715.5 312.156 713.141 312.156ZM720.688 306.969V312H719.016V300.688H720.656V304.906H720.766C721.172 303.984 721.953 303.406 723.281 303.406C725.031 303.406 726.188 304.484 726.188 306.609V312H724.516V306.812C724.516 305.562 723.844 304.844 722.719 304.844C721.547 304.844 720.688 305.609 720.688 306.969Z" fill="#C3CAD6"/>
<rect x="139" y="328" width="160" height="36" rx="8" fill="#D5E6FF"/>
<path d="M207.75 352.156C205.125 352.156 203.594 350.047 203.594 346.344C203.594 342.672 205.156 340.531 207.75 340.531C210.344 340.531 211.906 342.672 211.906 346.344C211.906 350.047 210.359 352.156 207.75 352.156ZM207.75 350.672C209.281 350.672 210.188 349.172 210.188 346.344C210.188 343.531 209.266 341.984 207.75 341.984C206.234 341.984 205.312 343.531 205.312 346.344C205.312 349.172 206.219 350.672 207.75 350.672ZM214.375 352.109C213.766 352.109 213.25 351.609 213.266 351C213.25 350.391 213.766 349.891 214.375 349.891C214.969 349.891 215.484 350.391 215.484 351C215.484 351.609 214.969 352.109 214.375 352.109ZM221.141 352.156C219 352.156 217.391 350.844 217.312 349.047H218.984C219.078 350.016 220 350.719 221.141 350.719C222.516 350.719 223.5 349.719 223.5 348.375C223.5 347 222.484 346 221.062 345.984C220.156 345.984 219.469 346.281 219.078 346.984H217.453L218.188 340.688H224.594V342.156H219.609L219.234 345.328H219.344C219.812 344.875 220.609 344.562 221.469 344.562C223.594 344.562 225.172 346.141 225.172 348.328C225.172 350.562 223.5 352.156 221.141 352.156ZM228.688 346.969V352H227.016V340.688H228.656V344.906H228.766C229.172 343.984 229.953 343.406 231.281 343.406C233.031 343.406 234.188 344.484 234.188 346.609V352H232.516V346.812C232.516 345.562 231.844 344.844 230.719 344.844C229.547 344.844 228.688 345.609 228.688 346.969Z" fill="#C3CAD6"/>
<rect x="303" y="328" width="160" height="36" rx="8" fill="#F2F2F2"/>
<path d="M371.781 352.156C369.156 352.156 367.625 350.047 367.625 346.344C367.625 342.672 369.188 340.531 371.781 340.531C374.375 340.531 375.938 342.672 375.938 346.344C375.938 350.047 374.391 352.156 371.781 352.156ZM371.781 350.672C373.312 350.672 374.219 349.172 374.219 346.344C374.219 343.531 373.297 341.984 371.781 341.984C370.266 341.984 369.344 343.531 369.344 346.344C369.344 349.172 370.25 350.672 371.781 350.672ZM378.406 352.109C377.797 352.109 377.281 351.609 377.297 351C377.281 350.391 377.797 349.891 378.406 349.891C379 349.891 379.516 350.391 379.516 351C379.516 351.609 379 352.109 378.406 352.109ZM385.031 352.156C382.406 352.156 380.875 350.047 380.875 346.344C380.875 342.672 382.438 340.531 385.031 340.531C387.625 340.531 389.188 342.672 389.188 346.344C389.188 350.047 387.641 352.156 385.031 352.156ZM385.031 350.672C386.562 350.672 387.469 349.172 387.469 346.344C387.469 343.531 386.547 341.984 385.031 341.984C383.516 341.984 382.594 343.531 382.594 346.344C382.594 349.172 383.5 350.672 385.031 350.672ZM392.656 346.969V352H390.984V340.688H392.625V344.906H392.734C393.141 343.984 393.922 343.406 395.25 343.406C397 343.406 398.156 344.484 398.156 346.609V352H396.484V346.812C396.484 345.562 395.812 344.844 394.688 344.844C393.516 344.844 392.656 345.609 392.656 346.969Z" fill="#C3CAD6"/>
<rect x="467" y="328" width="160" height="36" rx="8" fill="#F2F2F2"/>
<path d="M535.781 352.156C533.156 352.156 531.625 350.047 531.625 346.344C531.625 342.672 533.188 340.531 535.781 340.531C538.375 340.531 539.938 342.672 539.938 346.344C539.938 350.047 538.391 352.156 535.781 352.156ZM535.781 350.672C537.312 350.672 538.219 349.172 538.219 346.344C538.219 343.531 537.297 341.984 535.781 341.984C534.266 341.984 533.344 343.531 533.344 346.344C533.344 349.172 534.25 350.672 535.781 350.672ZM542.406 352.109C541.797 352.109 541.281 351.609 541.297 351C541.281 350.391 541.797 349.891 542.406 349.891C543 349.891 543.516 350.391 543.516 351C543.516 351.609 543 352.109 542.406 352.109ZM549.031 352.156C546.406 352.156 544.875 350.047 544.875 346.344C544.875 342.672 546.438 340.531 549.031 340.531C551.625 340.531 553.188 342.672 553.188 346.344C553.188 350.047 551.641 352.156 549.031 352.156ZM549.031 350.672C550.562 350.672 551.469 349.172 551.469 346.344C551.469 343.531 550.547 341.984 549.031 341.984C547.516 341.984 546.594 343.531 546.594 346.344C546.594 349.172 547.5 350.672 549.031 350.672ZM556.656 346.969V352H554.984V340.688H556.625V344.906H556.734C557.141 343.984 557.922 343.406 559.25 343.406C561 343.406 562.156 344.484 562.156 346.609V352H560.484V346.812C560.484 345.562 559.812 344.844 558.688 344.844C557.516 344.844 556.656 345.609 556.656 346.969Z" fill="#C3CAD6"/>
<rect x="631" y="328" width="160" height="36" rx="8" fill="#D5E6FF"/>
<path d="M699.75 352.156C697.125 352.156 695.594 350.047 695.594 346.344C695.594 342.672 697.156 340.531 699.75 340.531C702.344 340.531 703.906 342.672 703.906 346.344C703.906 350.047 702.359 352.156 699.75 352.156ZM699.75 350.672C701.281 350.672 702.188 349.172 702.188 346.344C702.188 343.531 701.266 341.984 699.75 341.984C698.234 341.984 697.312 343.531 697.312 346.344C697.312 349.172 698.219 350.672 699.75 350.672ZM706.375 352.109C705.766 352.109 705.25 351.609 705.266 351C705.25 350.391 705.766 349.891 706.375 349.891C706.969 349.891 707.484 350.391 707.484 351C707.484 351.609 706.969 352.109 706.375 352.109ZM713.141 352.156C711 352.156 709.391 350.844 709.312 349.047H710.984C711.078 350.016 712 350.719 713.141 350.719C714.516 350.719 715.5 349.719 715.5 348.375C715.5 347 714.484 346 713.062 345.984C712.156 345.984 711.469 346.281 711.078 346.984H709.453L710.188 340.688H716.594V342.156H711.609L711.234 345.328H711.344C711.812 344.875 712.609 344.562 713.469 344.562C715.594 344.562 717.172 346.141 717.172 348.328C717.172 350.562 715.5 352.156 713.141 352.156ZM720.688 346.969V352H719.016V340.688H720.656V344.906H720.766C721.172 343.984 721.953 343.406 723.281 343.406C725.031 343.406 726.188 344.484 726.188 346.609V352H724.516V346.812C724.516 345.562 723.844 344.844 722.719 344.844C721.547 344.844 720.688 345.609 720.688 346.969Z" fill="#C3CAD6"/>
<rect x="139" y="368" width="160" height="36" rx="8" fill="#D5E6FF"/>
<path d="M207.75 392.156C205.125 392.156 203.594 390.047 203.594 386.344C203.594 382.672 205.156 380.531 207.75 380.531C210.344 380.531 211.906 382.672 211.906 386.344C211.906 390.047 210.359 392.156 207.75 392.156ZM207.75 390.672C209.281 390.672 210.188 389.172 210.188 386.344C210.188 383.531 209.266 381.984 207.75 381.984C206.234 381.984 205.312 383.531 205.312 386.344C205.312 389.172 206.219 390.672 207.75 390.672ZM214.375 392.109C213.766 392.109 213.25 391.609 213.266 391C213.25 390.391 213.766 389.891 214.375 389.891C214.969 389.891 215.484 390.391 215.484 391C215.484 391.609 214.969 392.109 214.375 392.109ZM221.141 392.156C219 392.156 217.391 390.844 217.312 389.047H218.984C219.078 390.016 220 390.719 221.141 390.719C222.516 390.719 223.5 389.719 223.5 388.375C223.5 387 222.484 386 221.062 385.984C220.156 385.984 219.469 386.281 219.078 386.984H217.453L218.188 380.688H224.594V382.156H219.609L219.234 385.328H219.344C219.812 384.875 220.609 384.562 221.469 384.562C223.594 384.562 225.172 386.141 225.172 388.328C225.172 390.562 223.5 392.156 221.141 392.156ZM228.688 386.969V392H227.016V380.688H228.656V384.906H228.766C229.172 383.984 229.953 383.406 231.281 383.406C233.031 383.406 234.188 384.484 234.188 386.609V392H232.516V386.812C232.516 385.562 231.844 384.844 230.719 384.844C229.547 384.844 228.688 385.609 228.688 386.969Z" fill="#C3CAD6"/>
<rect x="303" y="368" width="160" height="36" rx="8" fill="#F2F2F2"/>
<path d="M371.781 392.156C369.156 392.156 367.625 390.047 367.625 386.344C367.625 382.672 369.188 380.531 371.781 380.531C374.375 380.531 375.938 382.672 375.938 386.344C375.938 390.047 374.391 392.156 371.781 392.156ZM371.781 390.672C373.312 390.672 374.219 389.172 374.219 386.344C374.219 383.531 373.297 381.984 371.781 381.984C370.266 381.984 369.344 383.531 369.344 386.344C369.344 389.172 370.25 390.672 371.781 390.672ZM378.406 392.109C377.797 392.109 377.281 391.609 377.297 391C377.281 390.391 377.797 389.891 378.406 389.891C379 389.891 379.516 390.391 379.516 391C379.516 391.609 379 392.109 378.406 392.109ZM385.031 392.156C382.406 392.156 380.875 390.047 380.875 386.344C380.875 382.672 382.438 380.531 385.031 380.531C387.625 380.531 389.188 382.672 389.188 386.344C389.188 390.047 387.641 392.156 385.031 392.156ZM385.031 390.672C386.562 390.672 387.469 389.172 387.469 386.344C387.469 383.531 386.547 381.984 385.031 381.984C383.516 381.984 382.594 383.531 382.594 386.344C382.594 389.172 383.5 390.672 385.031 390.672ZM392.656 386.969V392H390.984V380.688H392.625V384.906H392.734C393.141 383.984 393.922 383.406 395.25 383.406C397 383.406 398.156 384.484 398.156 386.609V392H396.484V386.812C396.484 385.562 395.812 384.844 394.688 384.844C393.516 384.844 392.656 385.609 392.656 386.969Z" fill="#C3CAD6"/>
<rect x="467" y="368" width="160" height="36" rx="8" fill="#F2F2F2"/>
<path d="M535.781 392.156C533.156 392.156 531.625 390.047 531.625 386.344C531.625 382.672 533.188 380.531 535.781 380.531C538.375 380.531 539.938 382.672 539.938 386.344C539.938 390.047 538.391 392.156 535.781 392.156ZM535.781 390.672C537.312 390.672 538.219 389.172 538.219 386.344C538.219 383.531 537.297 381.984 535.781 381.984C534.266 381.984 533.344 383.531 533.344 386.344C533.344 389.172 534.25 390.672 535.781 390.672ZM542.406 392.109C541.797 392.109 541.281 391.609 541.297 391C541.281 390.391 541.797 389.891 542.406 389.891C543 389.891 543.516 390.391 543.516 391C543.516 391.609 543 392.109 542.406 392.109ZM549.031 392.156C546.406 392.156 544.875 390.047 544.875 386.344C544.875 382.672 546.438 380.531 549.031 380.531C551.625 380.531 553.188 382.672 553.188 386.344C553.188 390.047 551.641 392.156 549.031 392.156ZM549.031 390.672C550.562 390.672 551.469 389.172 551.469 386.344C551.469 383.531 550.547 381.984 549.031 381.984C547.516 381.984 546.594 383.531 546.594 386.344C546.594 389.172 547.5 390.672 549.031 390.672ZM556.656 386.969V392H554.984V380.688H556.625V384.906H556.734C557.141 383.984 557.922 383.406 559.25 383.406C561 383.406 562.156 384.484 562.156 386.609V392H560.484V386.812C560.484 385.562 559.812 384.844 558.688 384.844C557.516 384.844 556.656 385.609 556.656 386.969Z" fill="#C3CAD6"/>
<rect x="631" y="368" width="160" height="36" rx="8" fill="#D5E6FF"/>
<path d="M699.75 392.156C697.125 392.156 695.594 390.047 695.594 386.344C695.594 382.672 697.156 380.531 699.75 380.531C702.344 380.531 703.906 382.672 703.906 386.344C703.906 390.047 702.359 392.156 699.75 392.156ZM699.75 390.672C701.281 390.672 702.188 389.172 702.188 386.344C702.188 383.531 701.266 381.984 699.75 381.984C698.234 381.984 697.312 383.531 697.312 386.344C697.312 389.172 698.219 390.672 699.75 390.672ZM706.375 392.109C705.766 392.109 705.25 391.609 705.266 391C705.25 390.391 705.766 389.891 706.375 389.891C706.969 389.891 707.484 390.391 707.484 391C707.484 391.609 706.969 392.109 706.375 392.109ZM713.141 392.156C711 392.156 709.391 390.844 709.312 389.047H710.984C711.078 390.016 712 390.719 713.141 390.719C714.516 390.719 715.5 389.719 715.5 388.375C715.5 387 714.484 386 713.062 385.984C712.156 385.984 711.469 386.281 711.078 386.984H709.453L710.188 380.688H716.594V382.156H711.609L711.234 385.328H711.344C711.812 384.875 712.609 384.562 713.469 384.562C715.594 384.562 717.172 386.141 717.172 388.328C717.172 390.562 715.5 392.156 713.141 392.156ZM720.688 386.969V392H719.016V380.688H720.656V384.906H720.766C721.172 383.984 721.953 383.406 723.281 383.406C725.031 383.406 726.188 384.484 726.188 386.609V392H724.516V386.812C724.516 385.562 723.844 384.844 722.719 384.844C721.547 384.844 720.688 385.609 720.688 386.969Z" fill="#C3CAD6"/>
<rect x="139" y="408" width="160" height="36" rx="8" fill="#F2F2F2"/>
<path d="M207.781 432.156C205.156 432.156 203.625 430.047 203.625 426.344C203.625 422.672 205.188 420.531 207.781 420.531C210.375 420.531 211.938 422.672 211.938 426.344C211.938 430.047 210.391 432.156 207.781 432.156ZM207.781 430.672C209.312 430.672 210.219 429.172 210.219 426.344C210.219 423.531 209.297 421.984 207.781 421.984C206.266 421.984 205.344 423.531 205.344 426.344C205.344 429.172 206.25 430.672 207.781 430.672ZM214.406 432.109C213.797 432.109 213.281 431.609 213.297 431C213.281 430.391 213.797 429.891 214.406 429.891C215 429.891 215.516 430.391 215.516 431C215.516 431.609 215 432.109 214.406 432.109ZM221.031 432.156C218.406 432.156 216.875 430.047 216.875 426.344C216.875 422.672 218.438 420.531 221.031 420.531C223.625 420.531 225.188 422.672 225.188 426.344C225.188 430.047 223.641 432.156 221.031 432.156ZM221.031 430.672C222.562 430.672 223.469 429.172 223.469 426.344C223.469 423.531 222.547 421.984 221.031 421.984C219.516 421.984 218.594 423.531 218.594 426.344C218.594 429.172 219.5 430.672 221.031 430.672ZM228.656 426.969V432H226.984V420.688H228.625V424.906H228.734C229.141 423.984 229.922 423.406 231.25 423.406C233 423.406 234.156 424.484 234.156 426.609V432H232.484V426.812C232.484 425.562 231.812 424.844 230.688 424.844C229.516 424.844 228.656 425.609 228.656 426.969Z" fill="#C3CAD6"/>
<rect x="303" y="408" width="160" height="36" rx="8" fill="#D5E6FF"/>
<path d="M371.75 432.156C369.125 432.156 367.594 430.047 367.594 426.344C367.594 422.672 369.156 420.531 371.75 420.531C374.344 420.531 375.906 422.672 375.906 426.344C375.906 430.047 374.359 432.156 371.75 432.156ZM371.75 430.672C373.281 430.672 374.188 429.172 374.188 426.344C374.188 423.531 373.266 421.984 371.75 421.984C370.234 421.984 369.312 423.531 369.312 426.344C369.312 429.172 370.219 430.672 371.75 430.672ZM378.375 432.109C377.766 432.109 377.25 431.609 377.266 431C377.25 430.391 377.766 429.891 378.375 429.891C378.969 429.891 379.484 430.391 379.484 431C379.484 431.609 378.969 432.109 378.375 432.109ZM385.141 432.156C383 432.156 381.391 430.844 381.312 429.047H382.984C383.078 430.016 384 430.719 385.141 430.719C386.516 430.719 387.5 429.719 387.5 428.375C387.5 427 386.484 426 385.062 425.984C384.156 425.984 383.469 426.281 383.078 426.984H381.453L382.188 420.688H388.594V422.156H383.609L383.234 425.328H383.344C383.812 424.875 384.609 424.562 385.469 424.562C387.594 424.562 389.172 426.141 389.172 428.328C389.172 430.562 387.5 432.156 385.141 432.156ZM392.688 426.969V432H391.016V420.688H392.656V424.906H392.766C393.172 423.984 393.953 423.406 395.281 423.406C397.031 423.406 398.188 424.484 398.188 426.609V432H396.516V426.812C396.516 425.562 395.844 424.844 394.719 424.844C393.547 424.844 392.688 425.609 392.688 426.969Z" fill="#C3CAD6"/>
<rect x="468" y="409" width="158" height="34" rx="7" fill="#1A59E1"/>
<rect x="468" y="409" width="158" height="34" rx="7" stroke="#FFD84D" stroke-width="2"/>
<path d="M531.422 429.797V428.406L536.422 420.688H538.547V428.344H540.094V429.797H538.547V432H536.922V429.797H531.422ZM533.234 428.344H536.922V422.734H536.797L533.234 428.25V428.344ZM542.516 432.109C541.906 432.109 541.391 431.609 541.406 431C541.391 430.391 541.906 429.891 542.516 429.891C543.109 429.891 543.625 430.391 543.625 431C543.625 431.609 543.109 432.109 542.516 432.109ZM545.625 432V430.75L549.547 426.797C550.781 425.5 551.406 424.781 551.406 423.797C551.406 422.688 550.5 421.969 549.312 421.969C548.062 421.969 547.25 422.766 547.25 423.969H545.625C545.609 421.906 547.188 420.531 549.344 420.531C551.531 420.531 553.031 421.906 553.047 423.75C553.031 425.016 552.438 426.016 550.312 428.109L548.016 430.438V430.531H553.234V432H545.625ZM556.828 426.969V432H555.156V420.688H556.797V424.906H556.906C557.312 423.984 558.094 423.406 559.422 423.406C561.172 423.406 562.328 424.484 562.328 426.609V432H560.656V426.812C560.656 425.562 559.984 424.844 558.859 424.844C557.688 424.844 556.828 425.609 556.828 426.969Z" fill="#C3CAD6"/>
<rect x="631" y="408" width="160" height="36" rx="8" fill="#4C82F7"/>
<path d="M699.766 432.156C697.422 432.156 695.75 430.891 695.688 429.047H697.438C697.5 430.047 698.484 430.672 699.75 430.672C701.109 430.672 702.109 429.922 702.109 428.828C702.109 427.719 701.172 426.906 699.562 426.906H698.594V425.5H699.562C700.844 425.5 701.75 424.781 701.75 423.703C701.75 422.672 700.984 421.969 699.781 421.969C698.641 421.969 697.641 422.594 697.594 423.625H695.938C695.984 421.781 697.688 420.531 699.797 420.531C702.016 420.531 703.422 421.938 703.406 423.609C703.422 424.891 702.625 425.828 701.406 426.125V426.203C702.953 426.422 703.844 427.453 703.844 428.891C703.844 430.781 702.109 432.156 699.766 432.156ZM706.5 432.109C705.891 432.109 705.375 431.609 705.391 431C705.375 430.391 705.891 429.891 706.5 429.891C707.094 429.891 707.609 430.391 707.609 431C707.609 431.609 707.094 432.109 706.5 432.109ZM713.125 432.156C710.5 432.156 708.969 430.047 708.969 426.344C708.969 422.672 710.531 420.531 713.125 420.531C715.719 420.531 717.281 422.672 717.281 426.344C717.281 430.047 715.734 432.156 713.125 432.156ZM713.125 430.672C714.656 430.672 715.562 429.172 715.562 426.344C715.562 423.531 714.641 421.984 713.125 421.984C711.609 421.984 710.688 423.531 710.688 426.344C710.688 429.172 711.594 430.672 713.125 430.672ZM720.75 426.969V432H719.078V420.688H720.719V424.906H720.828C721.234 423.984 722.016 423.406 723.344 423.406C725.094 423.406 726.25 424.484 726.25 426.609V432H724.578V426.812C724.578 425.562 723.906 424.844 722.781 424.844C721.609 424.844 720.75 425.609 720.75 426.969Z" fill="#C3CAD6"/>
<rect x="139" y="448" width="160" height="36" rx="8" fill="#F2F2F2"/>
<path d="M207.781 472.156C205.156 472.156 203.625 470.047 203.625 466.344C203.625 462.672 205.188 460.531 207.781 460.531C210.375 460.531 211.938 462.672 211.938 466.344C211.938 470.047 210.391 472.156 207.781 472.156ZM207.781 470.672C209.312 470.672 210.219 469.172 210.219 466.344C210.219 463.531 209.297 461.984 207.781 461.984C206.266 461.984 205.344 463.531 205.344 466.344C205.344 469.172 206.25 470.672 207.781 470.672ZM214.406 472.109C213.797 472.109 213.281 471.609 213.297 471C213.281 470.391 213.797 469.891 214.406 469.891C215 469.891 215.516 470.391 215.516 471C215.516 471.609 215 472.109 214.406 472.109ZM221.031 472.156C218.406 472.156 216.875 470.047 216.875 466.344C216.875 462.672 218.438 460.531 221.031 460.531C223.625 460.531 225.188 462.672 225.188 466.344C225.188 470.047 223.641 472.156 221.031 472.156ZM221.031 470.672C222.562 470.672 223.469 469.172 223.469 466.344C223.469 463.531 222.547 461.984 221.031 461.984C219.516 461.984 218.594 463.531 218.594 466.344C218.594 469.172 219.5 470.672 221.031 470.672ZM228.656 466.969V472H226.984V460.688H228.625V464.906H228.734C229.141 463.984 229.922 463.406 231.25 463.406C233 463.406 234.156 464.484 234.156 466.609V472H232.484V466.812C232.484 465.562 231.812 464.844 230.688 464.844C229.516 464.844 228.656 465.609 228.656 466.969Z" fill="#C3CAD6"/>
<rect x="303" y="448" width="160" height="36" rx="8" fill="#F2F2F2"/>
<path d="M371.781 472.156C369.156 472.156 367.625 470.047 367.625 466.344C367.625 462.672 369.188 460.531 371.781 460.531C374.375 460.531 375.938 462.672 375.938 466.344C375.938 470.047 374.391 472.156 371.781 472.156ZM371.781 470.672C373.312 470.672 374.219 469.172 374.219 466.344C374.219 463.531 373.297 461.984 371.781 461.984C370.266 461.984 369.344 463.531 369.344 466.344C369.344 469.172 370.25 470.672 371.781 470.672ZM378.406 472.109C377.797 472.109 377.281 471.609 377.297 471C377.281 470.391 377.797 469.891 378.406 469.891C379 469.891 379.516 470.391 379.516 471C379.516 471.609 379 472.109 378.406 472.109ZM385.031 472.156C382.406 472.156 380.875 470.047 380.875 466.344C380.875 462.672 382.438 460.531 385.031 460.531C387.625 460.531 389.188 462.672 389.188 466.344C389.188 470.047 387.641 472.156 385.031 472.156ZM385.031 470.672C386.562 470.672 387.469 469.172 387.469 466.344C387.469 463.531 386.547 461.984 385.031 461.984C383.516 461.984 382.594 463.531 382.594 466.344C382.594 469.172 383.5 470.672 385.031 470.672ZM392.656 466.969V472H390.984V460.688H392.625V464.906H392.734C393.141 463.984 393.922 463.406 395.25 463.406C397 463.406 398.156 464.484 398.156 466.609V472H396.484V466.812C396.484 465.562 395.812 464.844 394.688 464.844C393.516 464.844 392.656 465.609 392.656 466.969Z" fill="#C3CAD6"/>
<rect x="468" y="449" width="158" height="34" rx="7" fill="#1A59E1"/>
<rect x="468" y="449" width="158" height="34" rx="7" stroke="#FFD84D" stroke-width="2"/>
<path d="M531.102 469.797V468.406L536.102 460.688H538.227V468.344H539.773V469.797H538.227V472H536.602V469.797H531.102ZM532.914 468.344H536.602V462.734H536.477L532.914 468.25V468.344ZM542.195 472.109C541.586 472.109 541.07 471.609 541.086 471C541.07 470.391 541.586 469.891 542.195 469.891C542.789 469.891 543.305 470.391 543.305 471C543.305 471.609 542.789 472.109 542.195 472.109ZM545.055 469.797V468.406L550.055 460.688H552.18V468.344H553.727V469.797H552.18V472H550.555V469.797H545.055ZM546.867 468.344H550.555V462.734H550.43L546.867 468.25V468.344ZM557.148 466.969V472H555.477V460.688H557.117V464.906H557.227C557.633 463.984 558.414 463.406 559.742 463.406C561.492 463.406 562.648 464.484 562.648 466.609V472H560.977V466.812C560.977 465.562 560.305 464.844 559.18 464.844C558.008 464.844 557.148 465.609 557.148 466.969Z" fill="#C3CAD6"/>
<rect x="631" y="448" width="160" height="36" rx="8" fill="#4C82F7"/>
<path d="M699.734 472.156C697.391 472.156 695.719 470.891 695.656 469.047H697.406C697.469 470.047 698.453 470.672 699.719 470.672C701.078 470.672 702.078 469.922 702.078 468.828C702.078 467.719 701.141 466.906 699.531 466.906H698.562V465.5H699.531C700.812 465.5 701.719 464.781 701.719 463.703C701.719 462.672 700.953 461.969 699.75 461.969C698.609 461.969 697.609 462.594 697.562 463.625H695.906C695.953 461.781 697.656 460.531 699.766 460.531C701.984 460.531 703.391 461.938 703.375 463.609C703.391 464.891 702.594 465.828 701.375 466.125V466.203C702.922 466.422 703.812 467.453 703.812 468.891C703.812 470.781 702.078 472.156 699.734 472.156ZM706.469 472.109C705.859 472.109 705.344 471.609 705.359 471C705.344 470.391 705.859 469.891 706.469 469.891C707.062 469.891 707.578 470.391 707.578 471C707.578 471.609 707.062 472.109 706.469 472.109ZM709.578 472V470.75L713.5 466.797C714.734 465.5 715.359 464.781 715.359 463.797C715.359 462.688 714.453 461.969 713.266 461.969C712.016 461.969 711.203 462.766 711.203 463.969H709.578C709.562 461.906 711.141 460.531 713.297 460.531C715.484 460.531 716.984 461.906 717 463.75C716.984 465.016 716.391 466.016 714.266 468.109L711.969 470.438V470.531H717.188V472H709.578ZM720.781 466.969V472H719.109V460.688H720.75V464.906H720.859C721.266 463.984 722.047 463.406 723.375 463.406C725.125 463.406 726.281 464.484 726.281 466.609V472H724.609V466.812C724.609 465.562 723.938 464.844 722.812 464.844C721.641 464.844 720.781 465.609 720.781 466.969Z" fill="#C3CAD6"/>
<rect x="108" y="496" width="683" height="108" rx="20" fill="#EEF4FF"/>
<path d="M129.609 528.188V513.203H133.922V514.938H131.828V526.453H133.922V528.188H129.609ZM139.25 525L144.016 515.688V515.609H138.469V513.688H146.453V515.641L141.688 525H139.25ZM159.594 512.234V520.469H157.594V520.016H155.016V518.812H157.594V512.234H159.594ZM147.547 517.234C150.297 517.25 153.703 517.219 156.75 516.938L156.844 518.172C155.586 518.344 154.297 518.453 153.031 518.516V520.5H151.062V518.594C149.898 518.625 148.781 518.625 147.75 518.609L147.547 517.234ZM159.594 520.891V524.219H151.594V524.953H159.922V526.344H149.641V522.938H157.609V522.234H149.578V520.891H159.594ZM152.125 512.422C154.234 512.422 155.688 513.281 155.703 514.562C155.688 515.891 154.234 516.688 152.125 516.688C149.953 516.688 148.516 515.891 148.516 514.562C148.516 513.281 149.953 512.422 152.125 512.422ZM152.125 513.734C151.047 513.719 150.391 514.047 150.406 514.562C150.391 515.094 151.047 515.391 152.125 515.391C153.172 515.391 153.844 515.094 153.844 514.562C153.844 514.047 153.172 513.719 152.125 513.734ZM176.391 512.781V517.781H172.531V519.141H178.031V520.75H165.062V519.141H170.531V517.781H166.672V512.781H176.391ZM168.625 514.328V516.219H174.438V514.328H168.625ZM176.453 521.797V526.438H174.469V523.359H166.5V521.797H176.453ZM191.906 523.266V524.859H178.891V523.266H182.125V520.562H179.969V518.953H181.875V514.953H179.906V513.359H190.812V514.953H188.812V518.953H190.75V520.562H188.609V523.266H191.906ZM183.875 518.953H186.844V514.953H183.875V518.953ZM184.125 523.266H186.609V520.562H184.125V523.266ZM203.297 512.953V514.531H198.891V517.406C201.367 517.398 202.859 517.289 204.531 516.938L204.734 518.484C202.891 518.906 201.156 518.969 198.094 518.953H196.906V512.953H203.297ZM207.688 512.219V514.906H209.609V516.531H207.688V519.297H205.688V512.219H207.688ZM207.688 519.875V523.797H200.234V524.688H208.094V526.281H198.281V522.297H205.703V521.453H198.25V519.875H207.688ZM215.609 514.156C215.594 516.062 216.578 517.812 218.859 518.516L217.812 520.078C216.281 519.547 215.242 518.562 214.656 517.281C214.016 518.766 212.867 519.938 211.156 520.516L210.109 518.922C212.547 518.141 213.578 516.234 213.594 514.25V512.953H215.609V514.156ZM222.219 512.219V520.547H220.234V516.453H217.562V514.828H220.234V512.219H222.219ZM217.359 520.922C220.391 520.922 222.25 521.938 222.266 523.688C222.25 525.438 220.391 526.438 217.359 526.438C214.328 526.438 212.469 525.438 212.469 523.688C212.469 521.938 214.328 520.922 217.359 520.922ZM217.359 522.469C215.469 522.469 214.453 522.875 214.453 523.688C214.453 524.469 215.469 524.891 217.359 524.891C219.25 524.891 220.281 524.469 220.281 523.688C220.281 522.875 219.25 522.469 217.359 522.469ZM239.656 512.234V522.453H237.656V512.234H239.656ZM240.031 524.594V526.188H230.125V521.422H232.141V524.594H240.031ZM231.859 513.141C234.047 513.141 235.75 514.641 235.75 516.719C235.75 518.844 234.047 520.328 231.859 520.328C229.672 520.328 227.969 518.844 227.969 516.719C227.969 514.641 229.672 513.141 231.859 513.141ZM231.859 514.875C230.75 514.859 229.906 515.562 229.922 516.719C229.906 517.906 230.75 518.594 231.859 518.594C232.938 518.594 233.781 517.906 233.781 516.719C233.781 515.562 232.938 514.859 231.859 514.875ZM246.812 515.438C246.797 517.984 247.891 520.562 250.172 521.656L248.969 523.25C247.445 522.5 246.422 521.094 245.828 519.375C245.211 521.219 244.109 522.727 242.5 523.516L241.266 521.906C243.672 520.797 244.812 518.078 244.812 515.438V513.312H246.812V515.438ZM252.797 512.219V517.703H254.891V519.391H252.797V526.438H250.797V512.219H252.797ZM267.312 512.219V526.469H265.297V512.219H267.312ZM259.594 513.219C261.734 513.219 263.328 515.188 263.328 518.281C263.328 521.406 261.734 523.359 259.594 523.359C257.406 523.359 255.812 521.406 255.828 518.281C255.812 515.188 257.406 513.219 259.594 513.219ZM259.594 515.016C258.484 515.016 257.75 516.172 257.75 518.281C257.75 520.406 258.484 521.547 259.594 521.547C260.672 521.547 261.406 520.406 261.406 518.281C261.406 516.172 260.672 515.016 259.594 515.016ZM280.828 519.562V521.141H270.766V513.266H280.719V514.875H272.797V516.375H280.391V517.938H272.797V519.562H280.828ZM282.25 523.156V524.781H269.234V523.156H282.25ZM290.953 528.188H286.641V526.453H288.734V514.938H286.641V513.203H290.953V528.188Z" fill="#292C32"/>
<path d="M128 558.12H144V542.12H128V558.12ZM152.781 557.156C150.266 557.156 148.828 555.047 148.828 551.344C148.828 547.672 150.297 545.531 152.781 545.531C155.266 545.531 156.734 547.672 156.734 551.344C156.734 555.047 155.281 557.156 152.781 557.156ZM152.781 555.906C154.406 555.906 155.359 554.266 155.359 551.344C155.359 548.422 154.406 546.75 152.781 546.75C151.156 546.75 150.188 548.422 150.188 551.344C150.188 554.266 151.141 555.906 152.781 555.906ZM162.375 545.531C164.328 545.547 166.484 546.719 166.484 550.891C166.484 554.906 164.844 557.156 162.188 557.156C160.203 557.156 158.797 555.938 158.516 554.141H159.906C160.156 555.156 160.922 555.906 162.188 555.906C164.031 555.906 165.156 554.312 165.172 551.562H165.016C164.359 552.5 163.328 553.062 162.125 553.062C160.094 553.062 158.422 551.516 158.422 549.328C158.422 547.219 159.969 545.516 162.375 545.531ZM162.375 546.766C160.891 546.766 159.781 547.922 159.797 549.312C159.797 550.719 160.844 551.828 162.328 551.828C163.797 551.828 164.953 550.609 164.953 549.281C164.953 547.984 163.875 546.766 162.375 546.766ZM173.297 550.734V551.969H168.344V550.734H173.297ZM179.344 545.688V557H177.922V547.156H177.859L175.109 548.984V547.562L177.922 545.688H179.344ZM182.359 557L182.344 555.969L186.203 551.906C187.547 550.484 188.188 549.719 188.188 548.672C188.188 547.516 187.203 546.75 185.938 546.75C184.594 546.75 183.734 547.609 183.734 548.875H182.406C182.391 546.875 183.938 545.531 185.984 545.531C188.031 545.531 189.5 546.906 189.5 548.672C189.5 549.938 188.906 550.922 186.906 552.984L184.312 555.656V555.75H189.703V557H182.359ZM196.188 548.109C196.172 550.641 197.906 553.203 199.953 554.125L199.203 555.094C197.625 554.32 196.258 552.688 195.594 550.703C194.945 552.805 193.578 554.555 191.953 555.375L191.172 554.344C193.234 553.391 194.953 550.75 194.969 548.109V545.578H196.188V548.109ZM202.703 544.375V558.297H201.469V544.375H202.703ZM216.984 544.375V558.266H215.797V544.375H216.984ZM214.188 544.672V557.562H213.016V550.812H211.234C211.102 553.516 209.953 555.203 208.234 555.203C206.422 555.203 205.25 553.328 205.25 550.375C205.25 547.422 206.422 545.547 208.234 545.547C209.922 545.547 211.062 547.18 211.219 549.797H213.016V544.672H214.188ZM208.234 546.703C207.109 546.703 206.391 548.109 206.406 550.375C206.391 552.625 207.109 554.047 208.234 554.031C209.359 554.047 210.078 552.625 210.078 550.375C210.078 548.109 209.359 546.703 208.234 546.703ZM227.922 546.672C227.922 548.484 229.438 550.094 231.5 550.719L230.875 551.688C229.25 551.172 227.945 550.055 227.312 548.625C226.703 550.156 225.391 551.352 223.734 551.922L223.094 550.953C225.188 550.297 226.688 548.578 226.688 546.672V546.312H223.438V545.312H231.125V546.312H227.922V546.672ZM234.391 544.375V551.891H233.172V544.375H234.391ZM226.609 552.578V554.266H233.172V552.578H234.391V558.078H225.391V552.578H226.609ZM226.609 557.078H233.172V555.25H226.609V557.078ZM249.406 550.875V551.891H243.672V553.375C246.297 553.484 247.844 554.344 247.859 555.812C247.844 557.359 246.062 558.234 243.078 558.234C240.062 558.234 238.281 557.359 238.281 555.812C238.281 554.344 239.82 553.484 242.469 553.375V551.891H236.75V550.875H249.406ZM243.078 554.312C240.844 554.328 239.516 554.875 239.531 555.812C239.516 556.734 240.844 557.281 243.078 557.281C245.281 557.281 246.625 556.734 246.625 555.812C246.625 554.875 245.281 554.328 243.078 554.312ZM248.281 545.031V546.031H243.875C243.953 547.594 246.25 548.805 248.703 549.062L248.25 550.031C245.977 549.758 243.844 548.742 243.078 547.188C242.32 548.742 240.195 549.758 237.906 550.031L237.469 549.062C239.875 548.805 242.188 547.594 242.281 546.031H237.906V545.031H248.281ZM257.172 545.234V549.125H252.391V551.281C255 551.281 256.344 551.242 257.984 550.938L258.109 551.953C256.375 552.234 254.969 552.281 252.156 552.281H251.172V548.188H255.953V546.219H251.141V545.234H257.172ZM262.094 544.391V552.922H260.859V550.344H258.094V549.328H260.859V547.453H258.094V546.453H260.859V544.391H262.094ZM262.094 553.672V558.297H260.859V554.672H252.734V553.672H262.094ZM275.859 544.375V558.297H274.625V544.375H275.859ZM268.469 545.453C270.531 545.469 272.016 547.344 272.016 550.297C272.016 553.25 270.531 555.125 268.469 555.125C266.391 555.125 264.922 553.25 264.922 550.297C264.922 547.344 266.391 545.469 268.469 545.453ZM268.469 546.547C267.078 546.562 266.109 548.031 266.109 550.297C266.109 552.562 267.078 554.031 268.469 554.031C269.859 554.031 270.828 552.562 270.828 550.297C270.828 548.031 269.859 546.562 268.469 546.547ZM293 544.375V550.031H295.25V551.062H293V558.266H291.781V544.375H293ZM289.406 545.875C289.406 549.812 287.562 553.391 283.031 555.625L282.344 554.656C285.938 552.867 287.891 550.195 288.172 546.906H282.984V545.875H289.406ZM300.781 547.016C300.781 548.828 302.141 550.453 304.188 551.125L303.609 552.094C302.008 551.57 300.797 550.461 300.203 549.062C299.602 550.656 298.32 551.898 296.656 552.5L296.031 551.516C298.109 550.812 299.562 549.016 299.578 547.016V546.422H296.406V545.406H303.906V546.422H300.781V547.016ZM306.938 544.375V547.922H309.031V548.953H306.938V552.766H305.719V544.375H306.938ZM302.484 553.141C305.344 553.141 307.062 554.078 307.062 555.672C307.062 557.297 305.344 558.234 302.484 558.234C299.625 558.234 297.875 557.297 297.875 555.672C297.875 554.078 299.625 553.141 302.484 553.141ZM302.484 554.125C300.391 554.125 299.094 554.703 299.109 555.672C299.094 556.672 300.391 557.25 302.484 557.25C304.594 557.25 305.875 556.672 305.875 555.672C305.875 554.703 304.594 554.125 302.484 554.125ZM325.172 547.969V548.953H320.859V550.719H326.578V551.734H313.922V550.719H319.641V548.953H315.656V544.688H316.875V547.969H325.172ZM325.188 553.125V554.109H323.031V557.078H325.297V558.078H315.219V557.078H317.484V554.109H315.344V553.125H325.188ZM318.703 557.078H321.828V554.109H318.703V557.078ZM331.469 545.453C333.516 545.469 334.969 547.344 334.984 550.297C334.969 553.25 333.516 555.125 331.469 555.125C329.406 555.125 327.969 553.25 327.969 550.297C327.969 547.344 329.406 545.469 331.469 545.453ZM331.469 546.547C330.094 546.562 329.125 548.031 329.125 550.297C329.125 552.562 330.094 554.031 331.469 554.031C332.859 554.031 333.797 552.562 333.797 550.297C333.797 548.031 332.859 546.562 331.469 546.547ZM338.5 544.375V549.922H340.828V550.984H338.5V558.266H337.281V544.375H338.5ZM354.297 555.453V556.484H341.578V555.453H344.734V551.703C343.547 551.086 342.828 550.086 342.828 548.828C342.828 546.672 344.938 545.266 347.906 545.25C350.875 545.266 352.984 546.672 352.984 548.828C352.984 550.062 352.289 551.055 351.141 551.672V555.453H354.297ZM347.906 546.266C345.625 546.25 344.016 547.281 344.016 548.828C344.016 550.375 345.625 551.422 347.906 551.422C350.172 551.422 351.797 550.375 351.797 548.828C351.797 547.281 350.172 546.25 347.906 546.266ZM345.938 555.453H349.906V552.141C349.305 552.305 348.633 552.391 347.906 552.391C347.195 552.391 346.531 552.312 345.938 552.156V555.453ZM356.875 557.094C356.328 557.094 355.859 556.641 355.875 556.078C355.859 555.531 356.328 555.078 356.875 555.078C357.422 555.078 357.875 555.531 357.875 556.078C357.875 556.641 357.422 557.094 356.875 557.094ZM376.109 550.875V551.891H370.375V553.375C373 553.484 374.547 554.344 374.562 555.812C374.547 557.359 372.766 558.234 369.781 558.234C366.766 558.234 364.984 557.359 364.984 555.812C364.984 554.344 366.523 553.484 369.172 553.375V551.891H363.453V550.875H376.109ZM369.781 554.312C367.547 554.328 366.219 554.875 366.234 555.812C366.219 556.734 367.547 557.281 369.781 557.281C371.984 557.281 373.328 556.734 373.328 555.812C373.328 554.875 371.984 554.328 369.781 554.312ZM374.984 545.031V546.031H370.578C370.656 547.594 372.953 548.805 375.406 549.062L374.953 550.031C372.68 549.758 370.547 548.742 369.781 547.188C369.023 548.742 366.898 549.758 364.609 550.031L364.172 549.062C366.578 548.805 368.891 547.594 368.984 546.031H364.609V545.031H374.984ZM390 555.453V556.484H377.281V555.453H380.438V551.703C379.25 551.086 378.531 550.086 378.531 548.828C378.531 546.672 380.641 545.266 383.609 545.25C386.578 545.266 388.688 546.672 388.688 548.828C388.688 550.062 387.992 551.055 386.844 551.672V555.453H390ZM383.609 546.266C381.328 546.25 379.719 547.281 379.719 548.828C379.719 550.375 381.328 551.422 383.609 551.422C385.875 551.422 387.5 550.375 387.5 548.828C387.5 547.281 385.875 546.25 383.609 546.266ZM381.641 555.453H385.609V552.141C385.008 552.305 384.336 552.391 383.609 552.391C382.898 552.391 382.234 552.312 381.641 552.156V555.453ZM401.969 544.391V548.969H404.062V550H401.969V554.797H400.75V544.391H401.969ZM399.422 546.094V547.094H391.141V546.094H394.672V544.391H395.891V546.094H399.422ZM395.281 547.859C397.266 547.859 398.609 548.875 398.625 550.453C398.609 552.016 397.266 553.016 395.281 553.016C393.281 553.016 391.922 552.016 391.938 550.453C391.922 548.875 393.281 547.859 395.281 547.859ZM395.281 548.828C393.969 548.828 393.094 549.469 393.109 550.453C393.094 551.438 393.969 552.062 395.281 552.047C396.578 552.062 397.453 551.438 397.469 550.453C397.453 549.469 396.578 548.828 395.281 548.828ZM402.609 556.938V557.969H393.281V553.969H394.484V556.938H402.609ZM412.891 544.891C414.969 544.906 416.484 546.156 416.484 547.969C416.484 549.781 414.969 551.031 412.891 551.031C410.781 551.031 409.281 549.781 409.281 547.969C409.281 546.156 410.781 544.906 412.891 544.891ZM412.891 545.922C411.5 545.922 410.469 546.766 410.484 547.969C410.469 549.188 411.5 550.031 412.891 550.031C414.266 550.031 415.297 549.188 415.297 547.969C415.297 546.766 414.266 545.922 412.891 545.922ZM420.422 544.375V551.516H419.203V544.375H420.422ZM420.422 552.188V555.531H412.625V557.094H420.922V558.078H411.422V554.609H419.203V553.172H411.391V552.188H420.422ZM435.438 551.703V552.703H422.781V551.703H435.438ZM434.031 556.938V557.969H424.422V553.922H425.656V556.938H434.031ZM429.109 544.875C432.094 544.859 434.016 545.891 434.016 547.625C434.016 549.359 432.094 550.391 429.109 550.391C426.094 550.391 424.188 549.359 424.188 547.625C424.188 545.891 426.094 544.859 429.109 544.875ZM429.109 545.859C426.875 545.859 425.438 546.531 425.453 547.625C425.438 548.719 426.875 549.391 429.109 549.391C431.328 549.391 432.766 548.719 432.766 547.625C432.766 546.531 431.328 545.859 429.109 545.859ZM452.078 544.375V558.297H450.844V544.375H452.078ZM444.688 545.453C446.75 545.469 448.234 547.344 448.234 550.297C448.234 553.25 446.75 555.125 444.688 555.125C442.609 555.125 441.141 553.25 441.141 550.297C441.141 547.344 442.609 545.469 444.688 545.453ZM444.688 546.547C443.297 546.562 442.328 548.031 442.328 550.297C442.328 552.562 443.297 554.031 444.688 554.031C446.078 554.031 447.047 552.562 447.047 550.297C447.047 548.031 446.078 546.562 444.688 546.547ZM463.656 544.688V550.062H465.344V544.375H466.516V558.266H465.344V551.078H463.656V557.578H462.516V544.688H463.656ZM457.891 546.141V547.156H456.016V553.594C456.539 553.578 457.227 553.516 457.984 553.328L458.094 554.375C456.922 554.641 456.016 554.641 455.422 554.641H454.875V546.141H457.891ZM461.578 546.141V547.156H459.609V553.594C460.258 553.586 461.031 553.523 461.875 553.281L461.984 554.328C460.828 554.641 459.875 554.641 459.062 554.641H458.5V546.141H461.578ZM477.297 547.359C477.297 549.234 478.781 550.922 480.859 551.578L480.234 552.562C478.617 552.016 477.328 550.875 476.703 549.406C476.094 550.992 474.789 552.242 473.141 552.844L472.5 551.859C474.578 551.125 476.062 549.328 476.062 547.359V546.547H472.812V545.547H480.5V546.547H477.297V547.359ZM483.766 544.391V554.578H482.547V544.391H483.766ZM484.203 556.938V557.969H474.797V553.609H476.016V556.938H484.203ZM497.922 544.375V553.172H496.75V549.188H494.891V552.672H493.734V544.656H494.891V548.172H496.75V544.375H497.922ZM493.172 546.047V547.031H486.047V546.047H489.016V544.484H490.234V546.047H493.172ZM489.625 547.781C491.391 547.781 492.594 548.703 492.609 550.156C492.594 551.578 491.391 552.516 489.625 552.516C487.875 552.516 486.641 551.578 486.656 550.156C486.641 548.703 487.875 547.781 489.625 547.781ZM489.625 548.688C488.516 548.688 487.75 549.281 487.75 550.156C487.75 551.016 488.516 551.594 489.625 551.594C490.734 551.594 491.5 551.016 491.5 550.156C491.5 549.281 490.734 548.688 489.625 548.688ZM493.328 553.406C496.25 553.406 498 554.281 498 555.844C498 557.359 496.25 558.234 493.328 558.234C490.406 558.234 488.656 557.359 488.672 555.844C488.656 554.281 490.406 553.406 493.328 553.406ZM493.328 554.375C491.172 554.359 489.875 554.891 489.891 555.844C489.875 556.75 491.172 557.281 493.328 557.281C495.484 557.281 496.766 556.75 496.781 555.844C496.766 554.891 495.484 554.359 493.328 554.375ZM510.906 546.781V547.781H503.938V546.781H506.828V544.797H508.047V546.781H510.906ZM507.422 548.719C509.172 548.719 510.422 550.031 510.438 551.875C510.422 553.734 509.172 555.062 507.422 555.062C505.688 555.062 504.438 553.734 504.438 551.875C504.438 550.031 505.688 548.719 507.422 548.719ZM507.422 549.75C506.328 549.766 505.531 550.656 505.531 551.875C505.531 553.109 506.328 554 507.422 553.984C508.531 554 509.344 553.109 509.344 551.875C509.344 550.656 508.531 549.766 507.422 549.75ZM515.797 544.375V558.266H514.625V551.25H512.781V557.578H511.625V544.719H512.781V550.234H514.625V544.375H515.797ZM521.516 545.453C523.562 545.469 525.016 547.344 525.031 550.297C525.016 553.25 523.562 555.125 521.516 555.125C519.453 555.125 518.016 553.25 518.016 550.297C518.016 547.344 519.453 545.469 521.516 545.453ZM521.516 546.547C520.141 546.562 519.172 548.031 519.172 550.297C519.172 552.562 520.141 554.031 521.516 554.031C522.906 554.031 523.844 552.562 523.844 550.297C523.844 548.031 522.906 546.562 521.516 546.547ZM530.797 547.875V548.922H528.547V552.016H530.797V553.047H528.547V558.266H527.328V544.375H528.547V547.875H530.797ZM547.641 546.453V547.469H536.266V546.453H541.359V544.609H542.562V546.453H547.641ZM548.359 555.656V556.672H535.641V555.656H539V553.078C537.969 552.641 537.398 551.93 537.406 550.984C537.391 549.328 539.141 548.375 541.969 548.375C544.781 548.375 546.531 549.328 546.531 550.984C546.531 551.93 545.953 552.648 544.922 553.078V555.656H548.359ZM541.969 549.344C539.891 549.344 538.625 549.953 538.641 550.984C538.625 552 539.891 552.609 541.969 552.609C544.016 552.609 545.281 552 545.281 550.984C545.281 549.953 544.016 549.344 541.969 549.344ZM540.234 555.656H543.719V553.422C543.195 553.531 542.609 553.578 541.969 553.578C541.336 553.578 540.75 553.531 540.234 553.438V555.656ZM555.797 544.547C558.891 544.547 560.703 545.406 560.703 546.953C560.703 548.516 558.891 549.359 555.797 549.375C552.703 549.359 550.875 548.516 550.875 546.953C550.875 545.406 552.703 544.547 555.797 544.547ZM555.797 545.484C553.484 545.5 552.141 546.031 552.156 546.953C552.141 547.906 553.484 548.422 555.797 548.438C558.094 548.422 559.453 547.906 559.453 546.953C559.453 546.031 558.094 545.5 555.797 545.484ZM562.125 550.219V551.219H558.594V552.594H560.5V555.703H552.25V557.141H560.922V558.109H551.031V554.797H559.297V553.531H551V552.594H552.922V551.219H549.469V550.219H562.125ZM554.125 552.594H557.375V551.219H554.125V552.594ZM574.75 544.375V558.297H573.516V544.375H574.75ZM567.359 545.453C569.422 545.469 570.906 547.344 570.906 550.297C570.906 553.25 569.422 555.125 567.359 555.125C565.281 555.125 563.812 553.25 563.812 550.297C563.812 547.344 565.281 545.469 567.359 545.453ZM567.359 546.547C565.969 546.562 565 548.031 565 550.297C565 552.562 565.969 554.031 567.359 554.031C568.75 554.031 569.719 552.562 569.719 550.297C569.719 548.031 568.75 546.562 567.359 546.547ZM587.469 544.547C590.562 544.547 592.375 545.406 592.375 546.953C592.375 548.414 590.789 549.25 588.047 549.359V550.422H593.797V551.422H581.141V550.422H586.844V549.359C584.133 549.242 582.547 548.406 582.547 546.953C582.547 545.406 584.375 544.547 587.469 544.547ZM587.469 545.484C585.156 545.5 583.812 546.031 583.828 546.953C583.812 547.906 585.156 548.422 587.469 548.438C589.766 548.422 591.125 547.906 591.125 546.953C591.125 546.031 589.766 545.5 587.469 545.484ZM592.172 552.594V555.703H583.922V557.141H592.594V558.109H582.703V554.797H590.969V553.547H582.672V552.594H592.172ZM605.719 544.375V549.906H608.047V550.938H605.719V558.297H604.5V544.375H605.719ZM601.828 545.672V550.641H596.766V553.891C599.344 553.891 601.141 553.805 603.25 553.406L603.375 554.422C601.188 554.828 599.328 554.922 596.656 554.938H595.547V549.625H600.609V546.688H595.516V545.672H601.828ZM619.547 544.375V550.031H621.797V551.062H619.547V558.266H618.328V544.375H619.547ZM615.953 545.875C615.953 549.812 614.109 553.391 609.578 555.625L608.891 554.656C612.484 552.867 614.438 550.195 614.719 546.906H609.531V545.875H615.953ZM635.344 555.453V556.484H622.625V555.453H625.781V551.703C624.594 551.086 623.875 550.086 623.875 548.828C623.875 546.672 625.984 545.266 628.953 545.25C631.922 545.266 634.031 546.672 634.031 548.828C634.031 550.062 633.336 551.055 632.188 551.672V555.453H635.344ZM628.953 546.266C626.672 546.25 625.062 547.281 625.062 548.828C625.062 550.375 626.672 551.422 628.953 551.422C631.219 551.422 632.844 550.375 632.844 548.828C632.844 547.281 631.219 546.25 628.953 546.266ZM626.984 555.453H630.953V552.141C630.352 552.305 629.68 552.391 628.953 552.391C628.242 552.391 627.578 552.312 626.984 552.156V555.453ZM638.703 545.688L638.594 553.812H637.281L637.172 545.688H638.703ZM637.938 557.094C637.391 557.094 636.922 556.641 636.938 556.078C636.922 555.531 637.391 555.078 637.938 555.078C638.484 555.078 638.938 555.531 638.938 556.078C638.938 556.641 638.484 557.094 637.938 557.094Z" fill="#292C32"/>
<path d="M128 589.12H144V573.12H128V589.12ZM159.828 582.609V583.609H155.516V586.516H161.297V587.531H148.578V586.516H154.297V583.609H150.219V576.516H159.672V577.531H151.469V579.516H159.375V580.516H151.469V582.609H159.828ZM166.953 576.156L163.297 589.703H162.078L165.719 576.156H166.953ZM171.688 575.891C173.766 575.906 175.281 577.156 175.281 578.969C175.281 580.781 173.766 582.031 171.688 582.031C169.578 582.031 168.078 580.781 168.078 578.969C168.078 577.156 169.578 575.906 171.688 575.891ZM171.688 576.922C170.297 576.922 169.266 577.766 169.281 578.969C169.266 580.188 170.297 581.031 171.688 581.031C173.062 581.031 174.094 580.188 174.094 578.969C174.094 577.766 173.062 576.922 171.688 576.922ZM179.219 575.375V582.516H178V575.375H179.219ZM179.219 583.188V586.531H171.422V588.094H179.719V589.078H170.219V585.609H178V584.172H170.188V583.188H179.219ZM196.453 584.156V589.078H187.688V584.156H196.453ZM188.891 585.156V588.078H195.234V585.156H188.891ZM196.453 575.375V578.703H198.547V579.734H196.453V583.391H195.234V575.375H196.453ZM187.391 576.094V578.219H191.438V576.094H192.656V582.516H186.188V576.094H187.391ZM187.391 581.5H191.438V579.188H187.391V581.5ZM210.875 575.375V589.297H209.641V575.375H210.875ZM203.484 576.453C205.547 576.469 207.031 578.344 207.031 581.297C207.031 584.25 205.547 586.125 203.484 586.125C201.406 586.125 199.938 584.25 199.938 581.297C199.938 578.344 201.406 576.469 203.484 576.453ZM203.484 577.547C202.094 577.562 201.125 579.031 201.125 581.297C201.125 583.562 202.094 585.031 203.484 585.031C204.875 585.031 205.844 583.562 205.844 581.297C205.844 579.031 204.875 577.562 203.484 577.547ZM228.312 575.953V576.844C228.312 577.75 228.312 578.812 228.047 580.156L226.828 580.031C227.086 578.758 227.094 577.812 227.094 576.953H218.781V575.953H228.312ZM229.922 580.922V581.922H217.281V580.922H222.516V578.516H223.719V580.922H229.922ZM228.359 583.219V586.516H220.031V588.109H228.719V589.109H218.797V585.641H227.141V584.219H218.781V583.219H228.359ZM243.766 582.391V583.391H231.094V582.391H243.766ZM242.312 579.844V580.859H232.703V575.984H242.188V576.984H233.922V579.844H242.312ZM242.422 587.922V588.953H232.734V584.891H233.953V587.922H242.422ZM252.047 576.641V577.672H246.766V580.547H251.734V581.547H246.766V584.906C249.266 584.906 251.023 584.805 253.109 584.453L253.25 585.469C251.078 585.828 249.25 585.906 246.625 585.922H245.531V576.641H252.047ZM255.672 575.375V580.969H258V582.016H255.672V589.266H254.453V575.375H255.672ZM270.219 575.391V583.328H269V575.391H270.219ZM270.219 584.078V589.078H261.188V584.078H270.219ZM262.391 585.078V588.078H269.016V585.078H262.391ZM262.719 576.125C264.828 576.125 266.359 577.438 266.359 579.375C266.359 581.281 264.828 582.609 262.719 582.609C260.609 582.609 259.078 581.281 259.078 579.375C259.078 577.438 260.609 576.125 262.719 576.125ZM262.719 577.172C261.297 577.156 260.266 578.078 260.281 579.375C260.266 580.656 261.297 581.562 262.719 581.562C264.125 581.562 265.156 580.656 265.156 579.375C265.156 578.078 264.125 577.156 262.719 577.172ZM274.828 576.688L274.719 584.812H273.406L273.297 576.688H274.828ZM274.062 588.094C273.516 588.094 273.047 587.641 273.062 587.078C273.047 586.531 273.516 586.078 274.062 586.078C274.609 586.078 275.062 586.531 275.062 587.078C275.062 587.641 274.609 588.094 274.062 588.094ZM288.5 576.438V577.453H287.078V581.891C287.727 581.852 288.352 581.797 288.953 581.719L289.016 582.656C286.312 583.078 283.141 583.109 280.891 583.109L280.734 582.078L282.531 582.062V577.453H281.125V576.438H288.5ZM292.219 575.375V583.953H290.984V581.375H288.641V580.359H290.984V578.891H288.641V577.875H290.984V575.375H292.219ZM287.609 584.25C290.516 584.25 292.266 585.156 292.266 586.734C292.266 588.328 290.516 589.234 287.609 589.234C284.703 589.234 282.953 588.328 282.953 586.734C282.953 585.156 284.703 584.25 287.609 584.25ZM287.609 585.203C285.469 585.203 284.156 585.781 284.172 586.734C284.156 587.703 285.469 588.266 287.609 588.266C289.75 588.266 291.047 587.703 291.047 586.734C291.047 585.781 289.75 585.203 287.609 585.203ZM283.719 582.047C284.43 582.031 285.164 582.008 285.891 581.969V577.453H283.719V582.047ZM305.578 576.141V577.188C305.578 578.297 305.578 579.602 305.25 581.344H307.25V582.359H303.688V585.719H302.5V582.359H299.953V585.719H298.75V582.359H294.531V581.344H304.031C304.359 579.586 304.359 578.297 304.359 577.188V577.141H296.141V576.141H305.578ZM305.953 587.938V588.969H296.094V584.625H297.312V587.938H305.953ZM316.562 588.156C314.516 588.156 312.969 586.891 312.891 585.156H314.25C314.359 586.172 315.344 586.922 316.562 586.922C318.031 586.922 319.094 585.844 319.094 584.422C319.094 582.953 317.984 581.875 316.469 581.859C315.516 581.844 314.781 582.141 314.359 582.875H313L313.797 576.688H319.922V577.938H314.969L314.547 581.25H314.656C315.156 580.859 315.922 580.594 316.719 580.594C318.875 580.594 320.469 582.188 320.469 584.391C320.469 586.578 318.812 588.156 316.562 588.156ZM326.859 579.109C326.844 581.641 328.578 584.203 330.625 585.125L329.875 586.094C328.297 585.32 326.93 583.688 326.266 581.703C325.617 583.805 324.25 585.555 322.625 586.375L321.844 585.344C323.906 584.391 325.625 581.75 325.641 579.109V576.578H326.859V579.109ZM333.375 575.375V589.297H332.141V575.375H333.375ZM346.609 575.375V579.609H348.703V580.641H346.609V585.547H345.375V575.375H346.609ZM342.859 576.453C342.859 580.031 340.297 582.688 336.297 583.938L335.766 582.953C339.094 581.914 341.266 579.93 341.531 577.484H336.344V576.453H342.859ZM347.25 587.938V588.969H337.906V584.516H339.125V587.938H347.25ZM358.094 576.688V588H356.672V578.156H356.609L353.859 579.984V578.562L356.672 576.688H358.094ZM364.812 588.156C362.297 588.156 360.859 586.047 360.859 582.344C360.859 578.672 362.328 576.531 364.812 576.531C367.297 576.531 368.766 578.672 368.766 582.344C368.766 586.047 367.312 588.156 364.812 588.156ZM364.812 586.906C366.438 586.906 367.391 585.266 367.391 582.344C367.391 579.422 366.438 577.75 364.812 577.75C363.188 577.75 362.219 579.422 362.219 582.344C362.219 585.266 363.172 586.906 364.812 586.906ZM382.844 582.734V583.734H377.188V586.453H375.969V583.734H370.125V582.734H382.844ZM381.422 587.938V588.969H371.75V585.172H372.969V587.938H381.422ZM373.047 575.828V577.609H379.922V575.828H381.141V581.375H371.828V575.828H373.047ZM373.047 580.375H379.922V578.547H373.047V580.375ZM399.125 576.781V578.172C399.109 579.875 399.109 581.781 398.609 584.578L397.359 584.438C397.891 581.781 397.891 579.828 397.891 578.172V577.797H389.328V576.781H399.125ZM400.641 586.281V587.297H387.984V586.281H392.953V581.312H394.156V586.281H400.641ZM413.031 581.891V582.891H408.734V586.484H414.531V587.516H401.812V586.484H407.531V582.891H403.438V576.516H412.891V577.516H404.672V581.891H413.031ZM420.641 577.672C420.641 579.484 422.156 581.094 424.219 581.719L423.594 582.688C421.969 582.172 420.664 581.055 420.031 579.625C419.422 581.156 418.109 582.352 416.453 582.922L415.812 581.953C417.906 581.297 419.406 579.578 419.406 577.672V577.312H416.156V576.312H423.844V577.312H420.641V577.672ZM427.109 575.375V582.891H425.891V575.375H427.109ZM419.328 583.578V585.266H425.891V583.578H427.109V589.078H418.109V583.578H419.328ZM419.328 588.078H425.891V586.25H419.328V588.078ZM442.125 581.875V582.891H436.391V584.375C439.016 584.484 440.562 585.344 440.578 586.812C440.562 588.359 438.781 589.234 435.797 589.234C432.781 589.234 431 588.359 431 586.812C431 585.344 432.539 584.484 435.188 584.375V582.891H429.469V581.875H442.125ZM435.797 585.312C433.562 585.328 432.234 585.875 432.25 586.812C432.234 587.734 433.562 588.281 435.797 588.281C438 588.281 439.344 587.734 439.344 586.812C439.344 585.875 438 585.328 435.797 585.312ZM441 576.031V577.031H436.594C436.672 578.594 438.969 579.805 441.422 580.062L440.969 581.031C438.695 580.758 436.562 579.742 435.797 578.188C435.039 579.742 432.914 580.758 430.625 581.031L430.188 580.062C432.594 579.805 434.906 578.594 435 577.031H430.625V576.031H441ZM445.547 576.688L445.438 584.812H444.125L444.016 576.688H445.547ZM444.781 588.094C444.234 588.094 443.766 587.641 443.781 587.078C443.766 586.531 444.234 586.078 444.781 586.078C445.328 586.078 445.781 586.531 445.781 587.078C445.781 587.641 445.328 588.094 444.781 588.094Z" fill="#292C32"/>
</g>
<defs>
<filter id="filter0_d_1326_71322" x="46" y="60" width="808" height="612" filterUnits="userSpaceOnUse" color-interpolation-filters="sRGB">
<feFlood flood-opacity="0" result="BackgroundImageFix"/>
<feColorMatrix in="SourceAlpha" type="matrix" values="0 0 0 0 0 0 0 0 0 0 0 0 0 0 0 0 0 0 127 0" result="hardAlpha"/>
<feMorphology radius="4" operator="erode" in="SourceAlpha" result="effect1_dropShadow_1326_71322"/>
<feOffset dy="16"/>
<feGaussianBlur stdDeviation="16"/>
<feComposite in2="hardAlpha" operator="out"/>
<feColorMatrix type="matrix" values="0 0 0 0 0.764706 0 0 0 0 0.792157 0 0 0 0 0.839216 0 0 0 0.3 0"/>
<feBlend mode="normal" in2="BackgroundImageFix" result="effect1_dropShadow_1326_71322"/>
<feBlend mode="normal" in="SourceGraphic" in2="effect1_dropShadow_1326_71322" result="shape"/>
</filter>
</defs>
</svg>
