<svg width="900" height="700" viewBox="0 0 900 700" fill="none" xmlns="http://www.w3.org/2000/svg">
<g clip-path="url(#clip0_1326_71331)">
<rect width="900" height="700" rx="20" fill="#F4F7FB"/>
<g filter="url(#filter0_d_1326_71331)">
<rect x="160" y="70" width="520" height="660.4" rx="20.8" fill="white"/>
<g clip-path="url(#clip1_1326_71331)">
<path d="M208.1 111.4L202.033 117.476L208.083 123.534" stroke="#515660" stroke-width="1.73333" stroke-linecap="round" stroke-linejoin="round"/>
<g clip-path="url(#clip2_1326_71331)">
<mask id="path-4-outside-1_1326_71331" maskUnits="userSpaceOnUse" x="226.046" y="107.244" width="20" height="20" fill="black">
<rect fill="white" x="226.046" y="107.244" width="20" height="20"/>
<path fill-rule="evenodd" clip-rule="evenodd" d="M236.267 108.244C236.084 108.244 235.907 108.317 235.777 108.447C235.647 108.577 235.574 108.754 235.574 108.937V111.949C235.574 112.133 235.647 112.31 235.777 112.44C235.907 112.57 236.084 112.643 236.267 112.643C236.451 112.643 236.628 112.57 236.758 112.44C236.888 112.31 236.961 112.133 236.961 111.949V109.661C238.709 109.817 240.354 110.555 241.633 111.757C242.912 112.959 243.75 114.556 244.013 116.292C244.276 118.027 243.949 119.8 243.083 121.327C242.218 122.855 240.865 124.047 239.241 124.713C237.618 125.38 235.817 125.481 234.129 125.002C232.44 124.523 230.961 123.491 229.929 122.071C228.897 120.652 228.372 118.926 228.438 117.172C228.503 115.419 229.156 113.737 230.291 112.399C230.353 112.33 230.4 112.249 230.43 112.161C230.461 112.074 230.473 111.981 230.467 111.889C230.46 111.796 230.436 111.706 230.394 111.623C230.352 111.541 230.294 111.467 230.224 111.407C230.153 111.347 230.071 111.302 229.983 111.274C229.894 111.246 229.801 111.237 229.709 111.245C229.617 111.254 229.527 111.281 229.446 111.325C229.364 111.369 229.292 111.429 229.234 111.501C227.875 113.104 227.105 115.122 227.049 117.222C226.994 119.322 227.657 121.379 228.93 123.05C230.202 124.722 232.007 125.909 234.046 126.415C236.085 126.921 238.236 126.716 240.142 125.833C242.049 124.95 243.597 123.443 244.53 121.56C245.462 119.678 245.725 117.533 245.273 115.481C244.821 113.43 243.681 111.594 242.044 110.278C240.406 108.962 238.368 108.244 236.267 108.244ZM235.214 118.27L231.725 113.407C231.678 113.34 231.657 113.259 231.664 113.178C231.671 113.097 231.707 113.021 231.764 112.964C231.822 112.906 231.898 112.871 231.979 112.863C232.06 112.856 232.14 112.878 232.207 112.924L237.073 116.412C237.23 116.524 237.36 116.67 237.455 116.838C237.549 117.006 237.607 117.192 237.622 117.385C237.638 117.577 237.611 117.77 237.545 117.951C237.478 118.132 237.373 118.297 237.237 118.433C237.1 118.57 236.936 118.675 236.755 118.741C236.574 118.808 236.38 118.834 236.188 118.819C235.996 118.803 235.809 118.746 235.641 118.651C235.473 118.556 235.328 118.426 235.215 118.27"/>
</mask>
<path fill-rule="evenodd" clip-rule="evenodd" d="M236.267 108.244C236.084 108.244 235.907 108.317 235.777 108.447C235.647 108.577 235.574 108.754 235.574 108.937V111.949C235.574 112.133 235.647 112.31 235.777 112.44C235.907 112.57 236.084 112.643 236.267 112.643C236.451 112.643 236.628 112.57 236.758 112.44C236.888 112.31 236.961 112.133 236.961 111.949V109.661C238.709 109.817 240.354 110.555 241.633 111.757C242.912 112.959 243.75 114.556 244.013 116.292C244.276 118.027 243.949 119.8 243.083 121.327C242.218 122.855 240.865 124.047 239.241 124.713C237.618 125.38 235.817 125.481 234.129 125.002C232.44 124.523 230.961 123.491 229.929 122.071C228.897 120.652 228.372 118.926 228.438 117.172C228.503 115.419 229.156 113.737 230.291 112.399C230.353 112.33 230.4 112.249 230.43 112.161C230.461 112.074 230.473 111.981 230.467 111.889C230.46 111.796 230.436 111.706 230.394 111.623C230.352 111.541 230.294 111.467 230.224 111.407C230.153 111.347 230.071 111.302 229.983 111.274C229.894 111.246 229.801 111.237 229.709 111.245C229.617 111.254 229.527 111.281 229.446 111.325C229.364 111.369 229.292 111.429 229.234 111.501C227.875 113.104 227.105 115.122 227.049 117.222C226.994 119.322 227.657 121.379 228.93 123.05C230.202 124.722 232.007 125.909 234.046 126.415C236.085 126.921 238.236 126.716 240.142 125.833C242.049 124.95 243.597 123.443 244.53 121.56C245.462 119.678 245.725 117.533 245.273 115.481C244.821 113.43 243.681 111.594 242.044 110.278C240.406 108.962 238.368 108.244 236.267 108.244ZM235.214 118.27L231.725 113.407C231.678 113.34 231.657 113.259 231.664 113.178C231.671 113.097 231.707 113.021 231.764 112.964C231.822 112.906 231.898 112.871 231.979 112.863C232.06 112.856 232.14 112.878 232.207 112.924L237.073 116.412C237.23 116.524 237.36 116.67 237.455 116.838C237.549 117.006 237.607 117.192 237.622 117.385C237.638 117.577 237.611 117.77 237.545 117.951C237.478 118.132 237.373 118.297 237.237 118.433C237.1 118.57 236.936 118.675 236.755 118.741C236.574 118.808 236.38 118.834 236.188 118.819C235.996 118.803 235.809 118.746 235.641 118.651C235.473 118.556 235.328 118.426 235.215 118.27" fill="#515660"/>
<path d="M236.267 108.244L236.267 107.811H236.267V108.244ZM236.961 109.661L236.999 109.23L236.527 109.188V109.661H236.961ZM230.291 112.399L229.968 112.109L229.96 112.118L230.291 112.399ZM229.234 111.501L229.565 111.782L229.572 111.773L229.234 111.501ZM231.725 113.407L231.369 113.654L231.373 113.659L231.725 113.407ZM232.207 112.924L232.46 112.572L232.455 112.568L232.207 112.924ZM237.073 116.412L237.326 116.06L237.326 116.059L237.073 116.412ZM236.267 108.244V107.811C235.969 107.811 235.682 107.93 235.471 108.141L235.777 108.447L236.084 108.754C236.132 108.705 236.198 108.677 236.267 108.677V108.244ZM235.777 108.447L235.471 108.141C235.259 108.352 235.141 108.639 235.141 108.937H235.574H236.007C236.007 108.869 236.035 108.802 236.084 108.754L235.777 108.447ZM235.574 108.937H235.141V111.949H235.574H236.007V108.937H235.574ZM235.574 111.949H235.141C235.141 112.248 235.259 112.535 235.471 112.746L235.777 112.44L236.084 112.133C236.035 112.084 236.007 112.018 236.007 111.949H235.574ZM235.777 112.44L235.471 112.746C235.682 112.957 235.969 113.076 236.267 113.076V112.643V112.209C236.198 112.209 236.132 112.182 236.084 112.133L235.777 112.44ZM236.267 112.643V113.076C236.566 113.076 236.853 112.957 237.064 112.746L236.758 112.44L236.451 112.133C236.402 112.182 236.336 112.209 236.267 112.209V112.643ZM236.758 112.44L237.064 112.746C237.275 112.535 237.394 112.248 237.394 111.949H236.961H236.527C236.527 112.018 236.5 112.084 236.451 112.133L236.758 112.44ZM236.961 111.949H237.394V109.661H236.961H236.527V111.949H236.961ZM236.961 109.661L236.922 110.093C238.574 110.24 240.128 110.937 241.336 112.073L241.633 111.757L241.93 111.441C240.581 110.173 238.844 109.394 236.999 109.23L236.961 109.661ZM241.633 111.757L241.336 112.073C242.545 113.209 243.336 114.717 243.585 116.356L244.013 116.292L244.441 116.227C244.164 114.395 243.28 112.71 241.93 111.441L241.633 111.757ZM244.013 116.292L243.585 116.356C243.833 117.996 243.524 119.671 242.706 121.114L243.083 121.327L243.46 121.541C244.373 119.929 244.719 118.058 244.441 116.227L244.013 116.292ZM243.083 121.327L242.706 121.114C241.889 122.556 240.611 123.683 239.077 124.312L239.241 124.713L239.406 125.114C241.119 124.411 242.547 123.153 243.46 121.541L243.083 121.327ZM239.241 124.713L239.077 124.312C237.543 124.942 235.842 125.038 234.247 124.586L234.129 125.002L234.01 125.419C235.792 125.925 237.692 125.817 239.406 125.114L239.241 124.713ZM234.129 125.002L234.247 124.586C232.652 124.133 231.255 123.158 230.28 121.817L229.929 122.071L229.579 122.326C230.668 123.825 232.228 124.914 234.01 125.419L234.129 125.002ZM229.929 122.071L230.28 121.817C229.305 120.475 228.809 118.846 228.871 117.189L228.438 117.172L228.005 117.156C227.935 119.007 228.49 120.828 229.579 122.326L229.929 122.071ZM228.438 117.172L228.871 117.189C228.933 115.532 229.549 113.944 230.621 112.679L230.291 112.399L229.96 112.118C228.763 113.531 228.074 115.305 228.005 117.156L228.438 117.172ZM230.291 112.399L230.613 112.688C230.714 112.576 230.791 112.445 230.84 112.303L230.43 112.161L230.021 112.02C230.009 112.053 229.992 112.083 229.968 112.109L230.291 112.399ZM230.43 112.161L230.84 112.303C230.889 112.16 230.909 112.009 230.899 111.859L230.467 111.889L230.034 111.918C230.037 111.953 230.032 111.987 230.021 112.02L230.43 112.161ZM230.467 111.889L230.899 111.859C230.889 111.709 230.849 111.562 230.781 111.428L230.394 111.623L230.007 111.818C230.023 111.849 230.032 111.883 230.034 111.918L230.467 111.889ZM230.394 111.623L230.781 111.428C230.713 111.294 230.619 111.174 230.504 111.077L230.224 111.407L229.943 111.737C229.97 111.76 229.991 111.787 230.007 111.818L230.394 111.623ZM230.224 111.407L230.504 111.077C230.389 110.979 230.256 110.906 230.113 110.861L229.983 111.274L229.853 111.688C229.886 111.698 229.917 111.715 229.943 111.737L230.224 111.407ZM229.983 111.274L230.113 110.861C229.969 110.816 229.818 110.8 229.668 110.814L229.709 111.245L229.75 111.677C229.785 111.673 229.82 111.677 229.853 111.688L229.983 111.274ZM229.709 111.245L229.668 110.814C229.518 110.828 229.372 110.872 229.24 110.944L229.446 111.325L229.651 111.707C229.682 111.69 229.716 111.68 229.75 111.677L229.709 111.245ZM229.446 111.325L229.24 110.944C229.107 111.015 228.991 111.113 228.896 111.23L229.234 111.501L229.572 111.773C229.594 111.746 229.621 111.723 229.651 111.707L229.446 111.325ZM229.234 111.501L228.904 111.221C227.481 112.899 226.674 115.012 226.616 117.211L227.049 117.222L227.482 117.234C227.535 115.232 228.27 113.309 229.565 111.782L229.234 111.501ZM227.049 117.222L226.616 117.211C226.558 119.41 227.253 121.563 228.585 123.313L228.93 123.05L229.274 122.788C228.062 121.195 227.429 119.235 227.482 117.234L227.049 117.222ZM228.93 123.05L228.585 123.313C229.917 125.063 231.807 126.306 233.942 126.836L234.046 126.415L234.151 125.995C232.207 125.513 230.487 124.381 229.274 122.788L228.93 123.05ZM234.046 126.415L233.942 126.836C236.077 127.366 238.329 127.151 240.325 126.226L240.142 125.833L239.96 125.44C238.144 126.281 236.094 126.477 234.151 125.995L234.046 126.415ZM240.142 125.833L240.325 126.226C242.321 125.302 243.941 123.724 244.918 121.753L244.53 121.56L244.141 121.368C243.252 123.162 241.777 124.598 239.96 125.44L240.142 125.833ZM244.53 121.56L244.918 121.753C245.895 119.782 246.169 117.536 245.696 115.388L245.273 115.481L244.849 115.575C245.28 117.53 245.03 119.574 244.141 121.368L244.53 121.56ZM245.273 115.481L245.696 115.388C245.223 113.24 244.03 111.318 242.315 109.94L242.044 110.278L241.772 110.616C243.333 111.87 244.419 113.619 244.849 115.575L245.273 115.481ZM242.044 110.278L242.315 109.94C240.601 108.562 238.467 107.811 236.267 107.811L236.267 108.244L236.267 108.677C238.27 108.678 240.212 109.361 241.772 110.616L242.044 110.278ZM235.214 118.27L235.566 118.017L232.077 113.154L231.725 113.407L231.373 113.659L234.861 118.522L235.214 118.27ZM231.725 113.407L232.08 113.159C232.092 113.176 232.097 113.196 232.096 113.216L231.664 113.178L231.232 113.14C231.216 113.322 231.264 113.504 231.369 113.654L231.725 113.407ZM231.664 113.178L232.096 113.216C232.094 113.237 232.085 113.256 232.071 113.27L231.764 112.964L231.458 112.657C231.328 112.787 231.249 112.957 231.232 113.14L231.664 113.178ZM231.764 112.964L232.071 113.27C232.056 113.284 232.037 113.293 232.017 113.295L231.979 112.863L231.94 112.432C231.758 112.448 231.587 112.528 231.458 112.657L231.764 112.964ZM231.979 112.863L232.017 113.295C231.997 113.297 231.976 113.291 231.96 113.28L232.207 112.924L232.455 112.568C232.305 112.464 232.122 112.416 231.94 112.432L231.979 112.863ZM232.207 112.924L231.955 113.276L236.821 116.764L237.073 116.412L237.326 116.059L232.46 112.572L232.207 112.924ZM237.073 116.412L236.82 116.763C236.925 116.839 237.013 116.937 237.077 117.051L237.455 116.838L237.832 116.625C237.706 116.402 237.534 116.209 237.326 116.06L237.073 116.412ZM237.455 116.838L237.077 117.051C237.141 117.164 237.18 117.29 237.19 117.42L237.622 117.385L238.054 117.35C238.033 117.095 237.958 116.847 237.832 116.625L237.455 116.838ZM237.622 117.385L237.19 117.42C237.201 117.549 237.183 117.68 237.138 117.802L237.545 117.951L237.951 118.101C238.04 117.861 238.075 117.605 238.054 117.35L237.622 117.385ZM237.545 117.951L237.138 117.802C237.093 117.924 237.022 118.035 236.93 118.127L237.237 118.433L237.543 118.74C237.724 118.559 237.863 118.341 237.951 118.101L237.545 117.951ZM237.237 118.433L236.93 118.127C236.838 118.219 236.727 118.29 236.605 118.335L236.755 118.741L236.904 119.148C237.144 119.06 237.362 118.92 237.543 118.74L237.237 118.433ZM236.755 118.741L236.605 118.335C236.483 118.38 236.353 118.397 236.223 118.387L236.188 118.819L236.153 119.251C236.408 119.271 236.664 119.236 236.904 119.148L236.755 118.741ZM236.188 118.819L236.223 118.387C236.093 118.376 235.967 118.338 235.854 118.274L235.641 118.651L235.428 119.029C235.651 119.154 235.898 119.23 236.153 119.251L236.188 118.819ZM235.641 118.651L235.854 118.274C235.741 118.21 235.643 118.122 235.567 118.017L235.215 118.27L234.863 118.523C235.013 118.73 235.205 118.903 235.428 119.029L235.641 118.651Z" fill="#515660" mask="url(#path-4-outside-1_1326_71331)"/>
</g>
<path d="M272.281 107.811V111.832H274.78V113.904H272.281V117.825H269.681V107.811H272.281ZM272.281 118.576V123.248H262.592V124.304H272.81V126.214H260.053V121.481H269.702V120.445H260.013V118.576H272.281ZM268.585 109.232V111.203H257.616V109.232H261.821V107.729H264.4V109.232H268.585ZM263.1 111.65C265.863 111.65 267.65 112.828 267.65 114.676C267.65 116.565 265.863 117.703 263.1 117.703C260.338 117.703 258.51 116.565 258.51 114.676C258.51 112.828 260.338 111.65 263.1 111.65ZM263.1 113.478C261.821 113.478 261.028 113.904 261.049 114.676C261.028 115.468 261.821 115.854 263.1 115.854C264.38 115.854 265.192 115.468 265.192 114.676C265.192 113.904 264.38 113.478 263.1 113.478ZM285.647 108.4C288.45 108.4 290.583 110.146 290.583 112.625C290.583 115.062 288.45 116.829 285.647 116.829C282.783 116.829 280.671 115.062 280.671 112.625C280.671 110.146 282.783 108.4 285.647 108.4ZM285.647 110.512C284.225 110.512 283.169 111.284 283.189 112.625C283.169 113.945 284.225 114.737 285.647 114.737C287.049 114.737 288.085 113.945 288.085 112.625C288.085 111.284 287.049 110.512 285.647 110.512ZM295.864 107.851V117.114H293.264V107.851H295.864ZM295.864 117.886V122.903H286.033V124.101H296.372V126.132H283.494V121.014H293.285V119.876H283.453V117.886H295.864ZM312.642 109.375V111.487H306.508V114.534H312.378V116.565H306.508V120.059C309.159 120.039 311.312 119.927 313.78 119.531L314.024 121.623C311.2 122.05 308.681 122.131 305.452 122.131H303.888V109.375H312.642ZM317.741 107.851V114.859H320.463V117.032H317.741V126.336H315.141V107.851H317.741ZM336.611 107.851V126.376H333.991V107.851H336.611ZM326.577 109.151C329.36 109.151 331.431 111.711 331.431 115.732C331.431 119.795 329.36 122.334 326.577 122.334C323.733 122.334 321.661 119.795 321.681 115.732C321.661 111.711 323.733 109.151 326.577 109.151ZM326.577 111.487C325.135 111.487 324.18 112.99 324.18 115.732C324.18 118.495 325.135 119.978 326.577 119.978C327.978 119.978 328.933 118.495 328.933 115.732C328.933 112.99 327.978 111.487 326.577 111.487ZM348.656 109.496V114.25H352.15V107.851H354.71V126.376H352.15V116.342H348.656V121.826H339.8V109.496H348.656ZM342.38 111.507V119.815H346.117V111.507H342.38Z" fill="#292C32"/>
<path d="M629.733 112.268L640.133 122.668" stroke="#667077" stroke-width="1.73333" stroke-linecap="round" stroke-linejoin="round"/>
<path d="M640.133 112.268L629.733 122.668" stroke="#667077" stroke-width="1.73333" stroke-linecap="round" stroke-linejoin="round"/>
<rect x="194.667" y="165.133" width="450.667" height="121" rx="10.4" fill="#F7F8FB"/>
<circle cx="213.733" cy="192.468" r="5.2" fill="#FF6B6B"/>
<path d="M243.044 184.671V194.1H241.233V184.671H243.044ZM240.149 184.942V194.083H238.372V193.439H235.935V192.153H238.372V184.942H240.149ZM229.739 190.426C231.787 190.426 235.156 190.393 237.661 190.003L237.78 191.273C236.84 191.476 235.816 191.611 234.784 191.696V194.032H232.972V191.798C231.838 191.857 230.78 191.857 229.925 191.848L229.739 190.426ZM234.174 194.607V195.775H241.165V194.607H243.044V199.787H232.312V194.607H234.174ZM234.174 198.314H241.165V197.214H234.174V198.314ZM233.802 185.213C235.799 185.213 237.153 186.076 237.153 187.481C237.153 188.869 235.799 189.766 233.802 189.766C231.787 189.766 230.433 188.869 230.433 187.481C230.433 186.076 231.787 185.213 233.802 185.213ZM233.802 186.516C232.769 186.516 232.143 186.855 232.143 187.481C232.143 188.124 232.769 188.446 233.802 188.446C234.8 188.446 235.461 188.124 235.478 187.481C235.461 186.855 234.8 186.516 233.802 186.516ZM254.588 188.344C254.588 191.188 255.942 193.981 258.38 195.048L257.246 196.554C255.511 195.708 254.292 194.083 253.64 192.085C252.972 194.193 251.728 195.945 249.967 196.842L248.782 195.318C251.271 194.15 252.659 191.205 252.675 188.344V185.907H254.588V188.344ZM261.765 184.671V199.99H259.903V191.137H256.687V189.614H259.903V184.671H261.765ZM276.644 184.671V199.99H274.748V184.671H276.644ZM266.606 185.924V189.749H270.313V185.924H272.175V196.385H264.728V185.924H266.606ZM266.606 194.844H270.313V191.222H266.606V194.844ZM286.8 186.77C286.8 189.14 289.119 191.51 292.319 192.068L291.472 193.643C288.908 193.101 286.809 191.552 285.819 189.495C284.803 191.535 282.704 193.092 280.148 193.643L279.319 192.068C282.484 191.493 284.786 189.123 284.803 186.77V185.636H286.8V186.77ZM292.877 196.469V198.027H278.896V196.469H292.877ZM305.759 185.992V193.219H298.514V185.992H305.759ZM300.359 187.498V191.73H303.914V187.498H300.359ZM310.058 184.671V189.157H312.191V190.731H310.058V195.843H308.179V184.671H310.058ZM310.668 198.145V199.669H300.257V194.76H302.136V198.145H310.668ZM326.935 190.799V192.288H312.97V190.799H326.935ZM325.276 188.327V189.817H314.747V185.061H325.14V186.567H316.626V188.327H325.276ZM325.174 193.338V197.18H316.474V198.348H325.597V199.821H314.629V195.826H323.329V194.76H314.612V193.338H325.174ZM340.73 184.671V199.973H338.834V184.671H340.73ZM336.16 186.296C336.16 190.85 334.399 194.726 329.034 197.265L328.052 195.758C332.055 193.854 333.917 191.264 334.247 187.786H328.83V186.296H336.16Z" fill="#292C32"/>
<path d="M213.097 229.554C213.083 231.49 214.478 233.617 216.225 234.443L215.615 235.282C214.261 234.625 213.117 233.19 212.582 231.558C212.027 233.332 210.815 234.889 209.468 235.58L208.818 234.74C210.551 233.901 212.04 231.612 212.054 229.554V227.983H209.251V227.103H215.805V227.983H213.097V229.554ZM218.337 225.857V230.732H220.355V231.639H218.337V237.896H217.281V225.857H218.337ZM230.322 225.857V230.597H232.339V231.518H230.322V237.896H229.265V225.857H230.322ZM222.562 226.886V230.069H226.083V226.886H227.139V235.011H221.506V226.886H222.562ZM222.562 234.118H226.083V230.922H222.562V234.118ZM238.988 227.631C238.988 229.689 241.345 231.531 243.444 231.924L242.956 232.818C241.142 232.398 239.225 231.105 238.447 229.324C237.668 231.098 235.759 232.391 233.937 232.818L233.45 231.924C235.535 231.518 237.878 229.703 237.878 227.631V226.71H238.988V227.631ZM244.012 235.377V236.257H232.989V235.377H244.012ZM254.575 227.089V228.579C254.575 230.353 254.575 231.992 254.074 234.429L253.004 234.334C253.268 233.176 253.404 232.174 253.478 231.233L246.125 231.639L245.976 230.759L253.519 230.448C253.539 229.811 253.539 229.195 253.546 228.579V227.983H246.301V227.089H254.575ZM255.943 235.309V236.203H244.974V235.309H255.943ZM266.898 225.871V232.479H265.842V225.871H266.898ZM263.065 226.453V229.703H258.624V231.342C260.777 231.328 262.388 231.287 264.338 230.962L264.46 231.843C262.443 232.168 260.79 232.222 258.57 232.235H257.595V228.863H262.009V227.333H257.568V226.453H263.065ZM260.14 233.088V234.524H265.842V233.088H266.898V237.733H259.071V233.088H260.14ZM260.14 236.867H265.842V235.377H260.14V236.867ZM278.693 232.371V233.237H270.364V226.9H278.557V227.794H271.448V229.581H278.3V230.434H271.448V232.371H278.693ZM279.965 235.445V236.325H268.943V235.445H279.965ZM294.36 225.857V237.896H293.29V225.857H294.36ZM290.799 227.171C290.785 230.637 289.174 233.698 285.138 235.634L284.556 234.768C287.813 233.224 289.472 230.915 289.715 228.037H285.111V227.171H290.799ZM307.414 235.485V236.379H296.392V235.485H301.361V232.723H302.404V235.485H307.414ZM306.358 227.78V228.66H302.431C302.438 230.549 304.442 231.937 306.751 232.317L306.345 233.156C304.415 232.811 302.648 231.843 301.889 230.339C301.124 231.843 299.357 232.811 297.421 233.156L297.001 232.317C299.323 231.937 301.341 230.549 301.348 228.66H297.421V227.78H301.361V226.114H302.404V227.78H306.358ZM317.598 227.36V228.24H315.418C315.438 229.581 316.406 230.915 317.909 231.49L317.408 232.289C316.23 231.829 315.377 230.929 314.944 229.865C314.517 231.03 313.657 232.019 312.465 232.52L311.937 231.707C313.44 231.091 314.382 229.676 314.415 228.24H312.195V227.36H314.415V225.965H315.418V227.36H317.598ZM322.08 225.871V232.601H321.064V229.622H319.494V232.533H318.464V226.087H319.494V228.742H321.064V225.871H322.08ZM315.201 233.102V234.497H321.037V233.102H322.08V237.733H314.145V233.102H315.201ZM315.201 236.867H321.037V235.35H315.201V236.867ZM333.821 225.857V237.923H332.764V231.287H330.219V230.407H332.764V225.857H333.821ZM330.015 226.968V227.848H325.465V230.353H329.487V231.22H325.465V234.131C327.68 234.131 329.088 234.057 330.747 233.765L330.869 234.646C329.122 234.93 327.646 235.011 325.317 235.011H324.396V226.968H330.015ZM339.522 226.859C341.214 226.873 343.083 227.888 343.083 231.504C343.083 234.984 341.661 236.934 339.359 236.934C337.639 236.934 336.421 235.878 336.177 234.321H337.382C337.599 235.201 338.262 235.851 339.359 235.851C340.957 235.851 341.932 234.47 341.946 232.086H341.81C341.242 232.899 340.348 233.386 339.305 233.386C337.545 233.386 336.096 232.046 336.096 230.15C336.096 228.322 337.436 226.846 339.522 226.859ZM339.522 227.929C338.235 227.929 337.274 228.931 337.287 230.136C337.287 231.355 338.195 232.317 339.481 232.317C340.754 232.317 341.756 231.26 341.756 230.109C341.756 228.985 340.822 227.929 339.522 227.929ZM358.792 231.518V232.425H347.809V231.518H358.792ZM357.519 229.364V230.231H349.231V226.236H357.383V227.13H350.301V229.364H357.519ZM357.573 236.853V237.733H349.204V233.725H357.464V234.592H350.26V236.853H357.573ZM369.747 225.857V237.896H368.677V225.857H369.747ZM366.185 227.171C366.172 230.637 364.56 233.698 360.525 235.634L359.943 234.768C363.199 233.224 364.858 230.915 365.102 228.037H360.498V227.171H366.185Z" fill="#485057"/>
<path d="M288.067 366.446V415.467H277.843V376.128H277.572L266.332 383.17V374.165L278.452 366.446H288.067ZM317.452 416.144C307.228 416.144 299.78 410.118 299.577 401.654H309.462C309.666 405.514 313.186 408.087 317.452 408.087C322.53 408.087 326.119 404.498 326.119 399.42C326.119 394.206 322.462 390.618 317.317 390.55C313.66 390.55 311.087 391.904 309.598 394.68H300.39L303.03 366.446H333.228V374.774H311.426L310.072 387.165H310.478C312.306 384.727 315.962 383.035 320.296 383.035C329.301 383.035 336.004 389.738 336.004 399.149C336.004 409.035 328.489 416.144 317.452 416.144Z" fill="#292C32"/>
<path d="M360.547 400.744C359.274 400.744 358.245 399.715 358.272 398.469C358.245 397.223 359.274 396.221 360.547 396.221C361.738 396.221 362.795 397.223 362.795 398.469C362.795 399.715 361.738 400.744 360.547 400.744ZM360.547 390.425C359.274 390.425 358.245 389.396 358.272 388.15C358.245 386.904 359.274 385.902 360.547 385.902C361.738 385.902 362.795 386.904 362.795 388.15C362.795 389.396 361.738 390.425 360.547 390.425Z" fill="#292C32"/>
<path d="M380.966 415.467L380.899 408.087L398.503 391.904C403.107 387.503 405.545 384.795 405.545 380.936C405.545 376.602 402.227 373.894 397.758 373.894C393.154 373.894 390.175 376.805 390.175 381.477H380.492C380.425 371.863 387.534 365.769 397.893 365.769C408.388 365.769 415.362 371.727 415.362 380.258C415.362 385.811 412.654 390.415 402.565 399.555L395.117 406.8V407.071H416.039V415.467H380.966ZM441.295 416.144C431.071 416.144 423.623 410.118 423.42 401.654H433.305C433.508 405.514 437.029 408.087 441.295 408.087C446.373 408.087 449.961 404.498 449.961 399.42C449.961 394.206 446.305 390.618 441.159 390.55C437.503 390.55 434.93 391.904 433.44 394.68H424.232L426.873 366.446H457.071V374.774H435.268L433.914 387.165H434.321C436.149 384.727 439.805 383.035 444.138 383.035C453.143 383.035 459.847 389.738 459.847 399.149C459.847 409.035 452.331 416.144 441.295 416.144Z" fill="#292C32"/>
<path d="M479.48 400.744C478.207 400.744 477.178 399.715 477.205 398.469C477.178 397.223 478.207 396.221 479.48 396.221C480.672 396.221 481.728 397.223 481.728 398.469C481.728 399.715 480.672 400.744 479.48 400.744ZM479.48 390.425C478.207 390.425 477.178 389.396 477.205 388.15C477.178 386.904 478.207 385.902 479.48 385.902C480.672 385.902 481.728 386.904 481.728 388.15C481.728 389.396 480.672 390.425 479.48 390.425Z" fill="#292C32"/>
<path d="M515.913 416.144C505.147 416.144 497.429 410.186 497.226 401.654H507.517C507.72 405.311 511.241 407.748 515.981 407.748C520.856 407.748 524.377 404.972 524.309 401.045C524.377 397.05 520.788 394.206 515.033 394.206H510.496V386.691H515.033C519.84 386.691 523.226 384.05 523.226 380.191C523.226 376.467 520.382 373.894 516.048 373.894C511.715 373.894 508.127 376.331 507.991 380.055H498.241C498.377 371.592 506.028 365.769 516.048 365.769C526.272 365.769 533.111 371.795 533.043 379.581C533.111 385.066 529.252 388.993 523.767 389.941V390.347C530.944 391.227 534.939 395.628 534.871 401.722C534.939 410.118 526.949 416.144 515.913 416.144ZM561.074 416.144C548.819 416.144 541.371 407.003 541.371 390.956C541.371 374.91 548.819 365.769 561.074 365.769C573.33 365.769 580.778 374.977 580.778 390.956C580.778 407.071 573.33 416.144 561.074 416.144ZM561.074 407.748C566.762 407.748 570.418 402.264 570.351 390.956C570.351 379.785 566.762 374.097 561.074 374.097C555.387 374.097 551.798 379.785 551.798 390.956C551.731 402.264 555.387 407.748 561.074 407.748Z" fill="#292C32"/>
<rect x="330.775" y="479.441" width="74.4508" height="74.4508" rx="37.2254" fill="#F7F8FB"/>
<rect x="330.775" y="479.441" width="74.4508" height="74.4508" rx="37.2254" stroke="#E4E8F0" stroke-width="1.81587"/>
<rect x="354.381" y="497.939" width="10.2143" height="37.4524" rx="3.17778" fill="#157FFF"/>
<rect x="371.405" y="497.939" width="10.2143" height="37.4524" rx="3.17778" fill="#157FFF"/>
<rect x="434.718" y="479.384" width="74.5643" height="74.5643" rx="37.2821" fill="#F7F8FB"/>
<rect x="434.718" y="479.384" width="74.5643" height="74.5643" rx="37.2821" stroke="#E4E8F0" stroke-width="1.70238"/>
<rect x="453.842" y="498.508" width="36.3175" height="36.3175" rx="3.30159" fill="#FF5F5F"/>
<path d="M206.367 624.133H633.634" stroke="#E4E8F0" stroke-width="0.866667" stroke-linecap="round"/>
<path d="M375.409 650.647V652.719H358.549V650.647H365.679V648.859H368.238V650.647H375.409ZM368.238 641.445V643.03H373.784V645.081H368.462C368.807 646.361 370.706 647.549 374.657 647.783L373.885 649.753C370.473 649.509 368.117 648.514 366.959 647.031C365.791 648.514 363.435 649.509 360.053 649.753L359.26 647.783C363.211 647.549 365.09 646.361 365.456 645.081H360.174V643.03H365.679V641.445H368.238ZM366.959 653.592C371.001 653.592 373.378 654.689 373.398 656.72C373.378 658.772 371.001 659.869 366.959 659.869C362.896 659.869 360.479 658.772 360.479 656.72C360.479 654.689 362.896 653.592 366.959 653.592ZM366.959 655.502C364.379 655.502 363.099 655.888 363.12 656.72C363.099 657.573 364.379 657.959 366.959 657.959C369.478 657.959 370.778 657.573 370.798 656.72C370.778 655.888 369.478 655.502 366.959 655.502ZM388.267 643.294V658H385.199V646.198H385.118L381.746 648.311V645.609L385.382 643.294H388.267ZM391.679 658L391.659 655.786L396.94 650.931C398.321 649.611 399.053 648.798 399.053 647.641C399.053 646.341 398.057 645.528 396.717 645.528C395.335 645.528 394.442 646.402 394.442 647.803H391.537C391.517 644.919 393.649 643.091 396.757 643.091C399.906 643.091 401.998 644.878 401.998 647.438C401.998 649.103 401.185 650.484 398.159 653.227L395.924 655.4V655.481H402.201V658H391.679ZM403.806 655.4V652.983L410.021 643.294H413.86V652.942H415.729V655.4H413.86V658H410.956V655.4H403.806ZM406.893 652.942H410.996V646.645H410.854L406.893 652.82V652.942ZM419.507 656.213C418.553 656.213 417.781 655.441 417.801 654.506C417.781 653.572 418.553 652.82 419.507 652.82C420.401 652.82 421.193 653.572 421.193 654.506C421.193 655.441 420.401 656.213 419.507 656.213ZM419.507 648.473C418.553 648.473 417.781 647.702 417.801 646.767C417.781 645.833 418.553 645.081 419.507 645.081C420.401 645.081 421.193 645.833 421.193 646.767C421.193 647.702 420.401 648.473 419.507 648.473ZM429.298 658.203C425.621 658.203 423.387 655.461 423.387 650.647C423.387 645.833 425.621 643.091 429.298 643.091C432.974 643.091 435.209 645.853 435.209 650.647C435.209 655.481 432.974 658.203 429.298 658.203ZM429.298 655.684C431.004 655.684 432.101 654.039 432.081 650.647C432.081 647.295 431.004 645.589 429.298 645.589C427.592 645.589 426.515 647.295 426.515 650.647C426.495 654.039 427.592 655.684 429.298 655.684ZM443.029 658.203C439.353 658.203 437.118 655.461 437.118 650.647C437.118 645.833 439.353 643.091 443.029 643.091C446.706 643.091 448.94 645.853 448.94 650.647C448.94 655.481 446.706 658.203 443.029 658.203ZM443.029 655.684C444.735 655.684 445.832 654.039 445.812 650.647C445.812 647.295 444.735 645.589 443.029 645.589C441.323 645.589 440.246 647.295 440.246 650.647C440.226 654.039 441.323 655.684 443.029 655.684ZM452.84 656.213C451.885 656.213 451.113 655.441 451.134 654.506C451.113 653.572 451.885 652.82 452.84 652.82C453.734 652.82 454.526 653.572 454.526 654.506C454.526 655.441 453.734 656.213 452.84 656.213ZM452.84 648.473C451.885 648.473 451.113 647.702 451.134 646.767C451.113 645.833 451.885 645.081 452.84 645.081C453.734 645.081 454.526 645.833 454.526 646.767C454.526 647.702 453.734 648.473 452.84 648.473ZM456.923 658L456.903 655.786L462.184 650.931C463.565 649.611 464.296 648.798 464.296 647.641C464.296 646.341 463.301 645.528 461.96 645.528C460.579 645.528 459.685 646.402 459.685 647.803H456.781C456.76 644.919 458.893 643.091 462.001 643.091C465.149 643.091 467.242 644.878 467.242 647.438C467.242 649.103 466.429 650.484 463.403 653.227L461.168 655.4V655.481H467.445V658H456.923ZM475.062 658.203C471.832 658.203 469.517 656.416 469.456 653.856H472.543C472.604 654.953 473.66 655.684 475.082 655.684C476.545 655.684 477.601 654.852 477.581 653.673C477.601 652.475 476.524 651.622 474.798 651.622H473.437V649.367H474.798C476.24 649.367 477.256 648.575 477.256 647.417C477.256 646.3 476.403 645.528 475.103 645.528C473.803 645.528 472.726 646.259 472.685 647.377H469.76C469.801 644.838 472.096 643.091 475.103 643.091C478.17 643.091 480.221 644.898 480.201 647.234C480.221 648.88 479.063 650.058 477.418 650.342V650.464C479.571 650.728 480.77 652.048 480.749 653.877C480.77 656.395 478.373 658.203 475.062 658.203Z" fill="#485057"/>
<path d="M383.366 685.133V686.436H372.82V680.884H374.428V685.133H383.366ZM384.94 688.535V689.855H378.728V695.306H377.136V689.855H371.06V688.535H384.94ZM391.474 682.831C391.474 684.743 392.845 686.622 395.13 687.401L394.3 688.654C392.599 688.061 391.338 686.851 390.678 685.353C390.018 687.02 388.689 688.357 386.886 688.992L386.057 687.723C388.393 686.927 389.832 684.896 389.832 682.848V682.424H386.548V681.121H394.724V682.424H391.474V682.831ZM398.685 689.974V695.306H397.076V691.277H388.41V689.974H398.685ZM398.685 680.139V689.212H397.076V685.319H394.267V683.999H397.076V680.139H398.685ZM410.55 682.865C410.55 684.794 411.888 686.639 414.207 687.418L413.394 688.671C411.676 688.078 410.415 686.893 409.755 685.404C409.095 687.046 407.783 688.332 405.997 688.958L405.134 687.706C407.504 686.893 408.925 684.947 408.942 682.848V682.441H405.608V681.138H413.817V682.441H410.55V682.865ZM417.169 680.139V684.033H419.369V685.387H417.169V689.28H415.561V680.139H417.169ZM417.169 690.025V695.306H415.561V691.328H407.148V690.025H417.169ZM424.431 680.833C426.428 680.816 427.968 681.976 428.307 683.677H431.269V680.139H432.877V688.281H431.269V684.997H428.324C427.994 686.741 426.445 687.909 424.431 687.909C422.112 687.909 420.453 686.453 420.453 684.354C420.453 682.289 422.112 680.816 424.431 680.833ZM424.431 682.171C422.992 682.171 421.993 683.051 421.993 684.354C421.993 685.658 422.992 686.555 424.431 686.555C425.836 686.555 426.834 685.658 426.834 684.354C426.834 683.051 425.836 682.171 424.431 682.171ZM424.583 689.009V690.77H431.269V689.009H432.877V695.12H422.992V689.009H424.583ZM424.583 693.799H431.269V692.039H424.583V693.799ZM445.014 683.999C444.997 686.775 446.673 689.551 449.026 690.6L448.061 691.87C446.317 691.04 444.938 689.339 444.235 687.266C443.524 689.483 442.128 691.32 440.308 692.208L439.327 690.854C441.713 689.788 443.389 686.893 443.389 683.999V681.409H445.014V683.999ZM452.005 680.139V695.34H450.397V680.139H452.005ZM466.342 680.139V684.625H468.543V685.962H466.342V691.159H464.717V680.139H466.342ZM462.229 681.29C462.229 685.268 459.521 688.163 455.086 689.5L454.409 688.214C457.955 687.147 460.164 685.133 460.485 682.628H455.052V681.29H462.229ZM466.968 693.681V694.984H456.711V690.025H458.336V693.681H466.968Z" fill="#667077"/>
</g>
</g>
<g filter="url(#filter1_d_1326_71331)">
<rect x="645" y="548" width="120" height="120" rx="60" fill="#4C82F7"/>
<rect x="647.4" y="550.4" width="115.2" height="115.2" rx="57.6" stroke="#69D7C4" stroke-width="4.8"/>
<mask id="path-28-outside-2_1326_71331" maskUnits="userSpaceOnUse" x="691.231" y="563.83" width="28" height="28" fill="black">
<rect fill="white" x="691.231" y="563.83" width="28" height="28"/>
<path fill-rule="evenodd" clip-rule="evenodd" d="M705 564.83C704.745 564.83 704.501 564.931 704.321 565.111C704.141 565.291 704.04 565.535 704.04 565.79V569.96C704.04 570.215 704.141 570.459 704.321 570.639C704.501 570.819 704.745 570.92 705 570.92C705.254 570.92 705.498 570.819 705.679 570.639C705.859 570.459 705.96 570.215 705.96 569.96V566.792C708.38 567.008 710.659 568.029 712.429 569.694C714.2 571.359 715.36 573.57 715.724 575.973C716.088 578.375 715.635 580.831 714.437 582.945C713.239 585.06 711.366 586.711 709.117 587.633C706.869 588.556 704.376 588.697 702.038 588.034C699.7 587.371 697.653 585.941 696.224 583.976C694.795 582.01 694.068 579.621 694.158 577.192C694.249 574.764 695.153 572.436 696.724 570.582C696.81 570.487 696.876 570.375 696.918 570.254C696.959 570.133 696.976 570.004 696.968 569.876C696.959 569.748 696.925 569.623 696.867 569.509C696.809 569.394 696.729 569.293 696.631 569.209C696.534 569.126 696.42 569.064 696.298 569.025C696.175 568.987 696.046 568.973 695.919 568.986C695.791 568.998 695.667 569.035 695.554 569.096C695.441 569.157 695.342 569.24 695.261 569.34C693.38 571.559 692.313 574.353 692.236 577.261C692.159 580.169 693.078 583.016 694.84 585.331C696.601 587.646 699.101 589.29 701.924 589.99C704.748 590.691 707.726 590.406 710.365 589.184C713.005 587.961 715.148 585.874 716.44 583.268C717.731 580.661 718.094 577.692 717.468 574.851C716.843 572.01 715.265 569.468 712.998 567.646C710.73 565.824 707.909 564.83 705 564.83ZM703.54 578.712L698.71 571.978C698.645 571.886 698.616 571.774 698.626 571.662C698.636 571.549 698.685 571.444 698.764 571.365C698.844 571.285 698.949 571.236 699.061 571.226C699.173 571.216 699.285 571.246 699.378 571.31L706.115 576.139C706.332 576.295 706.512 576.496 706.644 576.729C706.775 576.962 706.854 577.22 706.875 577.486C706.897 577.752 706.86 578.02 706.768 578.271C706.676 578.522 706.53 578.749 706.342 578.938C706.153 579.127 705.925 579.273 705.674 579.365C705.424 579.457 705.156 579.493 704.89 579.472C704.623 579.45 704.365 579.371 704.132 579.24C703.9 579.109 703.698 578.928 703.542 578.712"/>
</mask>
<path fill-rule="evenodd" clip-rule="evenodd" d="M705 564.83C704.745 564.83 704.501 564.931 704.321 565.111C704.141 565.291 704.04 565.535 704.04 565.79V569.96C704.04 570.215 704.141 570.459 704.321 570.639C704.501 570.819 704.745 570.92 705 570.92C705.254 570.92 705.498 570.819 705.679 570.639C705.859 570.459 705.96 570.215 705.96 569.96V566.792C708.38 567.008 710.659 568.029 712.429 569.694C714.2 571.359 715.36 573.57 715.724 575.973C716.088 578.375 715.635 580.831 714.437 582.945C713.239 585.06 711.366 586.711 709.117 587.633C706.869 588.556 704.376 588.697 702.038 588.034C699.7 587.371 697.653 585.941 696.224 583.976C694.795 582.01 694.068 579.621 694.158 577.192C694.249 574.764 695.153 572.436 696.724 570.582C696.81 570.487 696.876 570.375 696.918 570.254C696.959 570.133 696.976 570.004 696.968 569.876C696.959 569.748 696.925 569.623 696.867 569.509C696.809 569.394 696.729 569.293 696.631 569.209C696.534 569.126 696.42 569.064 696.298 569.025C696.175 568.987 696.046 568.973 695.919 568.986C695.791 568.998 695.667 569.035 695.554 569.096C695.441 569.157 695.342 569.24 695.261 569.34C693.38 571.559 692.313 574.353 692.236 577.261C692.159 580.169 693.078 583.016 694.84 585.331C696.601 587.646 699.101 589.29 701.924 589.99C704.748 590.691 707.726 590.406 710.365 589.184C713.005 587.961 715.148 585.874 716.44 583.268C717.731 580.661 718.094 577.692 717.468 574.851C716.843 572.01 715.265 569.468 712.998 567.646C710.73 565.824 707.909 564.83 705 564.83ZM703.54 578.712L698.71 571.978C698.645 571.886 698.616 571.774 698.626 571.662C698.636 571.549 698.685 571.444 698.764 571.365C698.844 571.285 698.949 571.236 699.061 571.226C699.173 571.216 699.285 571.246 699.378 571.31L706.115 576.139C706.332 576.295 706.512 576.496 706.644 576.729C706.775 576.962 706.854 577.22 706.875 577.486C706.897 577.752 706.86 578.02 706.768 578.271C706.676 578.522 706.53 578.749 706.342 578.938C706.153 579.127 705.925 579.273 705.674 579.365C705.424 579.457 705.156 579.493 704.89 579.472C704.623 579.45 704.365 579.371 704.132 579.24C703.9 579.109 703.698 578.928 703.542 578.712" fill="white"/>
<path d="M705 564.83L705 564.23H705V564.83ZM705.96 566.792L706.013 566.195L705.36 566.137V566.792H705.96ZM696.724 570.582L696.278 570.182L696.272 570.188L696.267 570.194L696.724 570.582ZM695.261 569.34L695.719 569.728L695.724 569.722L695.729 569.716L695.261 569.34ZM698.71 571.978L698.217 572.321L698.222 572.328L698.71 571.978ZM699.378 571.31L699.727 570.822L699.721 570.818L699.378 571.31ZM706.115 576.139L706.466 575.652L706.465 575.651L706.115 576.139ZM705 564.83V564.23C704.586 564.23 704.189 564.394 703.897 564.687L704.321 565.111L704.745 565.536C704.813 565.468 704.904 565.43 705 565.43V564.83ZM704.321 565.111L703.897 564.687C703.604 564.98 703.44 565.376 703.44 565.79H704.04H704.64C704.64 565.695 704.678 565.603 704.745 565.536L704.321 565.111ZM704.04 565.79H703.44V569.96H704.04H704.64V565.79H704.04ZM704.04 569.96H703.44C703.44 570.374 703.604 570.771 703.897 571.063L704.321 570.639L704.745 570.215C704.678 570.147 704.64 570.056 704.64 569.96H704.04ZM704.321 570.639L703.897 571.063C704.189 571.356 704.586 571.52 705 571.52V570.92V570.32C704.904 570.32 704.813 570.282 704.745 570.215L704.321 570.639ZM705 570.92V571.52C705.413 571.52 705.81 571.356 706.103 571.063L705.679 570.639L705.254 570.215C705.187 570.282 705.095 570.32 705 570.32V570.92ZM705.679 570.639L706.103 571.063C706.395 570.771 706.56 570.374 706.56 569.96H705.96H705.36C705.36 570.056 705.322 570.147 705.254 570.215L705.679 570.639ZM705.96 569.96H706.56V566.792H705.96H705.36V569.96H705.96ZM705.96 566.792L705.907 567.39C708.193 567.593 710.346 568.559 712.018 570.131L712.429 569.694L712.84 569.257C710.972 567.5 708.567 566.422 706.013 566.195L705.96 566.792ZM712.429 569.694L712.018 570.131C713.691 571.704 714.787 573.793 715.131 576.062L715.724 575.973L716.318 575.883C715.933 573.347 714.709 571.014 712.84 569.257L712.429 569.694ZM715.724 575.973L715.131 576.062C715.475 578.332 715.047 580.652 713.915 582.65L714.437 582.945L714.959 583.241C716.223 581.01 716.702 578.418 716.318 575.883L715.724 575.973ZM714.437 582.945L713.915 582.65C712.783 584.647 711.014 586.207 708.89 587.078L709.117 587.633L709.345 588.188C711.718 587.215 713.695 585.473 714.959 583.241L714.437 582.945ZM709.117 587.633L708.89 587.078C706.766 587.95 704.411 588.083 702.202 587.457L702.038 588.034L701.874 588.611C704.342 589.311 706.973 589.162 709.345 588.188L709.117 587.633ZM702.038 588.034L702.202 587.457C699.993 586.83 698.059 585.48 696.709 583.623L696.224 583.976L695.738 584.328C697.246 586.403 699.407 587.911 701.874 588.611L702.038 588.034ZM696.224 583.976L696.709 583.623C695.359 581.766 694.672 579.509 694.758 577.215L694.158 577.192L693.559 577.17C693.463 579.733 694.231 582.254 695.738 584.328L696.224 583.976ZM694.158 577.192L694.758 577.215C694.844 574.921 695.697 572.722 697.182 570.97L696.724 570.582L696.267 570.194C694.608 572.151 693.655 574.607 693.559 577.17L694.158 577.192ZM696.724 570.582L697.171 570.983C697.31 570.828 697.417 570.646 697.485 570.449L696.918 570.254L696.35 570.059C696.335 570.104 696.31 570.146 696.278 570.182L696.724 570.582ZM696.918 570.254L697.485 570.449C697.553 570.252 697.58 570.044 697.566 569.836L696.968 569.876L696.369 569.917C696.372 569.965 696.366 570.013 696.35 570.059L696.918 570.254ZM696.968 569.876L697.566 569.836C697.552 569.628 697.497 569.425 697.403 569.239L696.867 569.509L696.331 569.779C696.353 569.822 696.366 569.869 696.369 569.917L696.968 569.876ZM696.867 569.509L697.403 569.239C697.309 569.052 697.179 568.887 697.02 568.752L696.631 569.209L696.243 569.667C696.28 569.698 696.31 569.736 696.331 569.779L696.867 569.509ZM696.631 569.209L697.02 568.752C696.861 568.617 696.676 568.515 696.478 568.453L696.298 569.025L696.118 569.598C696.164 569.612 696.206 569.636 696.243 569.667L696.631 569.209ZM696.298 569.025L696.478 568.453C696.279 568.391 696.069 568.369 695.862 568.388L695.919 568.986L695.976 569.583C696.024 569.578 696.072 569.583 696.118 569.598L696.298 569.025ZM695.919 568.986L695.862 568.388C695.654 568.408 695.453 568.469 695.269 568.568L695.554 569.096L695.839 569.624C695.881 569.602 695.928 569.587 695.976 569.583L695.919 568.986ZM695.554 569.096L695.269 568.568C695.086 568.667 694.924 568.802 694.794 568.964L695.261 569.34L695.729 569.716C695.759 569.678 695.797 569.647 695.839 569.624L695.554 569.096ZM695.261 569.34L694.804 568.952C692.834 571.275 691.716 574.201 691.636 577.246L692.236 577.261L692.836 577.277C692.909 574.506 693.926 571.843 695.719 569.728L695.261 569.34ZM692.236 577.261L691.636 577.246C691.556 580.29 692.518 583.271 694.362 585.694L694.84 585.331L695.317 584.968C693.638 582.762 692.763 580.049 692.836 577.277L692.236 577.261ZM694.84 585.331L694.362 585.694C696.207 588.118 698.824 589.839 701.78 590.573L701.924 589.99L702.069 589.408C699.378 588.74 696.996 587.174 695.317 584.968L694.84 585.331ZM701.924 589.99L701.78 590.573C704.736 591.306 707.854 591.008 710.617 589.728L710.365 589.184L710.113 588.639C707.597 589.804 704.759 590.076 702.069 589.408L701.924 589.99ZM710.365 589.184L710.617 589.728C713.381 588.448 715.625 586.263 716.977 583.534L716.44 583.268L715.902 583.001C714.671 585.485 712.629 587.474 710.113 588.639L710.365 589.184ZM716.44 583.268L716.977 583.534C718.33 580.805 718.71 577.696 718.054 574.722L717.468 574.851L716.882 574.98C717.479 577.687 717.133 580.517 715.902 583.001L716.44 583.268ZM717.468 574.851L718.054 574.722C717.399 571.748 715.748 569.086 713.374 567.178L712.998 567.646L712.622 568.114C714.783 569.85 716.286 572.273 716.882 574.98L717.468 574.851ZM712.998 567.646L713.374 567.178C711 565.27 708.045 564.23 705 564.23L705 564.83L705 565.43C707.772 565.43 710.461 566.377 712.622 568.114L712.998 567.646ZM703.54 578.712L704.028 578.362L699.197 571.628L698.71 571.978L698.222 572.328L703.053 579.061L703.54 578.712ZM698.71 571.978L699.202 571.636C699.218 571.659 699.226 571.687 699.223 571.715L698.626 571.662L698.028 571.608C698.006 571.861 698.073 572.113 698.217 572.321L698.71 571.978ZM698.626 571.662L699.223 571.715C699.221 571.743 699.209 571.769 699.189 571.789L698.764 571.365L698.34 570.94C698.161 571.12 698.05 571.356 698.028 571.608L698.626 571.662ZM698.764 571.365L699.189 571.789C699.169 571.809 699.142 571.821 699.114 571.824L699.061 571.226L699.008 570.628C698.756 570.651 698.519 570.761 698.34 570.94L698.764 571.365ZM699.061 571.226L699.114 571.824C699.086 571.826 699.058 571.819 699.035 571.803L699.378 571.31L699.721 570.818C699.513 570.673 699.26 570.606 699.008 570.628L699.061 571.226ZM699.378 571.31L699.028 571.798L705.766 576.627L706.115 576.139L706.465 575.651L699.727 570.822L699.378 571.31ZM706.115 576.139L705.765 576.626C705.911 576.731 706.032 576.867 706.121 577.024L706.644 576.729L707.166 576.434C706.992 576.126 706.753 575.859 706.466 575.652L706.115 576.139ZM706.644 576.729L706.121 577.024C706.21 577.181 706.263 577.355 706.277 577.535L706.875 577.486L707.474 577.438C707.445 577.085 707.34 576.742 707.166 576.434L706.644 576.729ZM706.875 577.486L706.277 577.535C706.292 577.714 706.267 577.895 706.205 578.064L706.768 578.271L707.331 578.478C707.454 578.146 707.502 577.791 707.474 577.438L706.875 577.486ZM706.768 578.271L706.205 578.064C706.143 578.233 706.045 578.386 705.917 578.514L706.342 578.938L706.766 579.362C707.016 579.112 707.209 578.81 707.331 578.478L706.768 578.271ZM706.342 578.938L705.917 578.514C705.79 578.641 705.636 578.739 705.467 578.802L705.674 579.365L705.881 579.928C706.214 579.806 706.516 579.613 706.766 579.362L706.342 578.938ZM705.674 579.365L705.467 578.802C705.298 578.864 705.118 578.888 704.938 578.874L704.89 579.472L704.841 580.07C705.194 580.099 705.549 580.05 705.881 579.928L705.674 579.365ZM704.89 579.472L704.938 578.874C704.758 578.859 704.584 578.806 704.427 578.717L704.132 579.24L703.838 579.763C704.146 579.937 704.488 580.041 704.841 580.07L704.89 579.472ZM704.132 579.24L704.427 578.717C704.27 578.629 704.135 578.507 704.029 578.361L703.542 578.712L703.055 579.062C703.262 579.35 703.529 579.589 703.838 579.763L704.132 579.24Z" fill="white" mask="url(#path-28-outside-2_1326_71331)"/>
<path d="M673.254 618.799V616.596L679.254 610.807C680.965 609.096 681.856 608.088 681.856 606.658C681.856 605.088 680.614 604.08 678.95 604.08C677.192 604.08 676.067 605.182 676.09 606.893H673.184C673.161 603.682 675.575 601.596 678.973 601.596C682.442 601.596 684.786 603.658 684.786 606.518C684.786 608.439 683.848 609.986 680.52 613.127L677.496 616.127V616.244H685.043V618.799H673.254ZM693.739 619.033C690.34 619.033 687.856 617.018 687.762 614.205H690.739C690.832 615.588 692.121 616.572 693.739 616.572C695.637 616.572 696.996 615.189 696.996 613.314C696.996 611.369 695.59 609.986 693.645 609.986C692.332 609.963 691.371 610.432 690.832 611.439H687.996L689.028 601.83H699.059V604.385H691.536L691.02 608.885H691.184C691.84 608.135 693.082 607.596 694.465 607.596C697.629 607.596 699.95 609.963 699.95 613.221C699.95 616.619 697.395 619.033 693.739 619.033ZM704.403 616.689C703.395 616.689 702.575 615.869 702.575 614.861C702.575 613.877 703.395 613.057 704.403 613.057C705.364 613.057 706.207 613.877 706.207 614.861C706.207 615.869 705.364 616.689 704.403 616.689ZM704.403 607.596C703.395 607.596 702.575 606.775 702.575 605.768C702.575 604.783 703.395 603.963 704.403 603.963C705.364 603.963 706.207 604.783 706.207 605.768C706.207 606.775 705.364 607.596 704.403 607.596ZM715.231 619.033C711.598 619.033 709.02 617.064 708.95 614.205H712.02C712.114 615.564 713.473 616.455 715.231 616.455C717.106 616.455 718.442 615.424 718.442 613.924C718.442 612.4 717.129 611.299 714.926 611.299H713.403V608.955H714.926C716.731 608.955 717.996 607.947 717.973 606.471C717.996 605.041 716.918 604.08 715.254 604.08C713.661 604.08 712.278 604.971 712.231 606.4H709.301C709.371 603.541 711.95 601.596 715.278 601.596C718.723 601.596 720.95 603.705 720.926 606.307C720.95 608.205 719.684 609.588 717.832 609.963V610.104C720.223 610.432 721.582 611.955 721.559 614.088C721.582 616.947 718.911 619.033 715.231 619.033ZM730.489 619.033C726.411 619.033 723.973 615.869 723.973 610.314C723.973 604.783 726.411 601.596 730.489 601.596C734.543 601.596 737.004 604.783 737.004 610.314C737.004 615.869 734.567 619.033 730.489 619.033ZM730.489 616.479C732.621 616.479 733.934 614.393 733.934 610.314C733.934 606.26 732.598 604.127 730.489 604.127C728.379 604.127 727.043 606.26 727.043 610.314C727.043 614.393 728.356 616.479 730.489 616.479Z" fill="white"/>
<path d="M689.241 629.536V633.474H691.697V634.936H689.241V638.78H687.46V629.536H689.241ZM689.241 639.568V643.468H680.166V644.874H689.822V646.224H678.422V642.211H687.479V640.899H678.385V639.568H689.241ZM686.072 631.018V632.424H676.06V631.018H680.185V629.443H681.966V631.018H686.072ZM681.066 633.061C683.522 633.061 685.135 634.111 685.135 635.818C685.135 637.524 683.522 638.555 681.066 638.555C678.591 638.555 676.979 637.524 676.979 635.818C676.979 634.111 678.591 633.061 681.066 633.061ZM681.066 634.336C679.622 634.336 678.685 634.918 678.704 635.818C678.685 636.718 679.622 637.261 681.066 637.261C682.51 637.261 683.447 636.718 683.466 635.818C683.447 634.918 682.51 634.336 681.066 634.336ZM702.085 630.155C704.616 630.174 706.472 631.73 706.491 633.924C706.472 636.136 704.616 637.674 702.085 637.674C699.535 637.674 697.66 636.136 697.66 633.924C697.66 631.73 699.535 630.174 702.085 630.155ZM702.085 631.655C700.529 631.636 699.385 632.555 699.404 633.924C699.385 635.311 700.529 636.23 702.085 636.23C703.622 636.23 704.766 635.311 704.766 633.924C704.766 632.555 703.622 631.636 702.085 631.655ZM711.254 629.593V638.143H709.472V629.593H711.254ZM711.254 638.911V643.149H701.991V644.761H711.816V646.186H700.266V641.818H709.491V640.336H700.21V638.911H711.254ZM733.922 637.374V638.818H727.135V640.43C730.219 640.599 732.047 641.639 732.047 643.393C732.047 645.305 729.872 646.374 726.254 646.355C722.597 646.374 720.422 645.305 720.422 643.393C720.422 641.639 722.25 640.599 725.372 640.43V638.818H718.604V637.374H733.922ZM726.254 641.78C723.685 641.78 722.222 642.361 722.222 643.393C722.222 644.405 723.685 645.005 726.254 644.986C728.785 645.005 730.266 644.405 730.266 643.393C730.266 642.361 728.785 641.78 726.254 641.78ZM732.554 630.361V631.786H727.454C727.707 633.408 730.069 634.786 733.135 635.086L732.497 636.493C729.591 636.155 727.182 634.927 726.272 633.136C725.335 634.927 722.935 636.155 720.029 636.493L719.41 635.086C722.429 634.786 724.8 633.408 725.054 631.786H720.01V630.361H732.554Z" fill="white"/>
</g>
</g>
<defs>
<filter id="filter0_d_1326_71331" x="132" y="58" width="576" height="716.4" filterUnits="userSpaceOnUse" color-interpolation-filters="sRGB">
<feFlood flood-opacity="0" result="BackgroundImageFix"/>
<feColorMatrix in="SourceAlpha" type="matrix" values="0 0 0 0 0 0 0 0 0 0 0 0 0 0 0 0 0 0 127 0" result="hardAlpha"/>
<feMorphology radius="4" operator="erode" in="SourceAlpha" result="effect1_dropShadow_1326_71331"/>
<feOffset dy="16"/>
<feGaussianBlur stdDeviation="16"/>
<feComposite in2="hardAlpha" operator="out"/>
<feColorMatrix type="matrix" values="0 0 0 0 0.764706 0 0 0 0 0.792157 0 0 0 0 0.839216 0 0 0 0.3 0"/>
<feBlend mode="normal" in2="BackgroundImageFix" result="effect1_dropShadow_1326_71331"/>
<feBlend mode="normal" in="SourceGraphic" in2="effect1_dropShadow_1326_71331" result="shape"/>
</filter>
<filter id="filter1_d_1326_71331" x="625" y="532" width="160" height="160" filterUnits="userSpaceOnUse" color-interpolation-filters="sRGB">
<feFlood flood-opacity="0" result="BackgroundImageFix"/>
<feColorMatrix in="SourceAlpha" type="matrix" values="0 0 0 0 0 0 0 0 0 0 0 0 0 0 0 0 0 0 127 0" result="hardAlpha"/>
<feMorphology radius="4" operator="erode" in="SourceAlpha" result="effect1_dropShadow_1326_71331"/>
<feOffset dy="4"/>
<feGaussianBlur stdDeviation="12"/>
<feComposite in2="hardAlpha" operator="out"/>
<feColorMatrix type="matrix" values="0 0 0 0 0.298039 0 0 0 0 0.509804 0 0 0 0 0.968627 0 0 0 0.3 0"/>
<feBlend mode="normal" in2="BackgroundImageFix" result="effect1_dropShadow_1326_71331"/>
<feBlend mode="normal" in="SourceGraphic" in2="effect1_dropShadow_1326_71331" result="shape"/>
</filter>
<clipPath id="clip0_1326_71331">
<rect width="900" height="700" rx="20" fill="white"/>
</clipPath>
<clipPath id="clip1_1326_71331">
<rect width="450.667" height="591.067" fill="white" transform="translate(194.667 104.467)"/>
</clipPath>
<clipPath id="clip2_1326_71331">
<rect width="20.8" height="20.8" fill="white" transform="translate(225.867 107.066)"/>
</clipPath>
</defs>
</svg>
