<svg width="900" height="700" viewBox="0 0 900 700" fill="none" xmlns="http://www.w3.org/2000/svg">
<rect width="900" height="700" rx="20" fill="#F4F7FB"/>
<g filter="url(#filter0_d_1326_71385)">
<rect x="50" y="148" width="800" height="404.396" rx="21.978" fill="white"/>
<path d="M74.1777 201.843C74.1777 203.712 75.6063 205.14 77.4744 205.14H92.8591C94.7272 205.14 96.1558 203.712 96.1558 201.843V193.052H74.1777V201.843ZM92.8591 185.36H90.6613V184.261C90.6613 183.602 90.2217 183.162 89.5624 183.162C88.903 183.162 88.4634 183.602 88.4634 184.261V185.36H81.87V184.261C81.87 183.602 81.4305 183.162 80.7711 183.162C80.1118 183.162 79.6722 183.602 79.6722 184.261V185.36H77.4744C75.6063 185.36 74.1777 186.788 74.1777 188.657V190.854H96.1558V188.657C96.1558 186.788 94.7272 185.36 92.8591 185.36Z" fill="#515660"/>
<path d="M122.057 186.049V198.755H112.871V186.049H122.057ZM115.21 187.916V196.845H119.674V187.916H115.21ZM127.38 184.16V191.608H130.363V193.625H127.38V203.563H124.997V184.16H127.38ZM146.482 184.16V188.581H149.186V190.535H146.482V195.063H144.099V184.16H146.482ZM141.094 185.341C141.073 190.384 137.768 193.883 131.973 195.428L131.028 193.518C135.525 192.359 138.079 190.073 138.497 187.272H131.951V185.341H141.094ZM146.482 195.836V203.305H133.926V195.836H146.482ZM136.308 197.789V201.416H144.121V197.789H136.308ZM155.668 184.782C158.608 184.782 160.797 186.607 160.819 189.161C160.797 191.736 158.608 193.539 155.668 193.539C152.706 193.539 150.517 191.736 150.517 189.161C150.517 186.607 152.706 184.782 155.668 184.782ZM155.668 186.757C154.037 186.757 152.835 187.68 152.835 189.161C152.835 190.663 154.037 191.608 155.668 191.608C157.299 191.608 158.501 190.663 158.501 189.161C158.501 187.68 157.299 186.757 155.668 186.757ZM166.335 184.16V193.969H163.931V184.16H166.335ZM166.335 194.806V199.871H155.839V201.438H166.914V203.326H153.5V198.111H163.952V196.673H153.457V194.806H166.335ZM183.012 185.255C183.012 189.977 180.736 193.239 175.521 195.149L174.469 193.496C176.777 192.67 178.365 191.608 179.363 190.32L174.813 190.835L174.491 188.903L180.307 188.603C180.468 188.152 180.576 187.68 180.651 187.186H175.349V185.255H183.012ZM190.974 184.182V194.226H188.699V190.256H186.66V194.119H184.407V184.546H186.66V188.324H188.699V184.182H190.974ZM190.974 194.977V199.935H180.243V201.459H191.661V203.326H177.86V198.197H188.613V196.845H177.839V194.977H190.974ZM209.497 184.182V198.454H207.136V184.182H209.497ZM210.033 201.245V203.176H196.576V197.295H198.98V201.245H210.033ZM203.315 185.491V191.479H196.748V193.926C200.257 193.915 202.564 193.808 205.247 193.325L205.505 195.235C202.586 195.772 200.032 195.879 196.061 195.879H194.408V189.676H200.955V187.401H194.365V185.491H203.315ZM222.181 185.92V187.873H215.721V196.909C218.747 196.888 220.883 196.759 223.297 196.308L223.555 198.24C220.829 198.776 218.49 198.884 214.863 198.884H213.317V185.92H222.181ZM228.663 184.16V203.584H226.281V192.938H221.151V190.985H226.281V184.16H228.663Z" fill="#292C32"/>
<rect x="595.496" y="170.526" width="47.2527" height="47.2527" rx="12.6374" stroke="#E4E8F0" stroke-width="1.0989"/>
<path d="M622.969 186.461L615.276 194.164L622.947 201.846" stroke="#515660" stroke-width="3.2967" stroke-linecap="round" stroke-linejoin="round"/>
<path d="M657.772 201.652V199.635L663.267 194.333C664.833 192.767 665.649 191.844 665.649 190.535C665.649 189.097 664.512 188.174 662.988 188.174C661.378 188.174 660.348 189.182 660.369 190.749H657.708C657.686 187.809 659.897 185.899 663.009 185.899C666.186 185.899 668.332 187.787 668.332 190.406C668.332 192.166 667.473 193.582 664.426 196.458L661.657 199.206V199.313H668.568V201.652H657.772ZM676.745 201.867C673.011 201.867 670.779 198.969 670.779 193.883C670.779 188.818 673.011 185.899 676.745 185.899C680.458 185.899 682.712 188.818 682.712 193.883C682.712 198.969 680.48 201.867 676.745 201.867ZM676.745 199.528C678.698 199.528 679.9 197.617 679.9 193.883C679.9 190.17 678.677 188.217 676.745 188.217C674.814 188.217 673.59 190.17 673.59 193.883C673.59 197.617 674.792 199.528 676.745 199.528ZM685.052 201.652V199.635L690.546 194.333C692.113 192.767 692.928 191.844 692.928 190.535C692.928 189.097 691.791 188.174 690.267 188.174C688.657 188.174 687.627 189.182 687.649 190.749H684.987C684.966 187.809 687.176 185.899 690.288 185.899C693.465 185.899 695.611 187.787 695.611 190.406C695.611 192.166 694.753 193.582 691.705 196.458L688.936 199.206V199.313H695.847V201.652H685.052ZM703.81 201.867C700.698 201.867 698.423 200.021 698.337 197.446H701.063C701.149 198.712 702.329 199.613 703.81 199.613C705.549 199.613 706.793 198.347 706.793 196.63C706.793 194.849 705.506 193.582 703.724 193.582C702.522 193.561 701.642 193.99 701.149 194.913H698.552L699.496 186.113H708.682V188.453H701.793L701.32 192.574H701.471C702.072 191.887 703.209 191.393 704.475 191.393C707.373 191.393 709.498 193.561 709.498 196.544C709.498 199.656 707.158 201.867 703.81 201.867ZM727.462 184.182V198.476H725.08V192.015H720.015V190.127H725.08V188.367H720.015V186.478H725.08V184.182H727.462ZM727.956 201.245V203.176H714.713V197.21H717.117V201.245H727.956ZM714.692 185.469V193.861C717.16 193.829 719.489 193.679 722.096 193.217L722.333 195.149C719.349 195.707 716.731 195.814 713.855 195.836H712.331V185.469H714.692ZM736.648 201.652L743.388 188.56V188.453H735.575V186.113H746.285V188.496L739.546 201.652H736.648ZM764.164 184.182V195.492H761.76V194.698H758.133V193.239H761.76V184.182H764.164ZM747.873 191.178C751.629 191.178 756.308 191.136 760.472 190.728L760.601 192.23C758.83 192.477 757.006 192.627 755.214 192.702V195.514H752.853V192.81C751.189 192.853 749.59 192.863 748.131 192.853L747.873 191.178ZM764.164 196.093V200.45H753.132V201.695H764.679V203.391H750.792V198.884H761.803V197.725H750.707V196.093H764.164ZM754.141 184.482C757.017 184.482 758.991 185.641 758.991 187.401C758.991 189.204 757.017 190.298 754.141 190.298C751.2 190.298 749.247 189.204 749.247 187.401C749.247 185.641 751.2 184.482 754.141 184.482ZM754.141 186.07C752.509 186.07 751.501 186.585 751.522 187.401C751.501 188.217 752.509 188.71 754.141 188.71C755.729 188.71 756.759 188.217 756.759 187.401C756.759 186.585 755.729 186.07 754.141 186.07Z" fill="#485057"/>
<rect x="780.221" y="170.526" width="47.2528" height="47.2528" rx="12.6374" stroke="#E4E8F0" stroke-width="1.0989"/>
<path d="M800.002 201.844L807.694 194.14L800.024 186.459" stroke="#515660" stroke-width="3.2967" stroke-linecap="round" stroke-linejoin="round"/>
<rect x="110.258" y="236.828" width="94.8718" height="42.1245" fill="white"/>
<rect x="110.258" y="236.828" width="94.8718" height="42.1245" stroke="white" stroke-width="1.8315"/>
<path d="M155.023 249.981C157.341 249.998 159.041 251.423 159.058 253.432C159.041 255.458 157.341 256.866 155.023 256.866C152.688 256.866 150.971 255.458 150.971 253.432C150.971 251.423 152.688 249.998 155.023 249.981ZM155.023 251.354C153.598 251.337 152.551 252.178 152.568 253.432C152.551 254.702 153.598 255.544 155.023 255.544C156.431 255.544 157.479 254.702 157.479 253.432C157.479 252.178 156.431 251.337 155.023 251.354ZM163.42 249.465V257.295H161.788V249.465H163.42ZM163.42 257.999V261.88H154.938V263.356H163.935V264.661H153.358V260.661H161.806V259.304H153.306V257.999H163.42Z" fill="#A3ABB0"/>
<rect x="206.961" y="236.828" width="94.8718" height="42.1245" fill="white"/>
<rect x="206.961" y="236.828" width="94.8718" height="42.1245" stroke="white" stroke-width="1.8315"/>
<path d="M260.157 249.483V258.497H258.526V257.759H255.521V256.729H258.526V249.483H260.157ZM247.331 255.149C250.301 255.166 254.079 255.132 257.393 254.771L257.479 255.819C256.028 256.016 254.525 256.136 253.049 256.213V258.531H251.435V256.282C250.044 256.316 248.722 256.325 247.52 256.316L247.331 255.149ZM260.157 259.012V262.326H251.297V263.511H260.621V264.696H249.7V261.244H258.543V260.145H249.632V259.012H260.157ZM252.327 249.74C254.611 249.74 256.156 250.65 256.174 252.058C256.156 253.501 254.611 254.359 252.327 254.359C249.992 254.359 248.464 253.501 248.481 252.058C248.464 250.65 249.992 249.74 252.327 249.74ZM252.327 250.839C250.902 250.839 250.009 251.32 250.009 252.058C250.009 252.797 250.902 253.26 252.327 253.26C253.718 253.26 254.628 252.797 254.628 252.058C254.628 251.32 253.718 250.839 252.327 250.839Z" fill="#A3ABB0"/>
<rect x="303.664" y="236.828" width="94.8718" height="42.1245" fill="white"/>
<rect x="303.664" y="236.828" width="94.8718" height="42.1245" stroke="white" stroke-width="1.8315"/>
<path d="M356.122 249.465V255.904H358.44V257.278H356.122V264.85H354.491V249.465H356.122ZM343.879 260.661C345.09 260.661 346.498 260.661 347.966 260.609V259.047C346.232 258.806 345.099 257.759 345.116 256.265C345.099 254.531 346.592 253.38 348.79 253.38C350.971 253.38 352.482 254.531 352.499 256.265C352.482 257.759 351.331 258.815 349.597 259.064V260.54C350.962 260.489 352.336 260.377 353.615 260.197L353.718 261.399C350.387 262 346.781 262.017 344.137 262.017L343.879 260.661ZM353.392 251.286V252.59H344.171V251.286H347.966V249.5H349.597V251.286H353.392ZM348.79 254.651C347.502 254.651 346.644 255.286 346.644 256.265C346.644 257.244 347.502 257.845 348.79 257.845C350.078 257.845 350.936 257.244 350.936 256.265C350.936 255.286 350.078 254.651 348.79 254.651Z" fill="#A3ABB0"/>
<rect x="400.368" y="236.828" width="94.8718" height="42.1245" fill="white"/>
<rect x="400.368" y="236.828" width="94.8718" height="42.1245" stroke="white" stroke-width="1.8315"/>
<path d="M448.654 250.822C448.636 252.865 451.143 254.788 454.165 255.183L453.53 256.522C451.015 256.119 448.8 254.814 447.812 253.003C446.799 254.823 444.593 256.119 442.095 256.522L441.442 255.183C444.464 254.788 446.937 252.882 446.954 250.822V249.981H448.654V250.822ZM454.801 258.033V259.373H448.551V264.85H446.954V259.373H440.772V258.033H454.801Z" fill="#A3ABB0"/>
<rect x="497.071" y="236.828" width="94.8718" height="42.1245" fill="white"/>
<rect x="497.071" y="236.828" width="94.8718" height="42.1245" stroke="white" stroke-width="1.8315"/>
<path d="M549.718 250.101V255.372H545.288V257.158H551.504V258.48H537.476V257.158H543.674V255.372H539.261V250.101H549.718ZM540.858 251.389V254.067H548.104V251.389H540.858ZM549.787 259.939V264.85H548.138V261.227H539.038V259.939H549.787Z" fill="#A3ABB0"/>
<rect x="593.774" y="236.828" width="94.8718" height="42.1245" fill="white"/>
<rect x="593.774" y="236.828" width="94.8718" height="42.1245" stroke="white" stroke-width="1.8315"/>
<path d="M646.473 250.238V251.406C646.473 252.616 646.473 253.99 646.078 255.853H648.258V257.192H634.179V255.853H644.429C644.841 254.059 644.859 252.745 644.859 251.577H635.947V250.238H646.473ZM646.49 259.15V264.661H635.896V259.15H646.49ZM637.493 260.437V263.339H644.876V260.437H637.493Z" fill="#A3ABB0"/>
<rect x="690.477" y="236.828" width="94.8718" height="42.1245" fill="white"/>
<rect x="690.477" y="236.828" width="94.8718" height="42.1245" stroke="white" stroke-width="1.8315"/>
<path d="M743.365 257.347V258.652H738.712V261.656H744.962V262.996H730.882V261.656H737.08V258.652H732.65V250.65H743.21V251.99H734.299V253.964H742.884V255.252H734.299V257.347H743.365Z" fill="#A3ABB0"/>
<rect x="110.258" y="280.783" width="94.8718" height="46.5201" fill="white"/>
<rect x="110.258" y="280.783" width="94.8718" height="46.5201" stroke="white" stroke-width="1.8315"/>
<path d="M159.574 283.924V296.355H157.668V285.813H157.599L154.628 287.753V285.95L157.719 283.924H159.574Z" fill="#485057"/>
<rect x="206.961" y="280.783" width="94.8718" height="46.5201" fill="white"/>
<rect x="206.961" y="280.783" width="94.8718" height="46.5201" stroke="white" stroke-width="1.8315"/>
<path d="M250.267 296.355V294.982L254.577 290.638C255.933 289.213 256.62 288.423 256.62 287.341C256.62 286.122 255.624 285.332 254.319 285.332C252.946 285.332 252.053 286.208 252.053 287.53H250.267C250.25 285.263 251.984 283.752 254.354 283.752C256.757 283.752 258.406 285.263 258.423 287.29C258.406 288.68 257.753 289.779 255.418 292.08L252.894 294.638V294.741H258.629V296.355H250.267Z" fill="#485057"/>
<rect x="303.664" y="280.783" width="94.8718" height="46.5201" fill="white"/>
<rect x="303.664" y="280.783" width="94.8718" height="46.5201" stroke="white" stroke-width="1.8315"/>
<path d="M351.125 296.527C348.55 296.527 346.713 295.136 346.644 293.11H348.567C348.636 294.209 349.717 294.896 351.108 294.896C352.602 294.896 353.701 294.072 353.701 292.87C353.701 291.651 352.671 290.758 350.902 290.758H349.838V289.213H350.902C352.31 289.213 353.306 288.423 353.306 287.238C353.306 286.105 352.465 285.332 351.143 285.332C349.889 285.332 348.79 286.019 348.739 287.152H346.919C346.97 285.126 348.842 283.752 351.16 283.752C353.598 283.752 355.143 285.298 355.126 287.135C355.143 288.543 354.268 289.573 352.928 289.899V289.985C354.628 290.226 355.607 291.359 355.607 292.939C355.607 295.016 353.701 296.527 351.125 296.527Z" fill="#485057"/>
<rect x="400.368" y="280.783" width="94.8718" height="46.5201" fill="white"/>
<rect x="400.368" y="280.783" width="94.8718" height="46.5201" stroke="white" stroke-width="1.8315"/>
<path d="M443.048 293.934V292.406L448.542 283.924H450.877V292.338H452.577V293.934H450.877V296.355H449.091V293.934H443.048ZM445.039 292.338H449.091V286.173H448.954L445.039 292.235V292.338Z" fill="#485057"/>
<rect x="497.071" y="280.783" width="94.8718" height="46.5201" fill="white"/>
<rect x="497.071" y="280.783" width="94.8718" height="46.5201" stroke="white" stroke-width="1.8315"/>
<path d="M544.498 296.527C542.146 296.527 540.377 295.085 540.292 293.11H542.129C542.232 294.175 543.245 294.948 544.498 294.948C546.009 294.948 547.091 293.849 547.091 292.372C547.091 290.861 545.975 289.762 544.412 289.745C543.417 289.745 542.661 290.071 542.232 290.844H540.446L541.253 283.924H548.293V285.538H542.816L542.403 289.024H542.524C543.039 288.526 543.914 288.182 544.859 288.182C547.194 288.182 548.928 289.917 548.928 292.32C548.928 294.776 547.091 296.527 544.498 296.527Z" fill="#667077"/>
<rect x="593.774" y="280.783" width="94.8718" height="46.5201" fill="white"/>
<rect x="593.774" y="280.783" width="94.8718" height="46.5201" stroke="white" stroke-width="1.8315"/>
<path d="M641.33 296.527C639.029 296.51 636.625 295.154 636.625 290.552C636.625 286.225 638.497 283.752 641.485 283.752C643.768 283.752 645.365 285.178 645.657 287.152H643.786C643.545 286.139 642.738 285.401 641.485 285.401C639.562 285.401 638.446 287.083 638.446 289.882H638.583C639.253 288.835 640.42 288.2 641.777 288.2C643.992 288.2 645.777 289.899 645.777 292.286C645.777 294.69 644.009 296.544 641.33 296.527ZM641.313 294.948C642.824 294.948 643.94 293.78 643.94 292.32C643.94 290.895 642.858 289.745 641.364 289.745C639.836 289.745 638.686 290.947 638.669 292.338C638.686 293.711 639.785 294.948 641.313 294.948Z" fill="#667077"/>
<rect x="690.477" y="280.783" width="94.8718" height="46.5201" fill="white"/>
<rect x="690.477" y="280.783" width="94.8718" height="46.5201" stroke="white" stroke-width="1.8315"/>
<path d="M734.522 296.355L740.068 285.641V285.538H733.663V283.924H742.025V285.607L736.497 296.355H734.522Z" fill="#667077"/>
<rect x="110.258" y="331.332" width="94.8718" height="46.5201" fill="white"/>
<rect x="110.258" y="331.332" width="94.8718" height="46.5201" stroke="white" stroke-width="1.8315"/>
<path d="M157.702 347.076C155.006 347.076 153.117 345.617 153.135 343.59C153.117 341.994 154.268 340.689 155.727 340.465V340.397C154.457 340.105 153.598 338.972 153.598 337.615C153.598 335.709 155.332 334.301 157.702 334.301C160.054 334.301 161.771 335.709 161.788 337.615C161.771 338.972 160.913 340.105 159.659 340.397V340.465C161.102 340.689 162.252 341.994 162.269 343.59C162.252 345.617 160.363 347.076 157.702 347.076ZM157.702 345.514C159.316 345.514 160.346 344.672 160.346 343.453C160.346 342.165 159.23 341.238 157.702 341.238C156.157 341.238 155.023 342.165 155.058 343.453C155.023 344.672 156.054 345.514 157.702 345.514ZM157.702 339.744C159.007 339.744 159.934 338.954 159.934 337.787C159.934 336.636 159.024 335.847 157.702 335.847C156.328 335.847 155.435 336.619 155.435 337.787C155.435 338.954 156.38 339.744 157.702 339.744Z" fill="#485057"/>
<rect x="206.961" y="331.332" width="94.8718" height="46.5201" fill="white"/>
<rect x="206.961" y="331.332" width="94.8718" height="46.5201" stroke="white" stroke-width="1.8315"/>
<path d="M254.293 334.301C256.577 334.318 258.981 335.692 258.981 340.242C258.981 344.603 257.109 347.076 254.122 347.076C251.838 347.076 250.224 345.668 249.932 343.642H251.804C252.061 344.689 252.868 345.428 254.122 345.428C256.045 345.428 257.161 343.745 257.178 340.912H257.024C256.354 341.959 255.186 342.595 253.847 342.595C251.615 342.595 249.829 340.895 249.829 338.508C249.829 336.138 251.598 334.284 254.293 334.301ZM254.293 335.881C252.782 335.881 251.666 337.049 251.666 338.474C251.666 339.916 252.748 341.049 254.259 341.049C255.753 341.049 256.921 339.83 256.921 338.456C256.921 337.117 255.822 335.881 254.293 335.881Z" fill="#485057"/>
<rect x="206.045" y="356.057" width="96.7033" height="21.978" rx="4.3956" fill="#FF6B6B"/>
<path d="M254.371 373.717C252.121 373.717 250.422 372.326 250.336 370.42H251.83C251.95 371.536 253.031 372.36 254.371 372.36C255.985 372.36 257.152 371.175 257.152 369.613C257.152 367.999 255.933 366.814 254.268 366.797C253.22 366.78 252.413 367.106 251.95 367.913H250.456L251.332 361.114H258.062V362.487H252.619L252.156 366.127H252.276C252.825 365.698 253.667 365.406 254.542 365.406C256.912 365.406 258.663 367.158 258.663 369.579C258.663 371.982 256.843 373.717 254.371 373.717Z" fill="white"/>
<rect x="303.664" y="331.332" width="94.8718" height="46.5201" fill="white"/>
<rect x="303.664" y="331.332" width="94.8718" height="46.5201" stroke="white" stroke-width="1.8315"/>
<path d="M347.554 334.473V346.904H345.648V336.362H345.579L342.609 338.302V336.499L345.7 334.473H347.554ZM355.04 347.076C352.156 347.076 350.473 344.758 350.473 340.689C350.473 336.654 352.19 334.301 355.04 334.301C357.89 334.301 359.608 336.654 359.608 340.689C359.608 344.758 357.908 347.076 355.04 347.076ZM355.04 345.445C356.723 345.445 357.719 343.796 357.719 340.689C357.719 337.598 356.706 335.898 355.04 335.898C353.375 335.898 352.362 337.598 352.362 340.689C352.362 343.796 353.358 345.445 355.04 345.445Z" fill="#485057"/>
<rect x="400.368" y="331.332" width="94.8718" height="46.5201" fill="white"/>
<rect x="400.368" y="331.332" width="94.8718" height="46.5201" stroke="white" stroke-width="1.8315"/>
<path d="M445.743 334.473V346.904H443.837V336.362H443.769L440.798 338.302V336.499L443.889 334.473H445.743ZM453.624 334.473V346.904H451.719V336.362H451.65L448.679 338.302V336.499L451.77 334.473H453.624Z" fill="#485057"/>
<rect x="497.071" y="331.332" width="94.8718" height="46.5201" fill="white"/>
<rect x="497.071" y="331.332" width="94.8718" height="46.5201" stroke="white" stroke-width="1.8315"/>
<path d="M541.159 334.473V346.904H539.253V336.362H539.184L536.214 338.302V336.499L539.304 334.473H541.159ZM544.318 346.904V345.531L548.628 341.187C549.984 339.761 550.671 338.972 550.671 337.89C550.671 336.671 549.675 335.881 548.37 335.881C546.997 335.881 546.104 336.757 546.104 338.079H544.318C544.301 335.812 546.035 334.301 548.405 334.301C550.808 334.301 552.457 335.812 552.474 337.838C552.457 339.229 551.804 340.328 549.469 342.629L546.945 345.187V345.29H552.68V346.904H544.318Z" fill="#667077"/>
<rect x="593.774" y="331.332" width="94.8718" height="46.5201" fill="white"/>
<rect x="593.774" y="331.332" width="94.8718" height="46.5201" stroke="white" stroke-width="1.8315"/>
<path d="M637.604 334.473V346.904H635.698V336.362H635.63L632.659 338.302V336.499L635.75 334.473H637.604ZM645.176 347.076C642.601 347.076 640.764 345.685 640.695 343.659H642.618C642.687 344.758 643.768 345.445 645.159 345.445C646.653 345.445 647.752 344.621 647.752 343.419C647.752 342.2 646.722 341.307 644.953 341.307H643.889V339.761H644.953C646.361 339.761 647.357 338.972 647.357 337.787C647.357 336.654 646.516 335.881 645.193 335.881C643.94 335.881 642.841 336.568 642.79 337.701H640.97C641.021 335.675 642.893 334.301 645.211 334.301C647.649 334.301 649.194 335.847 649.177 337.684C649.194 339.092 648.318 340.122 646.979 340.448V340.534C648.679 340.774 649.658 341.908 649.658 343.487C649.658 345.565 647.752 347.076 645.176 347.076Z" fill="#667077"/>
<rect x="592.858" y="356.789" width="96.7033" height="21.978" rx="4.3956" fill="#5EDC8D"/>
<path d="M636.583 371.736V370.466L642.18 361.846H644.086V370.38H645.82V371.736H644.086V374.277H642.609V371.736H636.583ZM638.248 370.38H642.609V363.803H642.455L638.248 370.277V370.38Z" fill="white"/>
<rect x="690.477" y="331.332" width="94.8718" height="46.5201" fill="white"/>
<rect x="690.477" y="331.332" width="94.8718" height="46.5201" stroke="white" stroke-width="1.8315"/>
<path d="M734.213 334.473V346.904H732.307V336.362H732.238L729.268 338.302V336.499L732.358 334.473H734.213ZM737.097 344.483V342.955L742.592 334.473H744.927V342.886H746.627V344.483H744.927V346.904H743.141V344.483H737.097ZM739.089 342.886H743.141V336.722H743.004L739.089 342.783V342.886Z" fill="#667077"/>
<rect x="110.258" y="381.883" width="94.8718" height="46.5201" fill="white"/>
<rect x="110.258" y="381.883" width="94.8718" height="46.5201" stroke="white" stroke-width="1.8315"/>
<path d="M154.242 385.024V397.455H152.336V386.912H152.268L149.297 388.853V387.05L152.388 385.024H154.242ZM161.625 397.627C159.273 397.627 157.504 396.184 157.419 394.21H159.256C159.359 395.274 160.372 396.047 161.625 396.047C163.136 396.047 164.218 394.948 164.218 393.472C164.218 391.961 163.102 390.862 161.54 390.845C160.544 390.845 159.788 391.171 159.359 391.943H157.573L158.38 385.024H165.42V386.638H159.943L159.531 390.123H159.651C160.166 389.625 161.042 389.282 161.986 389.282C164.321 389.282 166.055 391.016 166.055 393.42C166.055 395.875 164.218 397.627 161.625 397.627Z" fill="#485057"/>
<rect x="206.961" y="381.883" width="94.8718" height="46.5201" fill="white"/>
<rect x="206.961" y="381.883" width="94.8718" height="46.5201" stroke="white" stroke-width="1.8315"/>
<path d="M250.799 385.024V397.455H248.893V386.912H248.825L245.854 388.853V387.05L248.945 385.024H250.799ZM258.457 397.627C256.156 397.61 253.753 396.253 253.753 391.652C253.753 387.325 255.624 384.852 258.612 384.852C260.895 384.852 262.492 386.277 262.784 388.252H260.913C260.672 387.239 259.865 386.5 258.612 386.5C256.689 386.5 255.573 388.183 255.573 390.982H255.71C256.38 389.934 257.547 389.299 258.904 389.299C261.119 389.299 262.904 390.999 262.904 393.386C262.904 395.79 261.136 397.644 258.457 397.627ZM258.44 396.047C259.951 396.047 261.067 394.88 261.067 393.42C261.067 391.995 259.985 390.845 258.492 390.845C256.963 390.845 255.813 392.046 255.796 393.437C255.813 394.811 256.912 396.047 258.44 396.047Z" fill="#485057"/>
<rect x="303.664" y="381.883" width="94.8718" height="46.5201" fill="white"/>
<rect x="303.664" y="381.883" width="94.8718" height="46.5201" stroke="white" stroke-width="1.8315"/>
<path d="M348.06 385.024V397.455H346.155V386.912H346.086L343.115 388.853V387.05L346.206 385.024H348.06ZM351.649 397.455L357.195 386.741V386.638H350.791V385.024H359.152V386.706L353.624 397.455H351.649Z" fill="#485057"/>
<rect x="400.368" y="381.883" width="94.8718" height="46.5201" fill="white"/>
<rect x="400.368" y="381.883" width="94.8718" height="46.5201" stroke="white" stroke-width="1.8315"/>
<path d="M444.249 385.024V397.455H442.344V386.912H442.275L439.304 388.853V387.05L442.395 385.024H444.249ZM451.753 397.627C449.057 397.627 447.168 396.167 447.186 394.141C447.168 392.544 448.319 391.239 449.778 391.016V390.948C448.508 390.656 447.649 389.522 447.649 388.166C447.649 386.26 449.383 384.852 451.753 384.852C454.105 384.852 455.822 386.26 455.839 388.166C455.822 389.522 454.964 390.656 453.71 390.948V391.016C455.153 391.239 456.303 392.544 456.32 394.141C456.303 396.167 454.414 397.627 451.753 397.627ZM451.753 396.064C453.367 396.064 454.397 395.223 454.397 394.004C454.397 392.716 453.281 391.789 451.753 391.789C450.208 391.789 449.074 392.716 449.109 394.004C449.074 395.223 450.105 396.064 451.753 396.064ZM451.753 390.295C453.058 390.295 453.985 389.505 453.985 388.338C453.985 387.187 453.075 386.397 451.753 386.397C450.379 386.397 449.486 387.17 449.486 388.338C449.486 389.505 450.431 390.295 451.753 390.295Z" fill="#485057"/>
<rect x="399.452" y="407.34" width="96.7033" height="21.978" rx="4.3956" fill="#FFA94D"/>
<path d="M424.409 423.18V424.33H410.432V423.18H416.7V419.66H411.703V418.578H414.09V413.564H411.669V412.448H423.07V413.564H420.649V418.578H423.036V419.66H418.022V423.18H424.409ZM415.429 418.578H419.327V413.564H415.429V418.578ZM437.991 419.213V420.312H427.431V412.277H437.819V413.41H428.805V415.676H437.493V416.758H428.805V419.213H437.991ZM439.605 423.111V424.227H425.628V423.111H439.605ZM453.41 411.367V412.414H451.057V415.402H453.358V416.432H448.43V417.926H454.732V419.007H440.824V417.926H447.091V416.432H442.18V415.402H444.481V412.414H442.129V411.367H453.41ZM452.946 420.226V423.506H443.88V425.017H453.41V426.047H442.541V422.527H451.624V421.222H442.507V420.226H452.946ZM445.821 415.402H449.718V412.414H445.821V415.402ZM468.623 410.954V426.253H467.283V410.954H468.623ZM463.987 412.38V417.805H458.286V421.411C460.819 421.411 463.077 421.3 465.807 420.862L465.944 421.995C463.128 422.441 460.81 422.544 458.183 422.544H456.913V416.707H462.63V413.496H456.878V412.38H463.987ZM478.169 411.95C481.415 411.968 483.75 413.547 483.75 415.951C483.75 418.226 481.724 419.737 478.822 419.917V423.128H485.192V424.262H471.215V423.128H477.5V419.917C474.607 419.729 472.589 418.218 472.589 415.951C472.589 413.547 474.924 411.968 478.169 411.95ZM478.169 413.066C475.697 413.066 473.894 414.234 473.894 415.951C473.894 417.72 475.697 418.853 478.169 418.87C480.642 418.853 482.445 417.72 482.445 415.951C482.445 414.234 480.642 413.066 478.169 413.066Z" fill="white"/>
<rect x="497.071" y="381.883" width="94.8718" height="46.5201" fill="white"/>
<rect x="497.071" y="381.883" width="94.8718" height="46.5201" stroke="white" stroke-width="1.8315"/>
<path d="M540.91 385.024V397.455H539.004V386.912H538.935L535.965 388.853V387.05L539.055 385.024H540.91ZM548.344 384.852C550.628 384.869 553.032 386.243 553.032 390.793C553.032 395.154 551.16 397.627 548.173 397.627C545.889 397.627 544.275 396.219 543.983 394.193H545.855C546.112 395.24 546.919 395.978 548.173 395.978C550.096 395.978 551.212 394.296 551.229 391.463H551.074C550.405 392.51 549.237 393.145 547.898 393.145C545.666 393.145 543.88 391.445 543.88 389.059C543.88 386.689 545.649 384.835 548.344 384.852ZM548.344 386.432C546.833 386.432 545.717 387.599 545.717 389.024C545.717 390.467 546.799 391.6 548.31 391.6C549.804 391.6 550.971 390.381 550.971 389.007C550.971 387.668 549.873 386.432 548.344 386.432Z" fill="#667077"/>
<rect x="593.774" y="381.883" width="94.8718" height="46.5201" fill="white"/>
<rect x="593.774" y="381.883" width="94.8718" height="46.5201" stroke="white" stroke-width="1.8315"/>
<path d="M631.655 397.455V396.081L635.964 391.737C637.321 390.312 638.008 389.522 638.008 388.441C638.008 387.222 637.012 386.432 635.707 386.432C634.333 386.432 633.44 387.307 633.44 388.63H631.655C631.638 386.363 633.372 384.852 635.741 384.852C638.145 384.852 639.793 386.363 639.811 388.389C639.793 389.78 639.141 390.879 636.806 393.18L634.282 395.738V395.841H640.017V397.455H631.655ZM646.438 397.627C643.554 397.627 641.871 395.309 641.871 391.239C641.871 387.204 643.588 384.852 646.438 384.852C649.289 384.852 651.006 387.204 651.006 391.239C651.006 395.309 649.306 397.627 646.438 397.627ZM646.438 395.996C648.121 395.996 649.117 394.347 649.117 391.239C649.117 388.149 648.104 386.449 646.438 386.449C644.773 386.449 643.76 388.149 643.76 391.239C643.76 394.347 644.756 395.996 646.438 395.996Z" fill="#667077"/>
<rect x="690.477" y="381.883" width="94.8718" height="46.5201" fill="white"/>
<rect x="690.477" y="381.883" width="94.8718" height="46.5201" stroke="white" stroke-width="1.8315"/>
<path d="M729.843 397.455V396.081L734.153 391.737C735.509 390.312 736.196 389.522 736.196 388.441C736.196 387.222 735.2 386.432 733.895 386.432C732.522 386.432 731.629 387.307 731.629 388.63H729.843C729.826 386.363 731.56 384.852 733.93 384.852C736.333 384.852 737.982 386.363 737.999 388.389C737.982 389.78 737.329 390.879 734.994 393.18L732.47 395.738V395.841H738.205V397.455H729.843ZM745.022 385.024V397.455H743.116V386.912H743.047L740.077 388.853V387.05L743.167 385.024H745.022Z" fill="#667077"/>
<rect x="110.258" y="432.431" width="94.8718" height="46.5201" fill="white"/>
<rect x="110.258" y="432.431" width="94.8718" height="46.5201" stroke="white" stroke-width="1.8315"/>
<path d="M148.336 448.004V446.63L152.645 442.286C154.002 440.861 154.689 440.071 154.689 438.989C154.689 437.77 153.693 436.981 152.388 436.981C151.014 436.981 150.121 437.856 150.121 439.178H148.336C148.318 436.912 150.053 435.401 152.422 435.401C154.826 435.401 156.474 436.912 156.491 438.938C156.474 440.329 155.822 441.428 153.487 443.728L150.963 446.287V446.39H156.697V448.004H148.336ZM158.792 448.004V446.63L163.102 442.286C164.458 440.861 165.145 440.071 165.145 438.989C165.145 437.77 164.149 436.981 162.844 436.981C161.471 436.981 160.578 437.856 160.578 439.178H158.792C158.775 436.912 160.509 435.401 162.879 435.401C165.283 435.401 166.931 436.912 166.948 438.938C166.931 440.329 166.279 441.428 163.943 443.728L161.419 446.287V446.39H167.154V448.004H158.792Z" fill="#485057"/>
<rect x="206.961" y="432.431" width="94.8718" height="46.5201" fill="white"/>
<rect x="206.961" y="432.431" width="94.8718" height="46.5201" stroke="white" stroke-width="1.8315"/>
<path d="M244.781 448.004V446.63L249.091 442.286C250.447 440.861 251.134 440.071 251.134 438.989C251.134 437.77 250.138 436.981 248.833 436.981C247.46 436.981 246.567 437.856 246.567 439.178H244.781C244.764 436.912 246.498 435.401 248.868 435.401C251.271 435.401 252.92 436.912 252.937 438.938C252.92 440.329 252.267 441.428 249.932 443.728L247.408 446.287V446.39H253.143V448.004H244.781ZM259.651 448.176C257.075 448.176 255.238 446.785 255.169 444.759H257.092C257.161 445.858 258.243 446.544 259.633 446.544C261.127 446.544 262.226 445.72 262.226 444.518C262.226 443.299 261.196 442.406 259.427 442.406H258.363V440.861H259.427C260.835 440.861 261.831 440.071 261.831 438.886C261.831 437.753 260.99 436.981 259.668 436.981C258.414 436.981 257.315 437.667 257.264 438.801H255.444C255.495 436.775 257.367 435.401 259.685 435.401C262.123 435.401 263.668 436.946 263.651 438.783C263.668 440.191 262.793 441.222 261.453 441.548V441.634C263.153 441.874 264.132 443.007 264.132 444.587C264.132 446.665 262.226 448.176 259.651 448.176Z" fill="#485057"/>
<rect x="303.664" y="432.431" width="94.8718" height="46.5201" fill="white"/>
<rect x="303.664" y="432.431" width="94.8718" height="46.5201" stroke="white" stroke-width="1.8315"/>
<path d="M341.527 448.004V446.63L345.837 442.286C347.193 440.861 347.88 440.071 347.88 438.989C347.88 437.77 346.884 436.981 345.579 436.981C344.206 436.981 343.313 437.856 343.313 439.178H341.527C341.51 436.912 343.244 435.401 345.614 435.401C348.018 435.401 349.666 436.912 349.683 438.938C349.666 440.329 349.013 441.428 346.678 443.728L344.154 446.287V446.39H349.889V448.004H341.527ZM351.434 445.583V444.055L356.929 435.573H359.264V443.986H360.964V445.583H359.264V448.004H357.478V445.583H351.434ZM353.426 443.986H357.478V437.822H357.341L353.426 443.883V443.986Z" fill="#485057"/>
<rect x="400.368" y="432.431" width="94.8718" height="46.5201" fill="white"/>
<rect x="400.368" y="432.431" width="94.8718" height="46.5201" stroke="white" stroke-width="1.8315"/>
<path d="M438.343 448.004V446.63L442.653 442.286C444.009 440.861 444.696 440.071 444.696 438.989C444.696 437.77 443.7 436.981 442.395 436.981C441.021 436.981 440.129 437.856 440.129 439.178H438.343C438.326 436.912 440.06 435.401 442.429 435.401C444.833 435.401 446.482 436.912 446.499 438.938C446.482 440.329 445.829 441.428 443.494 443.728L440.97 446.287V446.39H446.705V448.004H438.343ZM453.023 448.176C450.671 448.176 448.903 446.733 448.817 444.759H450.654C450.757 445.823 451.77 446.596 453.023 446.596C454.534 446.596 455.616 445.497 455.616 444.02C455.616 442.509 454.5 441.41 452.938 441.393C451.942 441.393 451.186 441.72 450.757 442.492H448.971L449.778 435.573H456.818V437.187H451.341L450.929 440.672H451.049C451.564 440.174 452.44 439.831 453.384 439.831C455.719 439.831 457.453 441.565 457.453 443.969C457.453 446.424 455.616 448.176 453.023 448.176Z" fill="#485057"/>
<rect x="497.071" y="432.431" width="94.8718" height="46.5201" fill="white"/>
<rect x="497.071" y="432.431" width="94.8718" height="46.5201" stroke="white" stroke-width="1.8315"/>
<path d="M534.9 448.004V446.63L539.21 442.286C540.566 440.861 541.253 440.071 541.253 438.989C541.253 437.77 540.257 436.981 538.952 436.981C537.579 436.981 536.686 437.856 536.686 439.178H534.9C534.883 436.912 536.617 435.401 538.987 435.401C541.39 435.401 543.039 436.912 543.056 438.938C543.039 440.329 542.386 441.428 540.051 443.728L537.527 446.287V446.39H543.262V448.004H534.9ZM549.855 448.176C547.555 448.158 545.151 446.802 545.151 442.2C545.151 437.873 547.022 435.401 550.01 435.401C552.294 435.401 553.89 436.826 554.182 438.801H552.311C552.07 437.788 551.263 437.049 550.01 437.049C548.087 437.049 546.971 438.732 546.971 441.531H547.108C547.778 440.483 548.945 439.848 550.302 439.848C552.517 439.848 554.303 441.548 554.303 443.935C554.303 446.338 552.534 448.193 549.855 448.176ZM549.838 446.596C551.349 446.596 552.465 445.428 552.465 443.969C552.465 442.544 551.384 441.393 549.89 441.393C548.362 441.393 547.211 442.595 547.194 443.986C547.211 445.36 548.31 446.596 549.838 446.596Z" fill="#667077"/>
<rect x="496.155" y="457.889" width="96.7033" height="21.978" rx="4.3956" fill="#FFA94D"/>
<path d="M540.515 475.377L540.498 474.244L544.739 469.779C546.215 468.217 546.919 467.376 546.919 466.225C546.919 464.955 545.838 464.113 544.447 464.113C542.97 464.113 542.026 465.058 542.026 466.448H540.566C540.549 464.251 542.249 462.774 544.498 462.774C546.748 462.774 548.362 464.285 548.362 466.225C548.362 467.616 547.709 468.698 545.511 470.964L542.661 473.9V474.003H548.585V475.377H540.515Z" fill="white"/>
<rect x="593.774" y="432.431" width="94.8718" height="46.5201" fill="white"/>
<rect x="593.774" y="432.431" width="94.8718" height="46.5201" stroke="white" stroke-width="1.8315"/>
<path d="M632.161 448.004V446.63L636.471 442.286C637.827 440.861 638.514 440.071 638.514 438.989C638.514 437.77 637.518 436.981 636.213 436.981C634.84 436.981 633.947 437.856 633.947 439.178H632.161C632.144 436.912 633.878 435.401 636.248 435.401C638.652 435.401 640.3 436.912 640.317 438.938C640.3 440.329 639.647 441.428 637.312 443.728L634.788 446.287V446.39H640.523V448.004H632.161ZM643.047 448.004L648.593 437.29V437.187H642.189V435.573H650.551V437.255L645.022 448.004H643.047Z" fill="#667077"/>
<rect x="690.477" y="432.431" width="94.8718" height="46.5201" fill="white"/>
<rect x="690.477" y="432.431" width="94.8718" height="46.5201" stroke="white" stroke-width="1.8315"/>
<path d="M728.349 448.004V446.63L732.659 442.286C734.015 440.861 734.702 440.071 734.702 438.989C734.702 437.77 733.706 436.981 732.401 436.981C731.028 436.981 730.135 437.856 730.135 439.178H728.349C728.332 436.912 730.066 435.401 732.436 435.401C734.84 435.401 736.488 436.912 736.505 438.938C736.488 440.329 735.835 441.428 733.5 443.728L730.976 446.287V446.39H736.711V448.004H728.349ZM743.15 448.176C740.454 448.176 738.566 446.716 738.583 444.69C738.566 443.093 739.716 441.788 741.175 441.565V441.496C739.905 441.204 739.046 440.071 739.046 438.715C739.046 436.809 740.781 435.401 743.15 435.401C745.502 435.401 747.219 436.809 747.237 438.715C747.219 440.071 746.361 441.204 745.107 441.496V441.565C746.55 441.788 747.7 443.093 747.717 444.69C747.7 446.716 745.811 448.176 743.15 448.176ZM743.15 446.613C744.764 446.613 745.794 445.772 745.794 444.553C745.794 443.265 744.678 442.338 743.15 442.338C741.605 442.338 740.471 443.265 740.506 444.553C740.471 445.772 741.502 446.613 743.15 446.613ZM743.15 440.844C744.455 440.844 745.382 440.054 745.382 438.886C745.382 437.736 744.472 436.946 743.15 436.946C741.776 436.946 740.884 437.719 740.884 438.886C740.884 440.054 741.828 440.844 743.15 440.844Z" fill="#667077"/>
<rect x="110.258" y="482.98" width="94.8718" height="46.5201" fill="white"/>
<rect x="110.258" y="482.98" width="94.8718" height="46.5201" stroke="white" stroke-width="1.8315"/>
<path d="M148.087 498.553V497.179L152.396 492.835C153.753 491.41 154.44 490.62 154.44 489.538C154.44 488.319 153.444 487.529 152.139 487.529C150.765 487.529 149.872 488.405 149.872 489.727H148.087C148.069 487.461 149.804 485.95 152.173 485.95C154.577 485.95 156.225 487.461 156.242 489.487C156.225 490.878 155.573 491.976 153.238 494.277L150.714 496.836V496.939H156.449V498.553H148.087ZM162.819 485.95C165.102 485.967 167.506 487.341 167.506 491.891C167.506 496.252 165.635 498.724 162.647 498.724C160.363 498.724 158.749 497.316 158.457 495.29H160.329C160.587 496.338 161.394 497.076 162.647 497.076C164.57 497.076 165.686 495.393 165.703 492.56H165.549C164.879 493.608 163.712 494.243 162.372 494.243C160.14 494.243 158.354 492.543 158.354 490.156C158.354 487.787 160.123 485.933 162.819 485.95ZM162.819 487.529C161.308 487.529 160.192 488.697 160.192 490.122C160.192 491.564 161.273 492.698 162.784 492.698C164.278 492.698 165.446 491.479 165.446 490.105C165.446 488.766 164.347 487.529 162.819 487.529Z" fill="#485057"/>
<rect x="206.961" y="482.98" width="94.8718" height="46.5201" fill="white"/>
<rect x="206.961" y="482.98" width="94.8718" height="46.5201" stroke="white" stroke-width="1.8315"/>
<path d="M248.996 498.724C246.421 498.724 244.584 497.334 244.515 495.308H246.438C246.507 496.406 247.588 497.093 248.979 497.093C250.473 497.093 251.572 496.269 251.572 495.067C251.572 493.848 250.542 492.955 248.773 492.955H247.709V491.41H248.773C250.181 491.41 251.177 490.62 251.177 489.435C251.177 488.302 250.336 487.529 249.014 487.529C247.76 487.529 246.661 488.216 246.61 489.349H244.79C244.841 487.323 246.713 485.95 249.031 485.95C251.469 485.95 253.014 487.495 252.997 489.332C253.014 490.74 252.139 491.77 250.799 492.097V492.183C252.499 492.423 253.478 493.556 253.478 495.136C253.478 497.213 251.572 498.724 248.996 498.724ZM259.882 498.724C256.998 498.724 255.315 496.406 255.315 492.337C255.315 488.302 257.032 485.95 259.882 485.95C262.733 485.95 264.45 488.302 264.45 492.337C264.45 496.406 262.75 498.724 259.882 498.724ZM259.882 497.093C261.565 497.093 262.561 495.445 262.561 492.337C262.561 489.246 261.548 487.547 259.882 487.547C258.217 487.547 257.204 489.246 257.204 492.337C257.204 495.445 258.2 497.093 259.882 497.093Z" fill="#485057"/>
</g>
<defs>
<filter id="filter0_d_1326_71385" x="22" y="136" width="856" height="460.396" filterUnits="userSpaceOnUse" color-interpolation-filters="sRGB">
<feFlood flood-opacity="0" result="BackgroundImageFix"/>
<feColorMatrix in="SourceAlpha" type="matrix" values="0 0 0 0 0 0 0 0 0 0 0 0 0 0 0 0 0 0 127 0" result="hardAlpha"/>
<feMorphology radius="4" operator="erode" in="SourceAlpha" result="effect1_dropShadow_1326_71385"/>
<feOffset dy="16"/>
<feGaussianBlur stdDeviation="16"/>
<feComposite in2="hardAlpha" operator="out"/>
<feColorMatrix type="matrix" values="0 0 0 0 0.764706 0 0 0 0 0.792157 0 0 0 0 0.839216 0 0 0 0.3 0"/>
<feBlend mode="normal" in2="BackgroundImageFix" result="effect1_dropShadow_1326_71385"/>
<feBlend mode="normal" in="SourceGraphic" in2="effect1_dropShadow_1326_71385" result="shape"/>
</filter>
</defs>
</svg>
