<svg width="52" height="52" viewBox="0 0 52 52" fill="none" xmlns="http://www.w3.org/2000/svg">
<rect x="0.481481" y="0.481481" width="51.037" height="51.037" rx="3.51852" fill="white"/>
<rect x="0.481481" y="0.481481" width="51.037" height="51.037" rx="3.51852" stroke="#E4E8F0" stroke-width="0.962963"/>
<path fill-rule="evenodd" clip-rule="evenodd" d="M35.2444 26.2189C35.2444 25.536 35.1832 24.8795 35.0694 24.2492H26V27.9741H31.1825C30.9593 29.1778 30.2808 30.1977 29.2609 30.8805V33.2966H32.3731C34.1939 31.6202 35.2444 29.1515 35.2444 26.2189Z" fill="#4285F4"/>
<path fill-rule="evenodd" clip-rule="evenodd" d="M25.9999 35.6296C28.5999 35.6296 30.7797 34.7673 32.373 33.2966L29.2609 30.8805C28.3986 31.4582 27.2955 31.7997 25.9999 31.7997C23.4918 31.7997 21.3689 30.1057 20.6117 27.8296H17.3945V30.3246C18.979 33.4717 22.2356 35.6296 25.9999 35.6296Z" fill="#34A853"/>
<path fill-rule="evenodd" clip-rule="evenodd" d="M20.6115 27.8296C20.4189 27.2518 20.3095 26.6347 20.3095 26C20.3095 25.3653 20.4189 24.7481 20.6115 24.1704V21.6754H17.3944C16.7422 22.9754 16.3701 24.4461 16.3701 26C16.3701 27.5539 16.7422 29.0246 17.3944 30.3246L20.6115 27.8296Z" fill="#FBBC05"/>
<path fill-rule="evenodd" clip-rule="evenodd" d="M25.9999 20.2003C27.4137 20.2003 28.6831 20.6862 29.6811 21.6404L32.443 18.8784C30.7753 17.3246 28.5955 16.3704 25.9999 16.3704C22.2356 16.3704 18.979 18.5283 17.3945 21.6754L20.6117 24.1704C21.3689 21.8943 23.4918 20.2003 25.9999 20.2003Z" fill="#EA4335"/>
</svg>
