<svg width="18" height="20" viewBox="0 0 18 20" xmlns="http://www.w3.org/2000/svg">
<path d="M17.6198 5.06C17.3701 4.4683 17.0066 3.93146 16.5498 3.48C16.0951 3.01536 15.5508 2.64794 14.9498 2.4C14.5838 2.24856 14.2011 2.14114 13.8098 2.08V0.75C13.8098 0.551088 13.7308 0.360322 13.5901 0.21967C13.4495 0.0790175 13.2587 0 13.0598 0C12.8609 0 12.6701 0.0790175 12.5295 0.21967C12.3888 0.360322 12.3098 0.551088 12.3098 0.75V2.02H5.6998V0.75C5.6998 0.551088 5.62078 0.360322 5.48013 0.21967C5.33948 0.0790175 5.14871 0 4.9498 0C4.75089 0 4.56012 0.0790175 4.41947 0.21967C4.27882 0.360322 4.1998 0.551088 4.1998 0.75V2.08C3.16454 2.23277 2.20668 2.71697 1.4698 3.46C1.01211 3.91641 0.649247 4.45887 0.402107 5.05613C0.154967 5.65338 0.0284352 6.29363 0.0298004 6.94V15.04C0.0281921 15.6914 0.15388 16.3368 0.399801 16.94C0.641817 17.5393 1.00236 18.0835 1.4598 18.54C1.9138 19.004 2.4578 19.372 3.0598 19.62C3.6578 19.871 4.2998 20 4.9498 20H13.0598C14.3621 19.9947 15.6094 19.4743 16.5294 18.5525C17.4493 17.6307 17.9672 16.3823 17.9698 15.08V6.97C17.9874 6.31591 17.8681 5.66536 17.6198 5.06ZM13.6198 14.65H4.4498C4.25089 14.65 4.06012 14.571 3.91947 14.4303C3.77882 14.2897 3.6998 14.0989 3.6998 13.9C3.6998 13.7011 3.77882 13.5103 3.91947 13.3697C4.06012 13.229 4.25089 13.15 4.4498 13.15H13.5498C13.7487 13.15 13.9395 13.229 14.0801 13.3697C14.2208 13.5103 14.2998 13.7011 14.2998 13.9C14.2998 14.0989 14.2208 14.2897 14.0801 14.4303C13.9395 14.571 13.7487 14.65 13.5498 14.65H13.6198ZM13.6198 9.58H4.4498C4.25089 9.58 4.06012 9.50098 3.91947 9.36033C3.77882 9.21968 3.6998 9.02891 3.6998 8.83C3.6998 8.63109 3.77882 8.44032 3.91947 8.29967C4.06012 8.15902 4.25089 8.08 4.4498 8.08H13.5498C13.7487 8.08 13.9395 8.15902 14.0801 8.29967C14.2208 8.44032 14.2998 8.63109 14.2998 8.83C14.2998 9.02891 14.2208 9.21968 14.0801 9.36033C13.9395 9.50098 13.7487 9.58 13.5498 9.58H13.6198Z" />
</svg>
