<svg width="24" height="24" viewBox="0 0 24 24" fill="none" xmlns="http://www.w3.org/2000/svg">
<path d="M20.6203 7.06C20.3706 6.4683 20.007 5.93146 19.5503 5.48C19.0956 5.01536 18.5513 4.64794 17.9503 4.4C17.5843 4.24856 17.2016 4.14114 16.8103 4.08V2.75C16.8103 2.55109 16.7313 2.36032 16.5906 2.21967C16.45 2.07902 16.2592 2 16.0603 2C15.8614 2 15.6706 2.07902 15.53 2.21967C15.3893 2.36032 15.3103 2.55109 15.3103 2.75V4.02H8.70029V2.75C8.70029 2.55109 8.62127 2.36032 8.48062 2.21967C8.33997 2.07902 8.1492 2 7.95029 2C7.75138 2 7.56061 2.07902 7.41996 2.21967C7.27931 2.36032 7.20029 2.55109 7.20029 2.75V4.08C6.16503 4.23277 5.20717 4.71697 4.47029 5.46C4.0126 5.91641 3.64974 6.45887 3.4026 7.05613C3.15546 7.65338 3.02892 8.29363 3.03029 8.94V17.04C3.02868 17.6914 3.15437 18.3368 3.40029 18.94C3.64231 19.5393 4.00285 20.0835 4.46029 20.54C4.91429 21.004 5.45829 21.372 6.06029 21.62C6.65829 21.871 7.30029 22 7.95029 22H16.0603C17.3626 21.9947 18.6099 21.4743 19.5299 20.5525C20.4498 19.6307 20.9677 18.3823 20.9703 17.08V8.97C20.9878 8.31591 20.8686 7.66536 20.6203 7.06ZM16.6203 16.65H7.45029C7.25138 16.65 7.06061 16.571 6.91996 16.4303C6.77931 16.2897 6.70029 16.0989 6.70029 15.9C6.70029 15.7011 6.77931 15.5103 6.91996 15.3697C7.06061 15.229 7.25138 15.15 7.45029 15.15H16.5503C16.7492 15.15 16.94 15.229 17.0806 15.3697C17.2213 15.5103 17.3003 15.7011 17.3003 15.9C17.3003 16.0989 17.2213 16.2897 17.0806 16.4303C16.94 16.571 16.7492 16.65 16.5503 16.65H16.6203ZM16.6203 11.58H7.45029C7.25138 11.58 7.06061 11.501 6.91996 11.3603C6.77931 11.2197 6.70029 11.0289 6.70029 10.83C6.70029 10.6311 6.77931 10.4403 6.91996 10.2997C7.06061 10.159 7.25138 10.08 7.45029 10.08H16.5503C16.7492 10.08 16.94 10.159 17.0806 10.2997C17.2213 10.4403 17.3003 10.6311 17.3003 10.83C17.3003 11.0289 17.2213 11.2197 17.0806 11.3603C16.94 11.501 16.7492 11.58 16.5503 11.58H16.6203Z" fill="#515660"/>
</svg>
