<svg width="20" height="20" viewBox="0 0 20 20" fill="none" xmlns="http://www.w3.org/2000/svg">
<path d="M12.1022 0.663884C12.7302 0.247884 13.7942 -0.0491159 14.5972 0.753884L19.2442 5.40188C20.0502 6.20588 19.7522 7.26988 19.3352 7.89688C19.1094 8.23686 18.8155 8.5263 18.4722 8.74688C18.1382 8.95988 17.7162 9.12088 17.2612 9.09688C17.041 9.08129 16.8215 9.05761 16.6032 9.02588L16.5352 9.01588C16.3005 8.98225 16.0647 8.9579 15.8282 8.94288C15.3242 8.91788 15.1302 9.00288 15.0682 9.06288L12.5782 11.5539C12.4982 11.6339 12.3982 11.8119 12.3222 12.1539C12.2492 12.4839 12.2172 12.8899 12.2092 13.3399C12.2022 13.7719 12.2172 14.2139 12.2332 14.6399L12.2342 14.6869C12.2492 15.1099 12.2642 15.5419 12.2432 15.8809C12.1782 16.9119 11.3752 17.6709 10.5852 18.0219C9.79515 18.3719 8.66815 18.4589 7.88515 17.6749L5.63515 15.4249L1.53015 19.5299C1.46149 19.6036 1.37869 19.6627 1.28669 19.7037C1.19469 19.7447 1.09538 19.7667 0.994676 19.7685C0.893973 19.7703 0.793944 19.7517 0.700556 19.714C0.607168 19.6763 0.522334 19.6201 0.451115 19.5489C0.379897 19.4777 0.323752 19.3929 0.286031 19.2995C0.24831 19.2061 0.229785 19.1061 0.231562 19.0054C0.233339 18.9047 0.255381 18.8053 0.296373 18.7133C0.337365 18.6213 0.396467 18.5385 0.470154 18.4699L4.57415 14.3649L2.32415 12.1149C1.54115 11.3309 1.62715 10.2049 1.97815 9.41488C2.32815 8.62488 3.08815 7.82188 4.11815 7.75688C4.45815 7.73588 4.89015 7.75088 5.31315 7.76588L5.36015 7.76688C5.78615 7.78188 6.22815 7.79788 6.66015 7.79088C7.11015 7.78288 7.51615 7.75088 7.84615 7.67788C8.18815 7.60188 8.36615 7.50088 8.44615 7.42088L10.9362 4.93088C10.9972 4.86988 11.0822 4.67488 11.0562 4.17088C11.0411 3.93435 11.0168 3.6985 10.9832 3.46388L10.9742 3.39588C10.9424 3.1775 10.9187 2.95801 10.9032 2.73788C10.8782 2.28288 11.0392 1.86088 11.2512 1.52688C11.4672 1.18688 11.7662 0.886884 12.1022 0.663884Z" fill="#C3CAD6"/>
</svg>
