<svg width="14" height="17" viewBox="0 0 14 17" fill="none" xmlns="http://www.w3.org/2000/svg">
<path d="M2.4 6.99991H3.99V11.9999C3.99 12.5499 4.44 12.9999 4.99 12.9999H8.99C9.54 12.9999 9.99 12.5499 9.99 11.9999V6.99991H11.58C12.47 6.99991 12.92 5.91991 12.29 5.28991L7.7 0.699915C7.60749 0.607211 7.4976 0.533664 7.37662 0.483482C7.25565 0.433301 7.12597 0.407471 6.995 0.407471C6.86403 0.407471 6.73435 0.433301 6.61338 0.483482C6.4924 0.533664 6.38251 0.607211 6.29 0.699915L1.7 5.28991C1.07 5.91991 1.51 6.99991 2.4 6.99991ZM0 15.9999C0 16.5499 0.45 16.9999 1 16.9999H13C13.55 16.9999 14 16.5499 14 15.9999C14 15.4499 13.55 14.9999 13 14.9999H1C0.45 14.9999 0 15.4499 0 15.9999Z" fill="#515660"/>
</svg>
