<svg width="24" height="24" viewBox="0 0 24 24" fill="none" xmlns="http://www.w3.org/2000/svg">
<g clip-path="url(#clip0_729_5481)">
<mask id="path-1-outside-1_729_5481" maskUnits="userSpaceOnUse" x="0.359375" y="0.360352" width="23" height="23" fill="black">
<rect fill="white" x="0.359375" y="0.360352" width="23" height="23"/>
<path fill-rule="evenodd" clip-rule="evenodd" d="M11.9996 1.36035C11.7874 1.36035 11.5839 1.44464 11.4339 1.59467C11.2839 1.7447 11.1996 1.94818 11.1996 2.16035V5.63555C11.1996 5.84772 11.2839 6.05121 11.4339 6.20124C11.5839 6.35127 11.7874 6.43555 11.9996 6.43555C12.2118 6.43555 12.4152 6.35127 12.5653 6.20124C12.7153 6.05121 12.7996 5.84772 12.7996 5.63555V2.99555C14.8168 3.17493 16.7154 4.02649 18.191 5.4137C19.6665 6.80091 20.6335 8.6434 20.9369 10.6458C21.2402 12.6481 20.8625 14.6944 19.8641 16.4564C18.8658 18.2185 17.3046 19.5942 15.4311 20.3631C13.5575 21.132 11.48 21.2496 9.53164 20.6968C7.5833 20.1441 5.877 18.9531 4.68631 17.3149C3.49562 15.6767 2.88952 13.6861 2.96518 11.6623C3.04085 9.63848 3.79389 7.6987 5.10358 6.15395C5.17497 6.07439 5.22969 5.98132 5.26451 5.88025C5.29932 5.77918 5.31353 5.67216 5.30629 5.56551C5.29906 5.45886 5.27052 5.35474 5.22236 5.2593C5.17421 5.16386 5.10741 5.07905 5.02592 5.00986C4.94444 4.94067 4.84991 4.88851 4.74793 4.85647C4.64595 4.82443 4.53858 4.81315 4.43216 4.8233C4.32575 4.83345 4.22245 4.86483 4.12836 4.91557C4.03428 4.96632 3.95132 5.0354 3.88438 5.11875C2.31652 6.96762 1.42701 9.29645 1.36308 11.7198C1.29915 14.1431 2.06464 16.5156 3.53284 18.4445C5.00104 20.3735 7.08392 21.7433 9.43671 22.3271C11.7895 22.911 14.2711 22.6739 16.4708 21.6552C18.6705 20.6364 20.4564 18.8971 21.5328 16.725C22.6093 14.553 22.9118 12.0785 22.3902 9.7111C21.8686 7.34373 20.5543 5.22542 18.6647 3.70683C16.7752 2.18823 14.4237 1.3604 11.9996 1.36035ZM10.7836 12.9284L6.75798 7.31715C6.70438 7.24013 6.67957 7.14671 6.68789 7.05324C6.6962 6.95977 6.73712 6.8722 6.80347 6.80584C6.86983 6.73949 6.9574 6.69858 7.05087 6.69026C7.14434 6.68194 7.23775 6.70675 7.31478 6.76035L12.9292 10.7844C13.1098 10.9144 13.26 11.0822 13.3694 11.276C13.4788 11.4699 13.5448 11.6852 13.5627 11.9071C13.5807 12.1289 13.5502 12.3521 13.4734 12.561C13.3965 12.7699 13.2752 12.9596 13.1178 13.117C12.9604 13.2744 12.7707 13.3957 12.5618 13.4725C12.3529 13.5493 12.1298 13.5798 11.9079 13.5619C11.686 13.5439 11.4707 13.478 11.2769 13.3686C11.083 13.2592 10.9152 13.109 10.7852 12.9284"/>
</mask>
<path fill-rule="evenodd" clip-rule="evenodd" d="M11.9996 1.36035C11.7874 1.36035 11.5839 1.44464 11.4339 1.59467C11.2839 1.7447 11.1996 1.94818 11.1996 2.16035V5.63555C11.1996 5.84772 11.2839 6.05121 11.4339 6.20124C11.5839 6.35127 11.7874 6.43555 11.9996 6.43555C12.2118 6.43555 12.4152 6.35127 12.5653 6.20124C12.7153 6.05121 12.7996 5.84772 12.7996 5.63555V2.99555C14.8168 3.17493 16.7154 4.02649 18.191 5.4137C19.6665 6.80091 20.6335 8.6434 20.9369 10.6458C21.2402 12.6481 20.8625 14.6944 19.8641 16.4564C18.8658 18.2185 17.3046 19.5942 15.4311 20.3631C13.5575 21.132 11.48 21.2496 9.53164 20.6968C7.5833 20.1441 5.877 18.9531 4.68631 17.3149C3.49562 15.6767 2.88952 13.6861 2.96518 11.6623C3.04085 9.63848 3.79389 7.6987 5.10358 6.15395C5.17497 6.07439 5.22969 5.98132 5.26451 5.88025C5.29932 5.77918 5.31353 5.67216 5.30629 5.56551C5.29906 5.45886 5.27052 5.35474 5.22236 5.2593C5.17421 5.16386 5.10741 5.07905 5.02592 5.00986C4.94444 4.94067 4.84991 4.88851 4.74793 4.85647C4.64595 4.82443 4.53858 4.81315 4.43216 4.8233C4.32575 4.83345 4.22245 4.86483 4.12836 4.91557C4.03428 4.96632 3.95132 5.0354 3.88438 5.11875C2.31652 6.96762 1.42701 9.29645 1.36308 11.7198C1.29915 14.1431 2.06464 16.5156 3.53284 18.4445C5.00104 20.3735 7.08392 21.7433 9.43671 22.3271C11.7895 22.911 14.2711 22.6739 16.4708 21.6552C18.6705 20.6364 20.4564 18.8971 21.5328 16.725C22.6093 14.553 22.9118 12.0785 22.3902 9.7111C21.8686 7.34373 20.5543 5.22542 18.6647 3.70683C16.7752 2.18823 14.4237 1.3604 11.9996 1.36035ZM10.7836 12.9284L6.75798 7.31715C6.70438 7.24013 6.67957 7.14671 6.68789 7.05324C6.6962 6.95977 6.73712 6.8722 6.80347 6.80584C6.86983 6.73949 6.9574 6.69858 7.05087 6.69026C7.14434 6.68194 7.23775 6.70675 7.31478 6.76035L12.9292 10.7844C13.1098 10.9144 13.26 11.0822 13.3694 11.276C13.4788 11.4699 13.5448 11.6852 13.5627 11.9071C13.5807 12.1289 13.5502 12.3521 13.4734 12.561C13.3965 12.7699 13.2752 12.9596 13.1178 13.117C12.9604 13.2744 12.7707 13.3957 12.5618 13.4725C12.3529 13.5493 12.1298 13.5798 11.9079 13.5619C11.686 13.5439 11.4707 13.478 11.2769 13.3686C11.083 13.2592 10.9152 13.109 10.7852 12.9284" fill="#515660"/>
<path d="M11.9996 1.36035L11.9996 0.860352H11.9996V1.36035ZM12.7996 2.99555L12.8439 2.49752L12.2996 2.44912V2.99555H12.7996ZM5.10358 6.15395L4.73128 5.8199L4.7222 5.83061L5.10358 6.15395ZM3.88438 5.11875L4.26586 5.44225L4.27422 5.43183L3.88438 5.11875ZM6.75798 7.31715L6.34752 7.60276L6.35172 7.60861L6.75798 7.31715ZM7.31478 6.76035L7.60608 6.35392L7.60036 6.34993L7.31478 6.76035ZM12.9292 10.7844L13.2213 10.3786L13.2205 10.378L12.9292 10.7844ZM11.9996 1.36035V0.860352C11.6548 0.860352 11.3241 0.997315 11.0803 1.24111L11.4339 1.59467L11.7874 1.94822C11.8437 1.89196 11.92 1.86035 11.9996 1.86035V1.36035ZM11.4339 1.59467L11.0803 1.24111C10.8365 1.48491 10.6996 1.81557 10.6996 2.16035H11.1996H11.6996C11.6996 2.08079 11.7312 2.00448 11.7874 1.94822L11.4339 1.59467ZM11.1996 2.16035H10.6996V5.63555H11.1996H11.6996V2.16035H11.1996ZM11.1996 5.63555H10.6996C10.6996 5.98033 10.8365 6.31099 11.0803 6.55479L11.4339 6.20124L11.7874 5.84768C11.7312 5.79142 11.6996 5.71512 11.6996 5.63555H11.1996ZM11.4339 6.20124L11.0803 6.55479C11.3241 6.79859 11.6548 6.93555 11.9996 6.93555V6.43555V5.93555C11.92 5.93555 11.8437 5.90394 11.7874 5.84768L11.4339 6.20124ZM11.9996 6.43555V6.93555C12.3444 6.93555 12.675 6.79859 12.9188 6.55479L12.5653 6.20124L12.2117 5.84768C12.1554 5.90394 12.0791 5.93555 11.9996 5.93555V6.43555ZM12.5653 6.20124L12.9188 6.55479C13.1626 6.31099 13.2996 5.98033 13.2996 5.63555H12.7996H12.2996C12.2996 5.71512 12.268 5.79142 12.2117 5.84768L12.5653 6.20124ZM12.7996 5.63555H13.2996V2.99555H12.7996H12.2996V5.63555H12.7996ZM12.7996 2.99555L12.7553 3.49359C14.661 3.66305 16.4546 4.46751 17.8485 5.77799L18.191 5.4137L18.5334 5.04941C16.9763 3.58548 14.9727 2.68682 12.8439 2.49752L12.7996 2.99555ZM18.191 5.4137L17.8485 5.77799C19.2424 7.08847 20.1559 8.82906 20.4425 10.7207L20.9369 10.6458L21.4312 10.5709C21.111 8.45775 20.0906 6.51335 18.5334 5.04941L18.191 5.4137ZM20.9369 10.6458L20.4425 10.7207C20.7291 12.6123 20.3722 14.5454 19.4291 16.2099L19.8641 16.4564L20.2991 16.7029C21.3527 14.8434 21.7514 12.684 21.4312 10.5709L20.9369 10.6458ZM19.8641 16.4564L19.4291 16.2099C18.4859 17.8745 17.0112 19.1742 15.2412 19.9006L15.4311 20.3631L15.6209 20.8257C17.5981 20.0143 19.2456 18.5624 20.2991 16.7029L19.8641 16.4564ZM15.4311 20.3631L15.2412 19.9006C13.4713 20.627 11.5087 20.738 9.6681 20.2158L9.53164 20.6968L9.39517 21.1778C11.4513 21.7611 13.6437 21.6371 15.6209 20.8257L15.4311 20.3631ZM9.53164 20.6968L9.6681 20.2158C7.82753 19.6936 6.2156 18.5686 5.09077 17.0209L4.68631 17.3149L4.28186 17.6089C5.5384 19.3377 7.33908 20.5945 9.39517 21.1778L9.53164 20.6968ZM4.68631 17.3149L5.09077 17.0209C3.96594 15.4733 3.39336 13.5928 3.46484 11.681L2.96518 11.6623L2.46553 11.6436C2.38569 13.7793 3.02531 15.88 4.28186 17.6089L4.68631 17.3149ZM2.96518 11.6623L3.46484 11.681C3.53631 9.7691 4.24771 7.9366 5.48496 6.4773L5.10358 6.15395L4.7222 5.83061C3.34008 7.46079 2.54538 9.50786 2.46553 11.6436L2.96518 11.6623ZM5.10358 6.15395L5.47573 6.48787C5.59174 6.35858 5.68066 6.20734 5.73724 6.04311L5.26451 5.88025L4.79177 5.7174C4.77872 5.7553 4.7582 5.7902 4.73142 5.82003L5.10358 6.15395ZM5.26451 5.88025L5.73724 6.04311C5.79382 5.87887 5.81691 5.70496 5.80515 5.53165L5.30629 5.56551L4.80744 5.59937C4.81016 5.63936 4.80483 5.6795 4.79177 5.7174L5.26451 5.88025ZM5.30629 5.56551L5.80515 5.53165C5.79338 5.35834 5.74701 5.18915 5.66875 5.03406L5.22236 5.2593L4.77597 5.48454C4.79403 5.52033 4.80473 5.55937 4.80744 5.59937L5.30629 5.56551ZM5.22236 5.2593L5.66875 5.03406C5.5905 4.87898 5.48196 4.74115 5.34955 4.62871L5.02592 5.00986L4.7023 5.391C4.73286 5.41694 4.75791 5.44875 4.77597 5.48454L5.22236 5.2593ZM5.02592 5.00986L5.34955 4.62871C5.21713 4.51628 5.06353 4.43153 4.8978 4.37946L4.74793 4.85647L4.59806 5.33348C4.6363 5.34549 4.67175 5.36505 4.7023 5.391L5.02592 5.00986ZM4.74793 4.85647L4.8978 4.37946C4.73208 4.32739 4.5576 4.30906 4.38468 4.32556L4.43216 4.8233L4.47964 5.32104C4.51955 5.31723 4.55981 5.32146 4.59806 5.33348L4.74793 4.85647ZM4.43216 4.8233L4.38468 4.32556C4.21176 4.34205 4.04389 4.39304 3.891 4.4755L4.12836 4.91557L4.36572 5.35564C4.401 5.33661 4.43974 5.32485 4.47964 5.32104L4.43216 4.8233ZM4.12836 4.91557L3.891 4.4755C3.73812 4.55796 3.60331 4.67023 3.49453 4.80567L3.88438 5.11875L4.27422 5.43183C4.29933 5.40058 4.33044 5.37467 4.36572 5.35564L4.12836 4.91557ZM3.88438 5.11875L3.50304 4.79537C1.8615 6.73112 0.930184 9.16939 0.863252 11.7066L1.36308 11.7198L1.8629 11.7329C1.92383 9.42352 2.77154 7.20412 4.26572 5.44213L3.88438 5.11875ZM1.36308 11.7198L0.863252 11.7066C0.79632 14.2438 1.59778 16.7277 3.13498 18.7474L3.53284 18.4445L3.9307 18.1417C2.5315 16.3034 1.80198 14.0424 1.8629 11.7329L1.36308 11.7198ZM3.53284 18.4445L3.13498 18.7474C4.67217 20.767 6.85293 22.2011 9.31628 22.8124L9.43671 22.3271L9.55714 21.8418C7.31491 21.2854 5.32991 19.98 3.9307 18.1417L3.53284 18.4445ZM9.43671 22.3271L9.31628 22.8124C11.7796 23.4237 14.3779 23.1755 16.681 22.1089L16.4708 21.6552L16.2607 21.2015C14.1644 22.1723 11.7994 22.3983 9.55714 21.8418L9.43671 22.3271ZM16.4708 21.6552L16.681 22.1089C18.984 21.0423 20.8538 19.2212 21.9808 16.9471L21.5328 16.725L21.0848 16.503C20.059 18.573 18.357 20.2306 16.2607 21.2015L16.4708 21.6552ZM21.5328 16.725L21.9808 16.9471C23.1079 14.6729 23.4246 12.0822 22.8785 9.60353L22.3902 9.7111L21.9019 9.81868C22.399 12.0748 22.1107 14.433 21.0848 16.503L21.5328 16.725ZM22.3902 9.7111L22.8785 9.60353C22.3324 7.1249 20.9563 4.90705 18.978 3.31709L18.6647 3.70683L18.3515 4.09656C20.1523 5.54379 21.4048 7.56255 21.9019 9.81868L22.3902 9.7111ZM18.6647 3.70683L18.978 3.31709C16.9996 1.72714 14.5377 0.8604 11.9996 0.860352L11.9996 1.36035L11.9996 1.86035C14.3098 1.8604 16.5508 2.64933 18.3515 4.09656L18.6647 3.70683ZM10.7836 12.9284L11.1898 12.6369L7.16424 7.02569L6.75798 7.31715L6.35172 7.60861L10.3773 13.2198L10.7836 12.9284ZM6.75798 7.31715L7.1684 7.03157C7.1818 7.05083 7.188 7.07418 7.18592 7.09755L6.68789 7.05324L6.18985 7.00893C6.17114 7.21923 6.22697 7.42942 6.34756 7.60273L6.75798 7.31715ZM6.68789 7.05324L7.18592 7.09755C7.18384 7.12092 7.17361 7.14281 7.15702 7.1594L6.80347 6.80584L6.44992 6.45229C6.30062 6.60159 6.20857 6.79862 6.18985 7.00893L6.68789 7.05324ZM6.80347 6.80584L7.15702 7.1594C7.14044 7.17598 7.11855 7.18621 7.09518 7.18829L7.05087 6.69026L7.00656 6.19223C6.79625 6.21094 6.59921 6.30299 6.44992 6.45229L6.80347 6.80584ZM7.05087 6.69026L7.09518 7.18829C7.07181 7.19037 7.04845 7.18417 7.0292 7.17077L7.31478 6.76035L7.60036 6.34993C7.42705 6.22934 7.21686 6.17352 7.00656 6.19223L7.05087 6.69026ZM7.31478 6.76035L7.0235 7.16675L12.6379 11.1907L12.9292 10.7844L13.2205 10.378L7.60606 6.35395L7.31478 6.76035ZM12.9292 10.7844L12.637 11.1901C12.7589 11.2778 12.8602 11.391 12.934 11.5218L13.3694 11.276L13.8049 11.0303C13.6599 10.7733 13.4608 10.551 13.2213 10.3786L12.9292 10.7844ZM13.3694 11.276L12.934 11.5218C13.0078 11.6525 13.0522 11.7977 13.0643 11.9474L13.5627 11.9071L14.0611 11.8668C14.0373 11.5727 13.9499 11.2873 13.8049 11.0303L13.3694 11.276ZM13.5627 11.9071L13.0643 11.9474C13.0764 12.097 13.0559 12.2475 13.0041 12.3884L13.4734 12.561L13.9426 12.7335C14.0445 12.4566 14.0849 12.1609 14.0611 11.8668L13.5627 11.9071ZM13.4734 12.561L13.0041 12.3884C12.9523 12.5293 12.8704 12.6573 12.7643 12.7635L13.1178 13.117L13.4714 13.4706C13.68 13.2619 13.8408 13.0104 13.9426 12.7335L13.4734 12.561ZM13.1178 13.117L12.7643 12.7635C12.6581 12.8696 12.5302 12.9514 12.3892 13.0032L12.5618 13.4725L12.7343 13.9418C13.0113 13.84 13.2628 13.6792 13.4714 13.4706L13.1178 13.117ZM12.5618 13.4725L12.3892 13.0032C12.2483 13.0551 12.0978 13.0756 11.9482 13.0635L11.9079 13.5619L11.8676 14.0603C12.1617 14.0841 12.4574 14.0436 12.7343 13.9418L12.5618 13.4725ZM11.9079 13.5619L11.9482 13.0635C11.7986 13.0514 11.6533 13.0069 11.5226 12.9332L11.2769 13.3686L11.0311 13.8041C11.2881 13.9491 11.5735 14.0365 11.8676 14.0603L11.9079 13.5619ZM11.2769 13.3686L11.5226 12.9332C11.3918 12.8594 11.2787 12.758 11.191 12.6362L10.7852 12.9284L10.3794 13.2205C10.5518 13.4599 10.7742 13.6591 11.0311 13.8041L11.2769 13.3686Z" fill="#515660" mask="url(#path-1-outside-1_729_5481)"/>
</g>
<defs>
<clipPath id="clip0_729_5481">
<rect width="24" height="24" fill="white"/>
</clipPath>
</defs>
</svg>
