<svg width="24" height="24" viewBox="0 0 24 24" fill="none" xmlns="http://www.w3.org/2000/svg">
<path d="M20.6198 7.06C20.3701 6.4683 20.0066 5.93146 19.5498 5.48C19.0951 5.01536 18.5508 4.64794 17.9498 4.4C17.5838 4.24856 17.2011 4.14114 16.8098 4.08V2.75C16.8098 2.55109 16.7308 2.36032 16.5901 2.21967C16.4495 2.07902 16.2587 2 16.0598 2C15.8609 2 15.6701 2.07902 15.5295 2.21967C15.3888 2.36032 15.3098 2.55109 15.3098 2.75V4.02H8.6998V2.75C8.6998 2.55109 8.62078 2.36032 8.48013 2.21967C8.33948 2.07902 8.14871 2 7.9498 2C7.75089 2 7.56012 2.07902 7.41947 2.21967C7.27882 2.36032 7.1998 2.55109 7.1998 2.75V4.08C6.16454 4.23277 5.20668 4.71697 4.4698 5.46C4.01211 5.91641 3.64925 6.45887 3.40211 7.05613C3.15497 7.65338 3.02844 8.29363 3.0298 8.94V17.04C3.02819 17.6914 3.15388 18.3368 3.3998 18.94C3.64182 19.5393 4.00236 20.0835 4.4598 20.54C4.9138 21.004 5.4578 21.372 6.0598 21.62C6.6578 21.871 7.2998 22 7.9498 22H16.0598C17.3621 21.9947 18.6094 21.4743 19.5294 20.5525C20.4493 19.6307 20.9672 18.3823 20.9698 17.08V8.97C20.9874 8.31591 20.8681 7.66536 20.6198 7.06ZM16.6198 16.65H7.4498C7.25089 16.65 7.06012 16.571 6.91947 16.4303C6.77882 16.2897 6.6998 16.0989 6.6998 15.9C6.6998 15.7011 6.77882 15.5103 6.91947 15.3697C7.06012 15.229 7.25089 15.15 7.4498 15.15H16.5498C16.7487 15.15 16.9395 15.229 17.0801 15.3697C17.2208 15.5103 17.2998 15.7011 17.2998 15.9C17.2998 16.0989 17.2208 16.2897 17.0801 16.4303C16.9395 16.571 16.7487 16.65 16.5498 16.65H16.6198ZM16.6198 11.58H7.4498C7.25089 11.58 7.06012 11.501 6.91947 11.3603C6.77882 11.2197 6.6998 11.0289 6.6998 10.83C6.6998 10.6311 6.77882 10.4403 6.91947 10.2997C7.06012 10.159 7.25089 10.08 7.4498 10.08H16.5498C16.7487 10.08 16.9395 10.159 17.0801 10.2997C17.2208 10.4403 17.2998 10.6311 17.2998 10.83C17.2998 11.0289 17.2208 11.2197 17.0801 11.3603C16.9395 11.501 16.7487 11.58 16.5498 11.58H16.6198Z" fill="#515660"/>
</svg>
